<svg width="1200" height="627" viewBox="0 0 1200 627" fill="none" xmlns="http://www.w3.org/2000/svg">
<rect width="1200" height="627" fill="white"/>
<path d="M267.494 132.25C267.494 131.16 266.83 129.891 266.012 129.418L220.552 103.172C219.189 102.385 218.081 103.222 218.081 105.04V199.106C218.081 200.561 218.967 202.253 220.058 202.883L260.576 226.276C264.394 228.48 267.494 226.137 267.494 221.046V132.25Z" fill="#4E6FBB"/>
<path d="M311.809 105.912C311.809 105.237 311.398 104.926 310.892 105.218L266.861 130.64C266.355 130.932 265.944 131.717 265.944 132.392V222.776C265.944 226.489 268.204 228.198 270.989 226.59L310.892 203.552C311.398 203.26 311.809 202.474 311.809 201.799V105.912Z" fill="#4D6FBB"/>
<path d="M269.132 79.3304C266.347 77.7223 262.127 77.5475 259.715 78.9401L219.958 101.894C217.546 103.286 217.849 105.722 220.635 107.331L261.008 130.64C263.793 132.248 268.013 132.423 270.425 131.03L310.181 108.077C312.594 106.684 312.29 104.248 309.505 102.64L269.132 79.3304Z" fill="#6D8ACA"/>
<path d="M269.132 175.216C266.347 173.608 262.127 173.433 259.715 174.826L219.958 197.779C217.546 199.172 217.849 201.608 220.635 203.216L261.008 226.526C263.793 228.134 268.013 228.309 270.425 226.916L310.181 203.963C312.594 202.57 312.29 200.134 309.505 198.526L269.132 175.216Z" fill="#4D6FBB"/>
<path d="M265.183 156.111L218.33 129.061V134.396L265.183 161.447V156.111ZM309.499 130.526L265.183 156.111V161.447L309.499 135.861V130.526Z" fill="#4467AE"/>
<path d="M256.597 174.549C256.597 174.236 256.407 173.871 256.172 173.736L225.279 155.9C225.044 155.764 224.853 155.908 224.853 156.221V166.432C224.853 166.745 225.044 167.109 225.279 167.245L256.172 185.081C256.407 185.216 256.597 185.072 256.597 184.759V174.549ZM256.597 196.547C256.597 196.234 256.407 195.869 256.172 195.734L225.279 177.897C225.044 177.762 224.853 177.906 224.853 178.219V188.429C224.853 188.743 225.044 189.107 225.279 189.242L256.172 207.079C256.407 207.214 256.597 207.07 256.597 206.757V196.547Z" fill="#6D8ACA"/>
<path d="M254.504 130.049C255.66 130.715 256.597 132.814 256.597 134.733C256.597 136.651 255.66 137.667 254.504 137C253.349 136.333 252.411 134.234 252.411 132.316C252.411 130.397 253.349 129.382 254.504 130.049ZM254.504 139.816C255.66 140.483 256.597 142.582 256.597 144.5C256.597 146.418 255.66 147.435 254.504 146.768C253.349 146.101 252.411 144.002 252.411 142.083C252.411 140.165 253.349 139.149 254.504 139.816Z" fill="#EDEEF0"/>
<path d="M214.391 257H209.462V242.455H214.49C215.935 242.455 217.175 242.746 218.212 243.328C219.254 243.906 220.054 244.737 220.613 245.821C221.171 246.905 221.451 248.203 221.451 249.713C221.451 251.228 221.169 252.53 220.605 253.619C220.047 254.708 219.239 255.544 218.184 256.126C217.132 256.709 215.868 257 214.391 257ZM212.097 254.72H214.263C215.276 254.72 216.122 254.536 216.799 254.166C217.476 253.792 217.985 253.236 218.326 252.497C218.667 251.754 218.837 250.826 218.837 249.713C218.837 248.6 218.667 247.677 218.326 246.943C217.985 246.205 217.48 245.653 216.813 245.288C216.15 244.919 215.326 244.734 214.341 244.734H212.097V254.72ZM226.98 257.22C226.288 257.22 225.666 257.097 225.112 256.851C224.563 256.6 224.127 256.231 223.805 255.743C223.488 255.255 223.329 254.654 223.329 253.939C223.329 253.323 223.443 252.814 223.67 252.412C223.897 252.009 224.208 251.688 224.6 251.446C224.993 251.205 225.436 251.022 225.929 250.899C226.426 250.771 226.94 250.679 227.47 250.622C228.109 250.556 228.627 250.497 229.025 250.445C229.423 250.388 229.712 250.303 229.892 250.189C230.076 250.071 230.169 249.888 230.169 249.642V249.599C230.169 249.064 230.01 248.65 229.693 248.357C229.376 248.063 228.919 247.916 228.322 247.916C227.692 247.916 227.193 248.054 226.824 248.328C226.459 248.603 226.213 248.927 226.085 249.301L223.684 248.96C223.874 248.297 224.186 247.743 224.622 247.298C225.057 246.848 225.59 246.512 226.22 246.29C226.85 246.062 227.546 245.949 228.308 245.949C228.833 245.949 229.357 246.01 229.877 246.134C230.398 246.257 230.874 246.46 231.305 246.744C231.736 247.024 232.082 247.405 232.342 247.888C232.607 248.371 232.74 248.974 232.74 249.699V257H230.268V255.501H230.183C230.027 255.804 229.806 256.089 229.522 256.354C229.243 256.614 228.89 256.825 228.464 256.986C228.043 257.142 227.548 257.22 226.98 257.22ZM227.647 255.331C228.163 255.331 228.611 255.229 228.99 255.026C229.368 254.817 229.66 254.543 229.863 254.202C230.072 253.861 230.176 253.489 230.176 253.087V251.801C230.095 251.867 229.958 251.929 229.764 251.986C229.574 252.043 229.361 252.092 229.125 252.135C228.888 252.178 228.654 252.215 228.422 252.249C228.19 252.282 227.988 252.31 227.818 252.334C227.434 252.386 227.091 252.471 226.788 252.589C226.485 252.708 226.246 252.874 226.071 253.087C225.895 253.295 225.808 253.565 225.808 253.896C225.808 254.37 225.981 254.727 226.326 254.969C226.672 255.21 227.112 255.331 227.647 255.331ZM240.772 246.091V248.08H234.501V246.091H240.772ZM236.049 243.477H238.62V253.719C238.62 254.064 238.672 254.33 238.777 254.514C238.886 254.694 239.028 254.817 239.203 254.884C239.378 254.95 239.572 254.983 239.785 254.983C239.946 254.983 240.093 254.971 240.225 254.947C240.363 254.924 240.467 254.902 240.538 254.884L240.971 256.893C240.834 256.941 240.637 256.993 240.382 257.05C240.131 257.107 239.823 257.14 239.458 257.149C238.815 257.168 238.234 257.071 237.718 256.858C237.202 256.64 236.793 256.304 236.49 255.849C236.191 255.395 236.045 254.827 236.049 254.145V243.477ZM246.062 257.22C245.371 257.22 244.748 257.097 244.194 256.851C243.645 256.6 243.209 256.231 242.887 255.743C242.57 255.255 242.411 254.654 242.411 253.939C242.411 253.323 242.525 252.814 242.752 252.412C242.979 252.009 243.29 251.688 243.683 251.446C244.076 251.205 244.518 251.022 245.011 250.899C245.508 250.771 246.022 250.679 246.552 250.622C247.191 250.556 247.71 250.497 248.107 250.445C248.505 250.388 248.794 250.303 248.974 250.189C249.158 250.071 249.251 249.888 249.251 249.642V249.599C249.251 249.064 249.092 248.65 248.775 248.357C248.458 248.063 248.001 247.916 247.404 247.916C246.774 247.916 246.275 248.054 245.906 248.328C245.541 248.603 245.295 248.927 245.167 249.301L242.766 248.96C242.956 248.297 243.268 247.743 243.704 247.298C244.139 246.848 244.672 246.512 245.302 246.29C245.932 246.062 246.628 245.949 247.39 245.949C247.915 245.949 248.439 246.01 248.96 246.134C249.48 246.257 249.956 246.46 250.387 246.744C250.818 247.024 251.164 247.405 251.424 247.888C251.689 248.371 251.822 248.974 251.822 249.699V257H249.35V255.501H249.265C249.109 255.804 248.888 256.089 248.604 256.354C248.325 256.614 247.972 256.825 247.546 256.986C247.125 257.142 246.63 257.22 246.062 257.22ZM246.729 255.331C247.246 255.331 247.693 255.229 248.072 255.026C248.451 254.817 248.742 254.543 248.945 254.202C249.154 253.861 249.258 253.489 249.258 253.087V251.801C249.177 251.867 249.04 251.929 248.846 251.986C248.656 252.043 248.443 252.092 248.207 252.135C247.97 252.178 247.736 252.215 247.504 252.249C247.272 252.282 247.07 252.31 246.9 252.334C246.516 252.386 246.173 252.471 245.87 252.589C245.567 252.708 245.328 252.874 245.153 253.087C244.978 253.295 244.89 253.565 244.89 253.896C244.89 254.37 245.063 254.727 245.408 254.969C245.754 255.21 246.194 255.331 246.729 255.331ZM282.269 246.453C282.203 245.833 281.924 245.35 281.431 245.004C280.943 244.659 280.309 244.486 279.528 244.486C278.978 244.486 278.507 244.569 278.114 244.734C277.721 244.9 277.421 245.125 277.212 245.409C277.004 245.693 276.897 246.018 276.893 246.382C276.893 246.685 276.961 246.948 277.099 247.17C277.241 247.393 277.433 247.582 277.674 247.739C277.915 247.89 278.183 248.018 278.477 248.122C278.77 248.226 279.066 248.314 279.364 248.385L280.728 248.726C281.277 248.854 281.805 249.027 282.312 249.244C282.823 249.462 283.28 249.737 283.683 250.068C284.09 250.4 284.412 250.8 284.648 251.268C284.885 251.737 285.004 252.286 285.004 252.916C285.004 253.768 284.786 254.519 284.35 255.168C283.915 255.812 283.285 256.316 282.461 256.68C281.642 257.04 280.65 257.22 279.485 257.22C278.353 257.22 277.371 257.045 276.538 256.695C275.709 256.344 275.06 255.833 274.592 255.161C274.128 254.488 273.877 253.669 273.839 252.703H276.431C276.469 253.21 276.625 253.631 276.9 253.967C277.174 254.304 277.532 254.554 277.972 254.72C278.417 254.886 278.915 254.969 279.464 254.969C280.037 254.969 280.539 254.884 280.969 254.713C281.405 254.538 281.746 254.296 281.992 253.989C282.238 253.676 282.364 253.312 282.369 252.895C282.364 252.516 282.253 252.204 282.035 251.957C281.817 251.706 281.512 251.498 281.119 251.332C280.73 251.162 280.276 251.01 279.755 250.878L278.1 250.452C276.902 250.144 275.955 249.678 275.259 249.053C274.568 248.423 274.222 247.587 274.222 246.545C274.222 245.688 274.454 244.938 274.918 244.294C275.387 243.65 276.024 243.151 276.829 242.795C277.634 242.436 278.545 242.256 279.563 242.256C280.595 242.256 281.5 242.436 282.276 242.795C283.058 243.151 283.671 243.645 284.116 244.28C284.561 244.91 284.79 245.634 284.805 246.453H282.269ZM292.069 257.213C290.975 257.213 290.03 256.986 289.235 256.531C288.444 256.072 287.836 255.423 287.409 254.585C286.983 253.742 286.77 252.75 286.77 251.609C286.77 250.487 286.983 249.502 287.409 248.655C287.84 247.803 288.442 247.14 289.213 246.666C289.985 246.188 290.892 245.949 291.934 245.949C292.606 245.949 293.24 246.058 293.837 246.276C294.438 246.489 294.969 246.82 295.428 247.27C295.892 247.72 296.257 248.293 296.522 248.989C296.787 249.68 296.919 250.504 296.919 251.46V252.249H287.978V250.516H294.455C294.45 250.023 294.344 249.585 294.135 249.202C293.927 248.813 293.636 248.508 293.262 248.286C292.892 248.063 292.462 247.952 291.969 247.952C291.444 247.952 290.982 248.08 290.584 248.335C290.186 248.586 289.876 248.918 289.654 249.33C289.436 249.737 289.325 250.184 289.32 250.672V252.185C289.32 252.819 289.436 253.364 289.668 253.818C289.9 254.268 290.224 254.614 290.641 254.855C291.058 255.092 291.545 255.21 292.104 255.21C292.478 255.21 292.817 255.158 293.12 255.054C293.423 254.945 293.685 254.786 293.908 254.578C294.131 254.37 294.299 254.112 294.412 253.804L296.813 254.074C296.661 254.708 296.373 255.262 295.946 255.736C295.525 256.205 294.985 256.569 294.327 256.83C293.669 257.085 292.916 257.213 292.069 257.213ZM299.094 257V246.091H301.587V247.909H301.701C301.9 247.279 302.241 246.794 302.724 246.453C303.211 246.107 303.768 245.935 304.393 245.935C304.535 245.935 304.693 245.942 304.869 245.956C305.049 245.965 305.198 245.982 305.316 246.006V248.371C305.207 248.333 305.034 248.3 304.798 248.271C304.566 248.238 304.341 248.222 304.123 248.222C303.654 248.222 303.233 248.323 302.859 248.527C302.489 248.726 302.198 249.003 301.985 249.358C301.772 249.713 301.665 250.123 301.665 250.587V257H299.094ZM317.1 246.091L313.216 257H310.375L306.49 246.091H309.231L311.738 254.195H311.852L314.366 246.091H317.1ZM323.338 257.213C322.244 257.213 321.3 256.986 320.504 256.531C319.714 256.072 319.105 255.423 318.679 254.585C318.253 253.742 318.04 252.75 318.04 251.609C318.04 250.487 318.253 249.502 318.679 248.655C319.11 247.803 319.711 247.14 320.483 246.666C321.255 246.188 322.161 245.949 323.203 245.949C323.875 245.949 324.51 246.058 325.107 246.276C325.708 246.489 326.238 246.82 326.697 247.27C327.161 247.72 327.526 248.293 327.791 248.989C328.056 249.68 328.189 250.504 328.189 251.46V252.249H319.247V250.516H325.724C325.72 250.023 325.613 249.585 325.405 249.202C325.196 248.813 324.905 248.508 324.531 248.286C324.162 248.063 323.731 247.952 323.239 247.952C322.713 247.952 322.251 248.08 321.854 248.335C321.456 248.586 321.146 248.918 320.923 249.33C320.705 249.737 320.594 250.184 320.589 250.672V252.185C320.589 252.819 320.705 253.364 320.938 253.818C321.17 254.268 321.494 254.614 321.911 254.855C322.327 255.092 322.815 255.21 323.374 255.21C323.748 255.21 324.086 255.158 324.389 255.054C324.692 254.945 324.955 254.786 325.178 254.578C325.4 254.37 325.568 254.112 325.682 253.804L328.082 254.074C327.931 254.708 327.642 255.262 327.216 255.736C326.795 256.205 326.255 256.569 325.597 256.83C324.938 257.085 324.186 257.213 323.338 257.213ZM330.364 257V246.091H332.857V247.909H332.971C333.169 247.279 333.51 246.794 333.993 246.453C334.481 246.107 335.037 245.935 335.662 245.935C335.804 245.935 335.963 245.942 336.138 245.956C336.318 245.965 336.467 245.982 336.586 246.006V248.371C336.477 248.333 336.304 248.3 336.067 248.271C335.835 248.238 335.61 248.222 335.392 248.222C334.924 248.222 334.502 248.323 334.128 248.527C333.759 248.726 333.468 249.003 333.255 249.358C333.042 249.713 332.935 250.123 332.935 250.587V257H330.364Z" fill="black"/>
<line x1="263.5" y1="221.984" x2="265.5" y2="414.984" stroke="black" stroke-width="3"/>
<line x1="598.5" y1="121.984" x2="600.5" y2="314.984" stroke="black" stroke-width="3"/>
<line x1="935.5" y1="221.984" x2="937.5" y2="414.984" stroke="black" stroke-width="3"/>
<line x1="264" y1="316.5" x2="526" y2="316.5" stroke="black" stroke-width="3"/>
<line x1="669" y1="311.5" x2="931" y2="311.5" stroke="black" stroke-width="3"/>
<path d="M932.494 132.25C932.494 131.16 931.83 129.891 931.012 129.418L885.552 103.172C884.189 102.385 883.081 103.222 883.081 105.04V199.106C883.081 200.561 883.967 202.253 885.058 202.883L925.576 226.276C929.394 228.48 932.494 226.137 932.494 221.046V132.25Z" fill="#4E6FBB"/>
<path d="M976.809 105.912C976.809 105.237 976.398 104.926 975.892 105.218L931.861 130.64C931.355 130.932 930.944 131.717 930.944 132.392V222.776C930.944 226.489 933.204 228.198 935.989 226.59L975.892 203.552C976.398 203.26 976.809 202.474 976.809 201.799V105.912Z" fill="#4D6FBB"/>
<path d="M934.132 79.3304C931.347 77.7223 927.127 77.5475 924.715 78.9401L884.958 101.894C882.546 103.286 882.849 105.722 885.635 107.331L926.008 130.64C928.793 132.248 933.013 132.423 935.425 131.03L975.181 108.077C977.594 106.684 977.29 104.248 974.505 102.64L934.132 79.3304Z" fill="#6D8ACA"/>
<path d="M934.132 175.216C931.347 173.608 927.127 173.433 924.715 174.826L884.958 197.779C882.546 199.172 882.849 201.608 885.635 203.216L926.008 226.526C928.793 228.134 933.013 228.309 935.425 226.916L975.181 203.963C977.594 202.57 977.29 200.134 974.505 198.526L934.132 175.216Z" fill="#4D6FBB"/>
<path d="M930.183 156.111L883.33 129.061V134.396L930.183 161.447V156.111ZM974.499 130.526L930.183 156.111V161.447L974.499 135.861V130.526Z" fill="#4467AE"/>
<path d="M921.597 174.549C921.597 174.236 921.407 173.871 921.172 173.736L890.279 155.9C890.044 155.764 889.853 155.908 889.853 156.221V166.432C889.853 166.745 890.044 167.109 890.279 167.245L921.172 185.081C921.407 185.216 921.597 185.072 921.597 184.759V174.549ZM921.597 196.547C921.597 196.234 921.407 195.869 921.172 195.734L890.279 177.897C890.044 177.762 889.853 177.906 889.853 178.219V188.429C889.853 188.743 890.044 189.107 890.279 189.242L921.172 207.079C921.407 207.214 921.597 207.07 921.597 206.757V196.547Z" fill="#6D8ACA"/>
<path d="M919.504 130.049C920.66 130.715 921.597 132.814 921.597 134.733C921.597 136.651 920.66 137.667 919.504 137C918.349 136.333 917.411 134.234 917.411 132.316C917.411 130.397 918.349 129.382 919.504 130.049ZM919.504 139.816C920.66 140.483 921.597 142.582 921.597 144.5C921.597 146.418 920.66 147.435 919.504 146.768C918.349 146.101 917.411 144.002 917.411 142.083C917.411 140.165 918.349 139.149 919.504 139.816Z" fill="#EDEEF0"/>
<path d="M892.775 257L888.67 242.455H891.504L894.124 253.143H894.259L897.058 242.455H899.636L902.441 253.151H902.569L905.19 242.455H908.024L903.919 257H901.319L898.407 246.794H898.294L895.374 257H892.775ZM913.453 257.213C912.36 257.213 911.415 256.986 910.619 256.531C909.829 256.072 909.22 255.423 908.794 254.585C908.368 253.742 908.155 252.75 908.155 251.609C908.155 250.487 908.368 249.502 908.794 248.655C909.225 247.803 909.826 247.14 910.598 246.666C911.37 246.188 912.277 245.949 913.318 245.949C913.991 245.949 914.625 246.058 915.222 246.276C915.823 246.489 916.353 246.82 916.813 247.27C917.277 247.72 917.641 248.293 917.906 248.989C918.172 249.68 918.304 250.504 918.304 251.46V252.249H909.362V250.516H915.84C915.835 250.023 915.728 249.585 915.52 249.202C915.312 248.813 915.021 248.508 914.646 248.286C914.277 248.063 913.846 247.952 913.354 247.952C912.828 247.952 912.367 248.08 911.969 248.335C911.571 248.586 911.261 248.918 911.039 249.33C910.821 249.737 910.709 250.184 910.705 250.672V252.185C910.705 252.819 910.821 253.364 911.053 253.818C911.285 254.268 911.609 254.614 912.026 254.855C912.442 255.092 912.93 255.21 913.489 255.21C913.863 255.21 914.201 255.158 914.504 255.054C914.807 254.945 915.07 254.786 915.293 254.578C915.515 254.37 915.683 254.112 915.797 253.804L918.198 254.074C918.046 254.708 917.757 255.262 917.331 255.736C916.91 256.205 916.37 256.569 915.712 256.83C915.054 257.085 914.301 257.213 913.453 257.213ZM920.593 257V242.455H923.164V247.895H923.27C923.403 247.63 923.59 247.348 923.831 247.05C924.073 246.747 924.4 246.489 924.812 246.276C925.224 246.058 925.749 245.949 926.388 245.949C927.231 245.949 927.991 246.164 928.668 246.595C929.35 247.021 929.89 247.653 930.287 248.491C930.69 249.325 930.891 250.348 930.891 251.56C930.891 252.758 930.695 253.776 930.302 254.614C929.909 255.452 929.374 256.091 928.697 256.531C928.019 256.972 927.252 257.192 926.395 257.192C925.77 257.192 925.252 257.088 924.84 256.879C924.428 256.671 924.097 256.42 923.846 256.126C923.599 255.828 923.408 255.546 923.27 255.281H923.121V257H920.593ZM923.114 251.545C923.114 252.251 923.214 252.869 923.412 253.399C923.616 253.929 923.907 254.344 924.286 254.642C924.67 254.936 925.134 255.082 925.678 255.082C926.246 255.082 926.722 254.931 927.106 254.628C927.489 254.32 927.778 253.901 927.972 253.371C928.171 252.836 928.27 252.227 928.27 251.545C928.27 250.868 928.173 250.267 927.979 249.741C927.785 249.216 927.496 248.804 927.113 248.506C926.729 248.207 926.251 248.058 925.678 248.058C925.129 248.058 924.662 248.203 924.279 248.491C923.895 248.78 923.604 249.185 923.405 249.706C923.211 250.227 923.114 250.84 923.114 251.545ZM951.017 246.453C950.951 245.833 950.672 245.35 950.179 245.004C949.691 244.659 949.057 244.486 948.276 244.486C947.727 244.486 947.255 244.569 946.862 244.734C946.469 244.9 946.169 245.125 945.96 245.409C945.752 245.693 945.646 246.018 945.641 246.382C945.641 246.685 945.709 246.948 945.847 247.17C945.989 247.393 946.181 247.582 946.422 247.739C946.664 247.89 946.931 248.018 947.225 248.122C947.518 248.226 947.814 248.314 948.112 248.385L949.476 248.726C950.025 248.854 950.553 249.027 951.06 249.244C951.571 249.462 952.028 249.737 952.431 250.068C952.838 250.4 953.16 250.8 953.396 251.268C953.633 251.737 953.752 252.286 953.752 252.916C953.752 253.768 953.534 254.519 953.098 255.168C952.663 255.812 952.033 256.316 951.209 256.68C950.39 257.04 949.398 257.22 948.233 257.22C947.102 257.22 946.119 257.045 945.286 256.695C944.457 256.344 943.808 255.833 943.34 255.161C942.876 254.488 942.625 253.669 942.587 252.703H945.179C945.217 253.21 945.373 253.631 945.648 253.967C945.923 254.304 946.28 254.554 946.72 254.72C947.165 254.886 947.663 254.969 948.212 254.969C948.785 254.969 949.287 254.884 949.718 254.713C950.153 254.538 950.494 254.296 950.74 253.989C950.986 253.676 951.112 253.312 951.117 252.895C951.112 252.516 951.001 252.204 950.783 251.957C950.565 251.706 950.26 251.498 949.867 251.332C949.478 251.162 949.024 251.01 948.503 250.878L946.848 250.452C945.65 250.144 944.703 249.678 944.007 249.053C943.316 248.423 942.97 247.587 942.97 246.545C942.97 245.688 943.202 244.938 943.666 244.294C944.135 243.65 944.772 243.151 945.577 242.795C946.382 242.436 947.293 242.256 948.311 242.256C949.343 242.256 950.248 242.436 951.024 242.795C951.806 243.151 952.419 243.645 952.864 244.28C953.309 244.91 953.539 245.634 953.553 246.453H951.017ZM960.817 257.213C959.723 257.213 958.778 256.986 957.983 256.531C957.192 256.072 956.584 255.423 956.157 254.585C955.731 253.742 955.518 252.75 955.518 251.609C955.518 250.487 955.731 249.502 956.157 248.655C956.588 247.803 957.19 247.14 957.961 246.666C958.733 246.188 959.64 245.949 960.682 245.949C961.354 245.949 961.988 246.058 962.585 246.276C963.186 246.489 963.717 246.82 964.176 247.27C964.64 247.72 965.005 248.293 965.27 248.989C965.535 249.68 965.667 250.504 965.667 251.46V252.249H956.726V250.516H963.203C963.198 250.023 963.092 249.585 962.883 249.202C962.675 248.813 962.384 248.508 962.01 248.286C961.64 248.063 961.21 247.952 960.717 247.952C960.192 247.952 959.73 248.08 959.332 248.335C958.934 248.586 958.624 248.918 958.402 249.33C958.184 249.737 958.073 250.184 958.068 250.672V252.185C958.068 252.819 958.184 253.364 958.416 253.818C958.648 254.268 958.972 254.614 959.389 254.855C959.806 255.092 960.293 255.21 960.852 255.21C961.226 255.21 961.565 255.158 961.868 255.054C962.171 254.945 962.434 254.786 962.656 254.578C962.879 254.37 963.047 254.112 963.16 253.804L965.561 254.074C965.409 254.708 965.121 255.262 964.694 255.736C964.273 256.205 963.733 256.569 963.075 256.83C962.417 257.085 961.664 257.213 960.817 257.213ZM967.843 257V246.091H970.335V247.909H970.449C970.648 247.279 970.989 246.794 971.472 246.453C971.959 246.107 972.516 245.935 973.141 245.935C973.283 245.935 973.441 245.942 973.617 245.956C973.797 245.965 973.946 245.982 974.064 246.006V248.371C973.955 248.333 973.782 248.3 973.546 248.271C973.314 248.238 973.089 248.222 972.871 248.222C972.402 248.222 971.981 248.323 971.607 248.527C971.237 248.726 970.946 249.003 970.733 249.358C970.52 249.713 970.414 250.123 970.414 250.587V257H967.843ZM985.849 246.091L981.964 257H979.123L975.238 246.091H977.979L980.486 254.195H980.6L983.114 246.091H985.849ZM992.086 257.213C990.992 257.213 990.048 256.986 989.252 256.531C988.462 256.072 987.853 255.423 987.427 254.585C987.001 253.742 986.788 252.75 986.788 251.609C986.788 250.487 987.001 249.502 987.427 248.655C987.858 247.803 988.459 247.14 989.231 246.666C990.003 246.188 990.91 245.949 991.951 245.949C992.624 245.949 993.258 246.058 993.855 246.276C994.456 246.489 994.986 246.82 995.445 247.27C995.91 247.72 996.274 248.293 996.539 248.989C996.804 249.68 996.937 250.504 996.937 251.46V252.249H987.995V250.516H994.472C994.468 250.023 994.361 249.585 994.153 249.202C993.945 248.813 993.653 248.508 993.279 248.286C992.91 248.063 992.479 247.952 991.987 247.952C991.461 247.952 990.999 248.08 990.602 248.335C990.204 248.586 989.894 248.918 989.671 249.33C989.454 249.737 989.342 250.184 989.338 250.672V252.185C989.338 252.819 989.454 253.364 989.686 253.818C989.918 254.268 990.242 254.614 990.659 254.855C991.075 255.092 991.563 255.21 992.122 255.21C992.496 255.21 992.834 255.158 993.137 255.054C993.44 254.945 993.703 254.786 993.926 254.578C994.148 254.37 994.316 254.112 994.43 253.804L996.83 254.074C996.679 254.708 996.39 255.262 995.964 255.736C995.543 256.205 995.003 256.569 994.345 256.83C993.686 257.085 992.934 257.213 992.086 257.213ZM999.112 257V246.091H1001.6V247.909H1001.72C1001.92 247.279 1002.26 246.794 1002.74 246.453C1003.23 246.107 1003.79 245.935 1004.41 245.935C1004.55 245.935 1004.71 245.942 1004.89 245.956C1005.07 245.965 1005.22 245.982 1005.33 246.006V248.371C1005.22 248.333 1005.05 248.3 1004.82 248.271C1004.58 248.238 1004.36 248.222 1004.14 248.222C1003.67 248.222 1003.25 248.323 1002.88 248.527C1002.51 248.726 1002.22 249.003 1002 249.358C1001.79 249.713 1001.68 250.123 1001.68 250.587V257H999.112Z" fill="black"/>
<path d="M256.615 485.195H276.537V511.416H256.615V485.195Z" fill="#2CC4FE"/>
<path d="M277.123 512.002H256.029V484.609H277.123V512.002ZM257.201 510.83H275.951V485.781H257.201V510.83Z" fill="#515151"/>
<path d="M318.871 487.257H212.817C211.198 487.257 209.887 485.945 209.887 484.327V415.187C209.887 413.568 211.198 412.257 212.817 412.257H318.871C320.489 412.257 321.801 413.568 321.801 415.187V484.327C321.801 485.945 320.489 487.257 318.871 487.257Z" fill="#2CC4FE"/>
<path d="M318.871 487.843H212.817C210.878 487.843 209.301 486.266 209.301 484.327V415.187C209.301 413.248 210.878 411.671 212.817 411.671H318.871C320.81 411.671 322.387 413.248 322.387 415.187V484.327C322.387 486.266 320.81 487.843 318.871 487.843ZM212.817 412.843C211.524 412.843 210.473 413.894 210.473 415.187V484.327C210.473 485.619 211.524 486.671 212.817 486.671H318.871C320.164 486.671 321.215 485.619 321.215 484.327V415.187C321.215 413.894 320.164 412.843 318.871 412.843H212.817Z" fill="#515151"/>
<path d="M321.225 475.966H210.482V415.254C210.482 413.922 211.562 412.843 212.894 412.843H318.813C320.145 412.843 321.225 413.922 321.225 415.254V475.966Z" fill="#A1E4FD"/>
<path d="M294.564 512.002H238.461C238.306 512.002 238.157 511.94 238.047 511.83C237.937 511.72 237.875 511.571 237.875 511.416C237.875 511.261 237.937 511.112 238.047 511.002C238.157 510.892 238.306 510.83 238.461 510.83H294.564C294.72 510.83 294.869 510.892 294.979 511.002C295.089 511.112 295.15 511.261 295.15 511.416C295.15 511.571 295.089 511.72 294.979 511.83C294.869 511.94 294.72 512.002 294.564 512.002Z" fill="#515151"/>
<path d="M216.964 436.296L229.708 423.553Z" fill="#2CC4FE"/>
<path d="M216.964 436.882C216.848 436.882 216.735 436.848 216.638 436.783C216.542 436.719 216.467 436.628 216.423 436.521C216.378 436.413 216.367 436.296 216.389 436.182C216.412 436.068 216.468 435.964 216.55 435.882L229.293 423.138C229.403 423.029 229.552 422.967 229.707 422.967C229.863 422.967 230.012 423.029 230.122 423.138C230.232 423.248 230.293 423.397 230.293 423.553C230.293 423.708 230.232 423.857 230.122 423.967L217.378 436.711C217.324 436.765 217.259 436.808 217.188 436.838C217.117 436.867 217.041 436.882 216.964 436.882Z" fill="#D7F9FF"/>
<path d="M216.964 446.623L239.248 424.34Z" fill="#2CC4FE"/>
<path d="M216.964 447.208C216.848 447.208 216.735 447.174 216.638 447.11C216.542 447.045 216.467 446.954 216.423 446.847C216.378 446.74 216.367 446.622 216.389 446.508C216.412 446.395 216.468 446.29 216.55 446.208L238.833 423.925C238.943 423.815 239.092 423.753 239.248 423.753C239.403 423.753 239.552 423.815 239.662 423.925C239.772 424.034 239.834 424.183 239.834 424.339C239.834 424.494 239.772 424.643 239.662 424.753L217.378 447.037C217.324 447.091 217.259 447.135 217.188 447.164C217.117 447.193 217.041 447.208 216.964 447.208Z" fill="#D7F9FF"/>
<path d="M187.513 543V528.455H190.148V540.791H196.554V543H187.513ZM198.727 543V532.091H201.298V543H198.727ZM200.02 530.543C199.613 530.543 199.262 530.408 198.969 530.138C198.675 529.863 198.528 529.534 198.528 529.151C198.528 528.762 198.675 528.433 198.969 528.163C199.262 527.889 199.613 527.751 200.02 527.751C200.432 527.751 200.782 527.889 201.071 528.163C201.365 528.433 201.511 528.762 201.511 529.151C201.511 529.534 201.365 529.863 201.071 530.138C200.782 530.408 200.432 530.543 200.02 530.543ZM206.513 536.608V543H203.942V532.091H206.4V533.945H206.527C206.778 533.334 207.178 532.848 207.728 532.489C208.282 532.129 208.966 531.949 209.78 531.949C210.533 531.949 211.189 532.11 211.748 532.432C212.311 532.754 212.747 533.22 213.054 533.831C213.367 534.442 213.521 535.183 213.516 536.054V543H210.945V536.452C210.945 535.723 210.756 535.152 210.377 534.74C210.003 534.328 209.484 534.122 208.821 534.122C208.372 534.122 207.971 534.222 207.621 534.42C207.275 534.615 207.003 534.896 206.804 535.266C206.61 535.635 206.513 536.082 206.513 536.608ZM223.083 538.412V532.091H225.654V543H223.161V541.061H223.047C222.801 541.672 222.396 542.171 221.833 542.56C221.274 542.948 220.585 543.142 219.766 543.142C219.051 543.142 218.419 542.983 217.87 542.666C217.325 542.344 216.899 541.878 216.591 541.267C216.283 540.652 216.13 539.908 216.13 539.037V532.091H218.701V538.639C218.701 539.33 218.89 539.88 219.269 540.287C219.648 540.694 220.145 540.898 220.76 540.898C221.139 540.898 221.506 540.805 221.861 540.621C222.216 540.436 222.507 540.161 222.735 539.797C222.967 539.428 223.083 538.966 223.083 538.412ZM230.4 532.091L232.602 536.118L234.839 532.091H237.559L234.271 537.545L237.616 543H234.91L232.602 539.072L230.315 543H227.587L230.911 537.545L227.673 532.091H230.4ZM247.683 543L243.578 528.455H246.412L249.033 539.143H249.168L251.966 528.455H254.544L257.349 539.151H257.477L260.098 528.455H262.932L258.827 543H256.227L253.315 532.794H253.202L250.283 543H247.683ZM268.29 543.213C267.225 543.213 266.302 542.979 265.521 542.51C264.739 542.041 264.133 541.385 263.702 540.543C263.276 539.7 263.063 538.715 263.063 537.588C263.063 536.461 263.276 535.474 263.702 534.626C264.133 533.779 264.739 533.121 265.521 532.652C266.302 532.183 267.225 531.949 268.29 531.949C269.356 531.949 270.279 532.183 271.06 532.652C271.842 533.121 272.445 533.779 272.871 534.626C273.302 535.474 273.518 536.461 273.518 537.588C273.518 538.715 273.302 539.7 272.871 540.543C272.445 541.385 271.842 542.041 271.06 542.51C270.279 542.979 269.356 543.213 268.29 543.213ZM268.305 541.153C268.882 541.153 269.365 540.995 269.754 540.678C270.142 540.356 270.431 539.925 270.62 539.385C270.814 538.845 270.911 538.244 270.911 537.581C270.911 536.913 270.814 536.31 270.62 535.77C270.431 535.225 270.142 534.792 269.754 534.47C269.365 534.148 268.882 533.987 268.305 533.987C267.713 533.987 267.22 534.148 266.827 534.47C266.439 534.792 266.148 535.225 265.954 535.77C265.764 536.31 265.67 536.913 265.67 537.581C265.67 538.244 265.764 538.845 265.954 539.385C266.148 539.925 266.439 540.356 266.827 540.678C267.22 540.995 267.713 541.153 268.305 541.153ZM275.7 543V532.091H278.193V533.909H278.306C278.505 533.279 278.846 532.794 279.329 532.453C279.817 532.107 280.373 531.935 280.998 531.935C281.14 531.935 281.299 531.942 281.474 531.956C281.654 531.965 281.803 531.982 281.922 532.006V534.371C281.813 534.333 281.64 534.3 281.403 534.271C281.171 534.238 280.946 534.222 280.728 534.222C280.26 534.222 279.838 534.323 279.464 534.527C279.095 534.726 278.804 535.003 278.591 535.358C278.377 535.713 278.271 536.123 278.271 536.587V543H275.7ZM285.973 539.577L285.966 536.473H286.378L290.299 532.091H293.303L288.48 537.46H287.948L285.973 539.577ZM283.63 543V528.455H286.201V543H283.63ZM290.476 543L286.925 538.036L288.658 536.224L293.551 543H290.476ZM303.638 534.974L301.295 535.23C301.228 534.993 301.112 534.771 300.947 534.562C300.786 534.354 300.568 534.186 300.293 534.058C300.019 533.93 299.683 533.866 299.285 533.866C298.75 533.866 298.3 533.982 297.935 534.214C297.576 534.446 297.398 534.747 297.403 535.116C297.398 535.434 297.514 535.692 297.751 535.891C297.992 536.089 298.39 536.253 298.944 536.381L300.805 536.778C301.837 537.001 302.604 537.354 303.106 537.837C303.612 538.32 303.868 538.952 303.873 539.733C303.868 540.42 303.667 541.026 303.269 541.551C302.876 542.072 302.329 542.479 301.629 542.773C300.928 543.066 300.123 543.213 299.214 543.213C297.879 543.213 296.804 542.934 295.989 542.375C295.175 541.812 294.69 541.028 294.533 540.024L297.04 539.783C297.154 540.275 297.396 540.647 297.765 540.898C298.134 541.149 298.615 541.274 299.207 541.274C299.817 541.274 300.308 541.149 300.677 540.898C301.051 540.647 301.238 540.337 301.238 539.967C301.238 539.655 301.117 539.397 300.876 539.193C300.639 538.99 300.27 538.833 299.768 538.724L297.907 538.334C296.861 538.116 296.086 537.749 295.585 537.233C295.083 536.712 294.834 536.054 294.839 535.259C294.834 534.586 295.016 534.004 295.386 533.511C295.76 533.014 296.278 532.631 296.941 532.361C297.609 532.086 298.378 531.949 299.249 531.949C300.528 531.949 301.534 532.221 302.268 532.766C303.006 533.31 303.463 534.046 303.638 534.974ZM311.44 532.091V534.08H305.169V532.091H311.44ZM306.717 529.477H309.288V539.719C309.288 540.064 309.34 540.33 309.445 540.514C309.554 540.694 309.696 540.817 309.871 540.884C310.046 540.95 310.24 540.983 310.453 540.983C310.614 540.983 310.761 540.971 310.893 540.947C311.031 540.924 311.135 540.902 311.206 540.884L311.639 542.893C311.502 542.941 311.305 542.993 311.05 543.05C310.799 543.107 310.491 543.14 310.126 543.149C309.482 543.168 308.902 543.071 308.386 542.858C307.87 542.64 307.461 542.304 307.158 541.849C306.859 541.395 306.713 540.827 306.717 540.145V529.477ZM316.73 543.22C316.038 543.22 315.416 543.097 314.862 542.851C314.313 542.6 313.877 542.231 313.555 541.743C313.238 541.255 313.079 540.654 313.079 539.939C313.079 539.323 313.193 538.814 313.42 538.412C313.647 538.009 313.958 537.688 314.35 537.446C314.743 537.205 315.186 537.022 315.679 536.899C316.176 536.771 316.69 536.679 317.22 536.622C317.859 536.556 318.377 536.497 318.775 536.445C319.173 536.388 319.462 536.303 319.642 536.189C319.826 536.071 319.919 535.888 319.919 535.642V535.599C319.919 535.064 319.76 534.65 319.443 534.357C319.126 534.063 318.669 533.916 318.072 533.916C317.442 533.916 316.943 534.054 316.574 534.328C316.209 534.603 315.963 534.927 315.835 535.301L313.434 534.96C313.624 534.297 313.936 533.743 314.372 533.298C314.807 532.848 315.34 532.512 315.97 532.29C316.6 532.062 317.296 531.949 318.058 531.949C318.583 531.949 319.107 532.01 319.627 532.134C320.148 532.257 320.624 532.46 321.055 532.744C321.486 533.024 321.832 533.405 322.092 533.888C322.357 534.371 322.49 534.974 322.49 535.699V543H320.018V541.501H319.933C319.777 541.804 319.556 542.089 319.272 542.354C318.993 542.614 318.64 542.825 318.214 542.986C317.793 543.142 317.298 543.22 316.73 543.22ZM317.397 541.331C317.913 541.331 318.361 541.229 318.74 541.026C319.118 540.817 319.41 540.543 319.613 540.202C319.822 539.861 319.926 539.489 319.926 539.087V537.801C319.845 537.867 319.708 537.929 319.514 537.986C319.324 538.043 319.111 538.092 318.875 538.135C318.638 538.178 318.404 538.215 318.172 538.249C317.94 538.282 317.738 538.31 317.568 538.334C317.184 538.386 316.841 538.471 316.538 538.589C316.235 538.708 315.996 538.874 315.821 539.087C315.645 539.295 315.558 539.565 315.558 539.896C315.558 540.37 315.731 540.727 316.076 540.969C316.422 541.21 316.862 541.331 317.397 541.331ZM330.522 532.091V534.08H324.251V532.091H330.522ZM325.799 529.477H328.37V539.719C328.37 540.064 328.422 540.33 328.527 540.514C328.636 540.694 328.778 540.817 328.953 540.884C329.128 540.95 329.322 540.983 329.535 540.983C329.696 540.983 329.843 540.971 329.975 540.947C330.113 540.924 330.217 540.902 330.288 540.884L330.721 542.893C330.584 542.941 330.387 542.993 330.132 543.05C329.881 543.107 329.573 543.14 329.208 543.149C328.565 543.168 327.984 543.071 327.468 542.858C326.952 542.64 326.543 542.304 326.24 541.849C325.941 541.395 325.795 540.827 325.799 540.145V529.477ZM332.673 543V532.091H335.244V543H332.673ZM333.965 530.543C333.558 530.543 333.208 530.408 332.914 530.138C332.621 529.863 332.474 529.534 332.474 529.151C332.474 528.762 332.621 528.433 332.914 528.163C333.208 527.889 333.558 527.751 333.965 527.751C334.377 527.751 334.728 527.889 335.016 528.163C335.31 528.433 335.457 528.762 335.457 529.151C335.457 529.534 335.31 529.863 335.016 530.138C334.728 530.408 334.377 530.543 333.965 530.543ZM342.646 543.213C341.581 543.213 340.657 542.979 339.876 542.51C339.095 542.041 338.489 541.385 338.058 540.543C337.632 539.7 337.419 538.715 337.419 537.588C337.419 536.461 337.632 535.474 338.058 534.626C338.489 533.779 339.095 533.121 339.876 532.652C340.657 532.183 341.581 531.949 342.646 531.949C343.711 531.949 344.635 532.183 345.416 532.652C346.197 533.121 346.801 533.779 347.227 534.626C347.658 535.474 347.873 536.461 347.873 537.588C347.873 538.715 347.658 539.7 347.227 540.543C346.801 541.385 346.197 542.041 345.416 542.51C344.635 542.979 343.711 543.213 342.646 543.213ZM342.66 541.153C343.238 541.153 343.721 540.995 344.109 540.678C344.497 540.356 344.786 539.925 344.975 539.385C345.17 538.845 345.267 538.244 345.267 537.581C345.267 536.913 345.17 536.31 344.975 535.77C344.786 535.225 344.497 534.792 344.109 534.47C343.721 534.148 343.238 533.987 342.66 533.987C342.068 533.987 341.576 534.148 341.183 534.47C340.795 534.792 340.503 535.225 340.309 535.77C340.12 536.31 340.025 536.913 340.025 537.581C340.025 538.244 340.12 538.845 340.309 539.385C340.503 539.925 340.795 540.356 341.183 540.678C341.576 540.995 342.068 541.153 342.66 541.153ZM352.626 536.608V543H350.055V532.091H352.513V533.945H352.641C352.892 533.334 353.292 532.848 353.841 532.489C354.395 532.129 355.079 531.949 355.893 531.949C356.646 531.949 357.302 532.11 357.861 532.432C358.424 532.754 358.86 533.22 359.168 533.831C359.48 534.442 359.634 535.183 359.629 536.054V543H357.058V536.452C357.058 535.723 356.869 535.152 356.49 534.74C356.116 534.328 355.598 534.122 354.935 534.122C354.485 534.122 354.085 534.222 353.734 534.42C353.389 534.615 353.116 534.896 352.918 535.266C352.723 535.635 352.626 536.082 352.626 536.608Z" fill="black"/>
<path d="M382.493 454.469H396.306V472.648H382.493V454.469Z" fill="#2CC4FE"/>
<path d="M396.712 473.055H382.087V454.062H396.712V473.055ZM382.9 472.242H395.9V454.875H382.9V472.242Z" fill="#515151"/>
<path d="M425.657 455.898H352.126C351.004 455.898 350.095 454.989 350.095 453.867V405.93C350.095 404.808 351.004 403.898 352.126 403.898H425.657C426.779 403.898 427.689 404.808 427.689 405.93V453.867C427.689 454.989 426.779 455.898 425.657 455.898Z" fill="#2CC4FE"/>
<path d="M425.657 456.305H352.126C350.782 456.305 349.689 455.211 349.689 453.867V405.93C349.689 404.586 350.782 403.492 352.126 403.492H425.657C427.001 403.492 428.095 404.586 428.095 405.93V453.867C428.095 455.211 427.001 456.305 425.657 456.305ZM352.126 404.305C351.23 404.305 350.501 405.034 350.501 405.93V453.867C350.501 454.763 351.23 455.492 352.126 455.492H425.657C426.553 455.492 427.282 454.763 427.282 453.867V405.93C427.282 405.034 426.553 404.305 425.657 404.305H352.126Z" fill="#515151"/>
<path d="M427.289 448.07H350.508V405.977C350.508 405.053 351.256 404.305 352.18 404.305H425.617C426.541 404.305 427.289 405.053 427.289 405.977V448.07Z" fill="#A1E4FD"/>
<path d="M408.805 473.055H369.906C369.799 473.055 369.695 473.012 369.619 472.936C369.543 472.86 369.5 472.756 369.5 472.648C369.5 472.541 369.543 472.437 369.619 472.361C369.695 472.285 369.799 472.242 369.906 472.242H408.805C408.912 472.242 409.016 472.285 409.092 472.361C409.168 472.437 409.211 472.541 409.211 472.648C409.211 472.756 409.168 472.86 409.092 472.936C409.016 473.012 408.912 473.055 408.805 473.055Z" fill="#515151"/>
<path d="M355.002 420.565L363.837 411.729Z" fill="#2CC4FE"/>
<path d="M355.002 420.971C354.921 420.971 354.843 420.947 354.776 420.903C354.709 420.858 354.657 420.795 354.626 420.72C354.596 420.646 354.588 420.565 354.603 420.486C354.619 420.407 354.658 420.335 354.714 420.278L363.55 411.442C363.626 411.366 363.729 411.323 363.837 411.323C363.945 411.323 364.048 411.366 364.124 411.442C364.201 411.518 364.243 411.622 364.243 411.73C364.243 411.837 364.201 411.941 364.124 412.017L355.289 420.852C355.251 420.89 355.206 420.92 355.157 420.94C355.108 420.961 355.055 420.971 355.002 420.971Z" fill="#D7F9FF"/>
<path d="M355.002 427.725L370.452 412.275Z" fill="#2CC4FE"/>
<path d="M355.002 428.132C354.921 428.132 354.843 428.108 354.776 428.063C354.709 428.019 354.657 427.955 354.626 427.881C354.596 427.807 354.588 427.725 354.603 427.646C354.619 427.567 354.658 427.495 354.714 427.438L370.164 411.988C370.241 411.912 370.344 411.869 370.452 411.869C370.559 411.869 370.663 411.912 370.739 411.988C370.815 412.064 370.858 412.168 370.858 412.275C370.858 412.383 370.815 412.486 370.739 412.563L355.289 428.013C355.251 428.05 355.206 428.08 355.157 428.101C355.108 428.121 355.055 428.132 355.002 428.132Z" fill="#D7F9FF"/>
<path d="M127.493 454.469H141.306V472.648H127.493V454.469Z" fill="#2CC4FE"/>
<path d="M141.712 473.055H127.087V454.062H141.712V473.055ZM127.9 472.242H140.9V454.875H127.9V472.242Z" fill="#515151"/>
<path d="M170.657 455.898H97.1261C96.0042 455.898 95.0948 454.989 95.0948 453.867V405.93C95.0948 404.808 96.0042 403.898 97.1261 403.898H170.657C171.779 403.898 172.689 404.808 172.689 405.93V453.867C172.689 454.989 171.779 455.898 170.657 455.898Z" fill="#2CC4FE"/>
<path d="M170.657 456.305H97.1261C95.782 456.305 94.6886 455.211 94.6886 453.867V405.93C94.6886 404.586 95.782 403.492 97.1261 403.492H170.657C172.001 403.492 173.095 404.586 173.095 405.93V453.867C173.095 455.211 172.001 456.305 170.657 456.305ZM97.1261 404.305C96.2301 404.305 95.5011 405.034 95.5011 405.93V453.867C95.5011 454.763 96.2301 455.492 97.1261 455.492H170.657C171.553 455.492 172.282 454.763 172.282 453.867V405.93C172.282 405.034 171.553 404.305 170.657 404.305H97.1261Z" fill="#515151"/>
<path d="M172.289 448.07H95.5078V405.977C95.5078 405.053 96.2563 404.305 97.1797 404.305H170.617C171.541 404.305 172.289 405.053 172.289 405.977V448.07Z" fill="#A1E4FD"/>
<path d="M153.805 473.055H114.906C114.799 473.055 114.695 473.012 114.619 472.936C114.543 472.86 114.5 472.756 114.5 472.648C114.5 472.541 114.543 472.437 114.619 472.361C114.695 472.285 114.799 472.242 114.906 472.242H153.805C153.912 472.242 154.016 472.285 154.092 472.361C154.168 472.437 154.211 472.541 154.211 472.648C154.211 472.756 154.168 472.86 154.092 472.936C154.016 473.012 153.912 473.055 153.805 473.055Z" fill="#515151"/>
<path d="M100.002 420.565L108.837 411.729Z" fill="#2CC4FE"/>
<path d="M100.002 420.971C99.9214 420.971 99.8428 420.947 99.776 420.903C99.7092 420.858 99.6572 420.795 99.6264 420.72C99.5956 420.646 99.5876 420.565 99.6033 420.486C99.6189 420.407 99.6576 420.335 99.7144 420.278L108.55 411.442C108.626 411.366 108.729 411.323 108.837 411.323C108.945 411.323 109.048 411.366 109.124 411.442C109.201 411.518 109.243 411.622 109.243 411.73C109.243 411.837 109.201 411.941 109.124 412.017L100.289 420.852C100.251 420.89 100.206 420.92 100.157 420.94C100.108 420.961 100.055 420.971 100.002 420.971Z" fill="#D7F9FF"/>
<path d="M100.002 427.725L115.452 412.275Z" fill="#2CC4FE"/>
<path d="M100.002 428.132C99.9214 428.132 99.8428 428.108 99.776 428.063C99.7092 428.019 99.6572 427.955 99.6264 427.881C99.5956 427.807 99.5876 427.725 99.6033 427.646C99.6189 427.567 99.6576 427.495 99.7144 427.438L115.164 411.988C115.241 411.912 115.344 411.869 115.452 411.869C115.559 411.869 115.663 411.912 115.739 411.988C115.815 412.064 115.858 412.168 115.858 412.275C115.858 412.383 115.815 412.486 115.739 412.563L100.289 428.013C100.251 428.05 100.206 428.08 100.157 428.101C100.108 428.121 100.055 428.132 100.002 428.132Z" fill="#D7F9FF"/>
<path d="M926.615 485.195H946.537V511.416H926.615V485.195Z" fill="#2CC4FE"/>
<path d="M947.123 512.002H926.029V484.609H947.123V512.002ZM927.201 510.83H945.951V485.781H927.201V510.83Z" fill="#515151"/>
<path d="M988.871 487.257H882.817C881.198 487.257 879.887 485.945 879.887 484.327V415.187C879.887 413.568 881.198 412.257 882.817 412.257H988.871C990.489 412.257 991.801 413.568 991.801 415.187V484.327C991.801 485.945 990.489 487.257 988.871 487.257Z" fill="#2CC4FE"/>
<path d="M988.871 487.843H882.817C880.878 487.843 879.301 486.266 879.301 484.327V415.187C879.301 413.248 880.878 411.671 882.817 411.671H988.871C990.81 411.671 992.387 413.248 992.387 415.187V484.327C992.387 486.266 990.81 487.843 988.871 487.843ZM882.817 412.843C881.524 412.843 880.473 413.894 880.473 415.187V484.327C880.473 485.619 881.524 486.671 882.817 486.671H988.871C990.164 486.671 991.215 485.619 991.215 484.327V415.187C991.215 413.894 990.164 412.843 988.871 412.843H882.817Z" fill="#515151"/>
<path d="M991.225 475.966H880.482V415.254C880.482 413.922 881.562 412.843 882.894 412.843H988.813C990.145 412.843 991.225 413.922 991.225 415.254V475.966Z" fill="#A1E4FD"/>
<path d="M964.564 512.002H908.461C908.306 512.002 908.157 511.94 908.047 511.83C907.937 511.72 907.875 511.571 907.875 511.416C907.875 511.261 907.937 511.112 908.047 511.002C908.157 510.892 908.306 510.83 908.461 510.83H964.564C964.72 510.83 964.869 510.892 964.979 511.002C965.089 511.112 965.15 511.261 965.15 511.416C965.15 511.571 965.089 511.72 964.979 511.83C964.869 511.94 964.72 512.002 964.564 512.002Z" fill="#515151"/>
<path d="M886.964 436.296L899.708 423.553Z" fill="#2CC4FE"/>
<path d="M886.964 436.882C886.848 436.882 886.735 436.848 886.638 436.783C886.542 436.719 886.467 436.628 886.423 436.521C886.378 436.413 886.367 436.296 886.389 436.182C886.412 436.068 886.468 435.964 886.55 435.882L899.293 423.138C899.403 423.029 899.552 422.967 899.707 422.967C899.863 422.967 900.012 423.029 900.122 423.138C900.232 423.248 900.293 423.397 900.293 423.553C900.293 423.708 900.232 423.857 900.122 423.967L887.378 436.711C887.324 436.765 887.259 436.808 887.188 436.838C887.117 436.867 887.041 436.882 886.964 436.882Z" fill="#D7F9FF"/>
<path d="M886.964 446.623L909.248 424.34Z" fill="#2CC4FE"/>
<path d="M886.964 447.208C886.848 447.208 886.735 447.174 886.638 447.11C886.542 447.045 886.467 446.954 886.423 446.847C886.378 446.74 886.367 446.622 886.389 446.508C886.412 446.395 886.468 446.29 886.55 446.208L908.833 423.925C908.943 423.815 909.092 423.753 909.248 423.753C909.403 423.753 909.552 423.815 909.662 423.925C909.772 424.034 909.834 424.183 909.834 424.339C909.834 424.494 909.772 424.643 909.662 424.753L887.378 447.037C887.324 447.091 887.259 447.135 887.188 447.164C887.117 447.193 887.041 447.208 886.964 447.208Z" fill="#D7F9FF"/>
<path d="M841.795 543L837.689 528.455H840.523L843.144 539.143H843.279L846.077 528.455H848.655L851.461 539.151H851.589L854.209 528.455H857.043L852.938 543H850.339L847.427 532.794H847.313L844.394 543H841.795ZM858.757 543V532.091H861.328V543H858.757ZM860.049 530.543C859.642 530.543 859.292 530.408 858.998 530.138C858.704 529.863 858.558 529.534 858.558 529.151C858.558 528.762 858.704 528.433 858.998 528.163C859.292 527.889 859.642 527.751 860.049 527.751C860.461 527.751 860.811 527.889 861.1 528.163C861.394 528.433 861.541 528.762 861.541 529.151C861.541 529.534 861.394 529.863 861.1 530.138C860.811 530.408 860.461 530.543 860.049 530.543ZM866.542 536.608V543H863.971V532.091H866.429V533.945H866.557C866.808 533.334 867.208 532.848 867.757 532.489C868.311 532.129 868.995 531.949 869.809 531.949C870.562 531.949 871.218 532.11 871.777 532.432C872.34 532.754 872.776 533.22 873.084 533.831C873.396 534.442 873.55 535.183 873.545 536.054V543H870.974V536.452C870.974 535.723 870.785 535.152 870.406 534.74C870.032 534.328 869.514 534.122 868.851 534.122C868.401 534.122 868.001 534.222 867.65 534.42C867.305 534.615 867.032 534.896 866.834 535.266C866.64 535.635 866.542 536.082 866.542 536.608ZM880.207 543.192C879.35 543.192 878.583 542.972 877.906 542.531C877.229 542.091 876.694 541.452 876.301 540.614C875.908 539.776 875.711 538.758 875.711 537.56C875.711 536.348 875.91 535.325 876.308 534.491C876.711 533.653 877.253 533.021 877.934 532.595C878.616 532.164 879.376 531.949 880.214 531.949C880.854 531.949 881.379 532.058 881.791 532.276C882.203 532.489 882.53 532.747 882.771 533.05C883.013 533.348 883.2 533.63 883.332 533.895H883.439V528.455H886.017V543H883.488V541.281H883.332C883.2 541.546 883.008 541.828 882.757 542.126C882.506 542.42 882.175 542.671 881.763 542.879C881.351 543.088 880.832 543.192 880.207 543.192ZM880.925 541.082C881.469 541.082 881.933 540.936 882.317 540.642C882.7 540.344 882.991 539.929 883.19 539.399C883.389 538.869 883.488 538.251 883.488 537.545C883.488 536.84 883.389 536.227 883.19 535.706C882.996 535.185 882.707 534.78 882.324 534.491C881.945 534.203 881.479 534.058 880.925 534.058C880.352 534.058 879.873 534.207 879.49 534.506C879.106 534.804 878.818 535.216 878.623 535.741C878.429 536.267 878.332 536.868 878.332 537.545C878.332 538.227 878.429 538.836 878.623 539.371C878.822 539.901 879.113 540.32 879.497 540.628C879.885 540.931 880.361 541.082 880.925 541.082ZM893.515 543.213C892.45 543.213 891.526 542.979 890.745 542.51C889.964 542.041 889.358 541.385 888.927 540.543C888.501 539.7 888.288 538.715 888.288 537.588C888.288 536.461 888.501 535.474 888.927 534.626C889.358 533.779 889.964 533.121 890.745 532.652C891.526 532.183 892.45 531.949 893.515 531.949C894.58 531.949 895.504 532.183 896.285 532.652C897.066 533.121 897.67 533.779 898.096 534.626C898.527 535.474 898.742 536.461 898.742 537.588C898.742 538.715 898.527 539.7 898.096 540.543C897.67 541.385 897.066 542.041 896.285 542.51C895.504 542.979 894.58 543.213 893.515 543.213ZM893.529 541.153C894.107 541.153 894.59 540.995 894.978 540.678C895.366 540.356 895.655 539.925 895.845 539.385C896.039 538.845 896.136 538.244 896.136 537.581C896.136 536.913 896.039 536.31 895.845 535.77C895.655 535.225 895.366 534.792 894.978 534.47C894.59 534.148 894.107 533.987 893.529 533.987C892.937 533.987 892.445 534.148 892.052 534.47C891.664 534.792 891.373 535.225 891.178 535.77C890.989 536.31 890.894 536.913 890.894 537.581C890.894 538.244 890.989 538.845 891.178 539.385C891.373 539.925 891.664 540.356 892.052 540.678C892.445 540.995 892.937 541.153 893.529 541.153ZM902.863 543L899.781 532.091H902.402L904.319 539.761H904.419L906.379 532.091H908.971L910.932 539.719H911.038L912.927 532.091H915.555L912.466 543H909.788L907.743 535.628H907.594L905.548 543H902.863ZM925.972 534.974L923.629 535.23C923.562 534.993 923.446 534.771 923.281 534.562C923.12 534.354 922.902 534.186 922.627 534.058C922.353 533.93 922.017 533.866 921.619 533.866C921.084 533.866 920.634 533.982 920.269 534.214C919.91 534.446 919.732 534.747 919.737 535.116C919.732 535.434 919.848 535.692 920.085 535.891C920.326 536.089 920.724 536.253 921.278 536.381L923.139 536.778C924.171 537.001 924.938 537.354 925.44 537.837C925.946 538.32 926.202 538.952 926.207 539.733C926.202 540.42 926.001 541.026 925.603 541.551C925.21 542.072 924.663 542.479 923.963 542.773C923.262 543.066 922.457 543.213 921.548 543.213C920.213 543.213 919.138 542.934 918.323 542.375C917.509 541.812 917.024 541.028 916.867 540.024L919.374 539.783C919.488 540.275 919.73 540.647 920.099 540.898C920.468 541.149 920.949 541.274 921.541 541.274C922.151 541.274 922.642 541.149 923.011 540.898C923.385 540.647 923.572 540.337 923.572 539.967C923.572 539.655 923.451 539.397 923.21 539.193C922.973 538.99 922.604 538.833 922.102 538.724L920.241 538.334C919.195 538.116 918.42 537.749 917.919 537.233C917.417 536.712 917.168 536.054 917.173 535.259C917.168 534.586 917.35 534.004 917.72 533.511C918.094 533.014 918.612 532.631 919.275 532.361C919.943 532.086 920.712 531.949 921.583 531.949C922.862 531.949 923.868 532.221 924.602 532.766C925.34 533.31 925.797 534.046 925.972 534.974ZM936.463 543L932.357 528.455H935.191L937.812 539.143H937.947L940.745 528.455H943.323L946.129 539.151H946.257L948.877 528.455H951.711L947.606 543H945.007L942.095 532.794H941.981L939.062 543H936.463ZM957.07 543.213C956.004 543.213 955.081 542.979 954.3 542.51C953.519 542.041 952.913 541.385 952.482 540.543C952.056 539.7 951.843 538.715 951.843 537.588C951.843 536.461 952.056 535.474 952.482 534.626C952.913 533.779 953.519 533.121 954.3 532.652C955.081 532.183 956.004 531.949 957.07 531.949C958.135 531.949 959.058 532.183 959.84 532.652C960.621 533.121 961.225 533.779 961.651 534.626C962.082 535.474 962.297 536.461 962.297 537.588C962.297 538.715 962.082 539.7 961.651 540.543C961.225 541.385 960.621 542.041 959.84 542.51C959.058 542.979 958.135 543.213 957.07 543.213ZM957.084 541.153C957.662 541.153 958.145 540.995 958.533 540.678C958.921 540.356 959.21 539.925 959.399 539.385C959.593 538.845 959.691 538.244 959.691 537.581C959.691 536.913 959.593 536.31 959.399 535.77C959.21 535.225 958.921 534.792 958.533 534.47C958.145 534.148 957.662 533.987 957.084 533.987C956.492 533.987 956 534.148 955.607 534.47C955.218 534.792 954.927 535.225 954.733 535.77C954.544 536.31 954.449 536.913 954.449 537.581C954.449 538.244 954.544 538.845 954.733 539.385C954.927 539.925 955.218 540.356 955.607 540.678C956 540.995 956.492 541.153 957.084 541.153ZM964.479 543V532.091H966.972V533.909H967.086C967.285 533.279 967.626 532.794 968.108 532.453C968.596 532.107 969.153 531.935 969.778 531.935C969.92 531.935 970.078 531.942 970.253 531.956C970.433 531.965 970.582 531.982 970.701 532.006V534.371C970.592 534.333 970.419 534.3 970.182 534.271C969.95 534.238 969.725 534.222 969.508 534.222C969.039 534.222 968.617 534.323 968.243 534.527C967.874 534.726 967.583 535.003 967.37 535.358C967.157 535.713 967.05 536.123 967.05 536.587V543H964.479ZM974.753 539.577L974.746 536.473H975.157L979.078 532.091H982.082L977.26 537.46H976.727L974.753 539.577ZM972.409 543V528.455H974.98V543H972.409ZM979.256 543L975.704 538.036L977.437 536.224L982.331 543H979.256ZM992.418 534.974L990.074 535.23C990.008 534.993 989.892 534.771 989.726 534.562C989.565 534.354 989.347 534.186 989.073 534.058C988.798 533.93 988.462 533.866 988.064 533.866C987.529 533.866 987.079 533.982 986.715 534.214C986.355 534.446 986.177 534.747 986.182 535.116C986.177 535.434 986.293 535.692 986.53 535.891C986.771 536.089 987.169 536.253 987.723 536.381L989.584 536.778C990.616 537.001 991.383 537.354 991.885 537.837C992.392 538.32 992.647 538.952 992.652 539.733C992.647 540.42 992.446 541.026 992.048 541.551C991.655 542.072 991.109 542.479 990.408 542.773C989.707 543.066 988.902 543.213 987.993 543.213C986.658 543.213 985.583 542.934 984.769 542.375C983.954 541.812 983.469 541.028 983.313 540.024L985.82 539.783C985.933 540.275 986.175 540.647 986.544 540.898C986.914 541.149 987.394 541.274 987.986 541.274C988.597 541.274 989.087 541.149 989.456 540.898C989.83 540.647 990.017 540.337 990.017 539.967C990.017 539.655 989.896 539.397 989.655 539.193C989.418 538.99 989.049 538.833 988.547 538.724L986.686 538.334C985.64 538.116 984.866 537.749 984.364 537.233C983.862 536.712 983.613 536.054 983.618 535.259C983.613 534.586 983.796 534.004 984.165 533.511C984.539 533.014 985.057 532.631 985.72 532.361C986.388 532.086 987.157 531.949 988.029 531.949C989.307 531.949 990.313 532.221 991.047 532.766C991.786 533.31 992.243 534.046 992.418 534.974ZM1000.22 532.091V534.08H993.948V532.091H1000.22ZM995.497 529.477H998.068V539.719C998.068 540.064 998.12 540.33 998.224 540.514C998.333 540.694 998.475 540.817 998.65 540.884C998.825 540.95 999.019 540.983 999.232 540.983C999.393 540.983 999.54 540.971 999.673 540.947C999.81 540.924 999.914 540.902 999.985 540.884L1000.42 542.893C1000.28 542.941 1000.08 542.993 999.829 543.05C999.578 543.107 999.27 543.14 998.906 543.149C998.262 543.168 997.682 543.071 997.166 542.858C996.65 542.64 996.24 542.304 995.937 541.849C995.639 541.395 995.492 540.827 995.497 540.145V529.477ZM1005.51 543.22C1004.82 543.22 1004.2 543.097 1003.64 542.851C1003.09 542.6 1002.66 542.231 1002.33 541.743C1002.02 541.255 1001.86 540.654 1001.86 539.939C1001.86 539.323 1001.97 538.814 1002.2 538.412C1002.43 538.009 1002.74 537.688 1003.13 537.446C1003.52 537.205 1003.97 537.022 1004.46 536.899C1004.96 536.771 1005.47 536.679 1006 536.622C1006.64 536.556 1007.16 536.497 1007.55 536.445C1007.95 536.388 1008.24 536.303 1008.42 536.189C1008.61 536.071 1008.7 535.888 1008.7 535.642V535.599C1008.7 535.064 1008.54 534.65 1008.22 534.357C1007.9 534.063 1007.45 533.916 1006.85 533.916C1006.22 533.916 1005.72 534.054 1005.35 534.328C1004.99 534.603 1004.74 534.927 1004.61 535.301L1002.21 534.96C1002.4 534.297 1002.72 533.743 1003.15 533.298C1003.59 532.848 1004.12 532.512 1004.75 532.29C1005.38 532.062 1006.07 531.949 1006.84 531.949C1007.36 531.949 1007.89 532.01 1008.41 532.134C1008.93 532.257 1009.4 532.46 1009.83 532.744C1010.27 533.024 1010.61 533.405 1010.87 533.888C1011.14 534.371 1011.27 534.974 1011.27 535.699V543H1008.8V541.501H1008.71C1008.56 541.804 1008.34 542.089 1008.05 542.354C1007.77 542.614 1007.42 542.825 1006.99 542.986C1006.57 543.142 1006.08 543.22 1005.51 543.22ZM1006.18 541.331C1006.69 541.331 1007.14 541.229 1007.52 541.026C1007.9 540.817 1008.19 540.543 1008.39 540.202C1008.6 539.861 1008.71 539.489 1008.71 539.087V537.801C1008.62 537.867 1008.49 537.929 1008.29 537.986C1008.1 538.043 1007.89 538.092 1007.65 538.135C1007.42 538.178 1007.18 538.215 1006.95 538.249C1006.72 538.282 1006.52 538.31 1006.35 538.334C1005.96 538.386 1005.62 538.471 1005.32 538.589C1005.01 538.708 1004.78 538.874 1004.6 539.087C1004.42 539.295 1004.34 539.565 1004.34 539.896C1004.34 540.37 1004.51 540.727 1004.86 540.969C1005.2 541.21 1005.64 541.331 1006.18 541.331ZM1019.3 532.091V534.08H1013.03V532.091H1019.3ZM1014.58 529.477H1017.15V539.719C1017.15 540.064 1017.2 540.33 1017.31 540.514C1017.41 540.694 1017.56 540.817 1017.73 540.884C1017.91 540.95 1018.1 540.983 1018.31 540.983C1018.48 540.983 1018.62 540.971 1018.75 540.947C1018.89 540.924 1019 540.902 1019.07 540.884L1019.5 542.893C1019.36 542.941 1019.17 542.993 1018.91 543.05C1018.66 543.107 1018.35 543.14 1017.99 543.149C1017.34 543.168 1016.76 543.071 1016.25 542.858C1015.73 542.64 1015.32 542.304 1015.02 541.849C1014.72 541.395 1014.57 540.827 1014.58 540.145V529.477ZM1021.45 543V532.091H1024.02V543H1021.45ZM1022.74 530.543C1022.34 530.543 1021.99 530.408 1021.69 530.138C1021.4 529.863 1021.25 529.534 1021.25 529.151C1021.25 528.762 1021.4 528.433 1021.69 528.163C1021.99 527.889 1022.34 527.751 1022.74 527.751C1023.16 527.751 1023.51 527.889 1023.8 528.163C1024.09 528.433 1024.24 528.762 1024.24 529.151C1024.24 529.534 1024.09 529.863 1023.8 530.138C1023.51 530.408 1023.16 530.543 1022.74 530.543ZM1031.43 543.213C1030.36 543.213 1029.44 542.979 1028.66 542.51C1027.87 542.041 1027.27 541.385 1026.84 540.543C1026.41 539.7 1026.2 538.715 1026.2 537.588C1026.2 536.461 1026.41 535.474 1026.84 534.626C1027.27 533.779 1027.87 533.121 1028.66 532.652C1029.44 532.183 1030.36 531.949 1031.43 531.949C1032.49 531.949 1033.41 532.183 1034.2 532.652C1034.98 533.121 1035.58 533.779 1036.01 534.626C1036.44 535.474 1036.65 536.461 1036.65 537.588C1036.65 538.715 1036.44 539.7 1036.01 540.543C1035.58 541.385 1034.98 542.041 1034.2 542.51C1033.41 542.979 1032.49 543.213 1031.43 543.213ZM1031.44 541.153C1032.02 541.153 1032.5 540.995 1032.89 540.678C1033.28 540.356 1033.57 539.925 1033.75 539.385C1033.95 538.845 1034.05 538.244 1034.05 537.581C1034.05 536.913 1033.95 536.31 1033.75 535.77C1033.57 535.225 1033.28 534.792 1032.89 534.47C1032.5 534.148 1032.02 533.987 1031.44 533.987C1030.85 533.987 1030.36 534.148 1029.96 534.47C1029.57 534.792 1029.28 535.225 1029.09 535.77C1028.9 536.31 1028.8 536.913 1028.8 537.581C1028.8 538.244 1028.9 538.845 1029.09 539.385C1029.28 539.925 1029.57 540.356 1029.96 540.678C1030.36 540.995 1030.85 541.153 1031.44 541.153ZM1041.41 536.608V543H1038.83V532.091H1041.29V533.945H1041.42C1041.67 533.334 1042.07 532.848 1042.62 532.489C1043.17 532.129 1043.86 531.949 1044.67 531.949C1045.43 531.949 1046.08 532.11 1046.64 532.432C1047.2 532.754 1047.64 533.22 1047.95 533.831C1048.26 534.442 1048.41 535.183 1048.41 536.054V543H1045.84V536.452C1045.84 535.723 1045.65 535.152 1045.27 534.74C1044.9 534.328 1044.38 534.122 1043.71 534.122C1043.26 534.122 1042.86 534.222 1042.51 534.42C1042.17 534.615 1041.9 534.896 1041.7 535.266C1041.5 535.635 1041.41 536.082 1041.41 536.608Z" fill="black"/>
<path d="M1052.49 454.469H1066.31V472.648H1052.49V454.469Z" fill="#2CC4FE"/>
<path d="M1066.71 473.055H1052.09V454.062H1066.71V473.055ZM1052.9 472.242H1065.9V454.875H1052.9V472.242Z" fill="#515151"/>
<path d="M1095.66 455.898H1022.13C1021 455.898 1020.09 454.989 1020.09 453.867V405.93C1020.09 404.808 1021 403.898 1022.13 403.898H1095.66C1096.78 403.898 1097.69 404.808 1097.69 405.93V453.867C1097.69 454.989 1096.78 455.898 1095.66 455.898Z" fill="#2CC4FE"/>
<path d="M1095.66 456.305H1022.13C1020.78 456.305 1019.69 455.211 1019.69 453.867V405.93C1019.69 404.586 1020.78 403.492 1022.13 403.492H1095.66C1097 403.492 1098.09 404.586 1098.09 405.93V453.867C1098.09 455.211 1097 456.305 1095.66 456.305ZM1022.13 404.305C1021.23 404.305 1020.5 405.034 1020.5 405.93V453.867C1020.5 454.763 1021.23 455.492 1022.13 455.492H1095.66C1096.55 455.492 1097.28 454.763 1097.28 453.867V405.93C1097.28 405.034 1096.55 404.305 1095.66 404.305H1022.13Z" fill="#515151"/>
<path d="M1097.29 448.07H1020.51V405.977C1020.51 405.053 1021.26 404.305 1022.18 404.305H1095.62C1096.54 404.305 1097.29 405.053 1097.29 405.977V448.07Z" fill="#A1E4FD"/>
<path d="M1078.8 473.055H1039.91C1039.8 473.055 1039.7 473.012 1039.62 472.936C1039.54 472.86 1039.5 472.756 1039.5 472.648C1039.5 472.541 1039.54 472.437 1039.62 472.361C1039.7 472.285 1039.8 472.242 1039.91 472.242H1078.8C1078.91 472.242 1079.02 472.285 1079.09 472.361C1079.17 472.437 1079.21 472.541 1079.21 472.648C1079.21 472.756 1079.17 472.86 1079.09 472.936C1079.02 473.012 1078.91 473.055 1078.8 473.055Z" fill="#515151"/>
<path d="M1025 420.565L1033.84 411.729Z" fill="#2CC4FE"/>
<path d="M1025 420.971C1024.92 420.971 1024.84 420.947 1024.78 420.903C1024.71 420.858 1024.66 420.795 1024.63 420.72C1024.6 420.646 1024.59 420.565 1024.6 420.486C1024.62 420.407 1024.66 420.335 1024.71 420.278L1033.55 411.442C1033.63 411.366 1033.73 411.323 1033.84 411.323C1033.94 411.323 1034.05 411.366 1034.12 411.442C1034.2 411.518 1034.24 411.622 1034.24 411.73C1034.24 411.837 1034.2 411.941 1034.12 412.017L1025.29 420.852C1025.25 420.89 1025.21 420.92 1025.16 420.94C1025.11 420.961 1025.06 420.971 1025 420.971Z" fill="#D7F9FF"/>
<path d="M1025 427.725L1040.45 412.275Z" fill="#2CC4FE"/>
<path d="M1025 428.132C1024.92 428.132 1024.84 428.108 1024.78 428.063C1024.71 428.019 1024.66 427.955 1024.63 427.881C1024.6 427.807 1024.59 427.725 1024.6 427.646C1024.62 427.567 1024.66 427.495 1024.71 427.438L1040.16 411.988C1040.24 411.912 1040.34 411.869 1040.45 411.869C1040.56 411.869 1040.66 411.912 1040.74 411.988C1040.82 412.064 1040.86 412.168 1040.86 412.275C1040.86 412.383 1040.82 412.486 1040.74 412.563L1025.29 428.013C1025.25 428.05 1025.21 428.08 1025.16 428.101C1025.11 428.121 1025.06 428.132 1025 428.132Z" fill="#D7F9FF"/>
<path d="M797.493 454.469H811.306V472.648H797.493V454.469Z" fill="#2CC4FE"/>
<path d="M811.712 473.055H797.087V454.062H811.712V473.055ZM797.9 472.242H810.9V454.875H797.9V472.242Z" fill="#515151"/>
<path d="M840.657 455.898H767.126C766.004 455.898 765.095 454.989 765.095 453.867V405.93C765.095 404.808 766.004 403.898 767.126 403.898H840.657C841.779 403.898 842.689 404.808 842.689 405.93V453.867C842.689 454.989 841.779 455.898 840.657 455.898Z" fill="#2CC4FE"/>
<path d="M840.657 456.305H767.126C765.782 456.305 764.689 455.211 764.689 453.867V405.93C764.689 404.586 765.782 403.492 767.126 403.492H840.657C842.001 403.492 843.095 404.586 843.095 405.93V453.867C843.095 455.211 842.001 456.305 840.657 456.305ZM767.126 404.305C766.23 404.305 765.501 405.034 765.501 405.93V453.867C765.501 454.763 766.23 455.492 767.126 455.492H840.657C841.553 455.492 842.282 454.763 842.282 453.867V405.93C842.282 405.034 841.553 404.305 840.657 404.305H767.126Z" fill="#515151"/>
<path d="M842.289 448.07H765.508V405.977C765.508 405.053 766.256 404.305 767.18 404.305H840.617C841.541 404.305 842.289 405.053 842.289 405.977V448.07Z" fill="#A1E4FD"/>
<path d="M823.805 473.055H784.906C784.799 473.055 784.695 473.012 784.619 472.936C784.543 472.86 784.5 472.756 784.5 472.648C784.5 472.541 784.543 472.437 784.619 472.361C784.695 472.285 784.799 472.242 784.906 472.242H823.805C823.912 472.242 824.016 472.285 824.092 472.361C824.168 472.437 824.211 472.541 824.211 472.648C824.211 472.756 824.168 472.86 824.092 472.936C824.016 473.012 823.912 473.055 823.805 473.055Z" fill="#515151"/>
<path d="M770.002 420.565L778.837 411.729Z" fill="#2CC4FE"/>
<path d="M770.002 420.971C769.921 420.971 769.843 420.947 769.776 420.903C769.709 420.858 769.657 420.795 769.626 420.72C769.596 420.646 769.588 420.565 769.603 420.486C769.619 420.407 769.658 420.335 769.714 420.278L778.55 411.442C778.626 411.366 778.729 411.323 778.837 411.323C778.945 411.323 779.048 411.366 779.124 411.442C779.201 411.518 779.243 411.622 779.243 411.73C779.243 411.837 779.201 411.941 779.124 412.017L770.289 420.852C770.251 420.89 770.206 420.92 770.157 420.94C770.108 420.961 770.055 420.971 770.002 420.971Z" fill="#D7F9FF"/>
<path d="M770.002 427.725L785.452 412.275Z" fill="#2CC4FE"/>
<path d="M770.002 428.132C769.921 428.132 769.843 428.108 769.776 428.063C769.709 428.019 769.657 427.955 769.626 427.881C769.596 427.807 769.588 427.725 769.603 427.646C769.619 427.567 769.658 427.495 769.714 427.438L785.164 411.988C785.241 411.912 785.344 411.869 785.452 411.869C785.559 411.869 785.663 411.912 785.739 411.988C785.815 412.064 785.858 412.168 785.858 412.275C785.858 412.383 785.815 412.486 785.739 412.563L770.289 428.013C770.251 428.05 770.206 428.08 770.157 428.101C770.108 428.121 770.055 428.132 770.002 428.132Z" fill="#D7F9FF"/>
<path d="M24.0527 584.455H28.9675L32.3482 592.693H32.5186L35.8993 584.455H40.8141V599H36.9505V590.591H36.8368L33.5982 598.886H31.2686L28.03 590.534H27.9164V599H24.0527V584.455ZM56.7765 591.727C56.7765 593.347 56.4616 594.713 55.8319 595.825C55.2021 596.933 54.3522 597.774 53.2821 598.347C52.2121 598.915 51.0189 599.199 49.7026 599.199C48.3768 599.199 47.1789 598.912 46.1088 598.339C45.0435 597.762 44.196 596.919 43.5662 595.811C42.9412 594.698 42.6287 593.337 42.6287 591.727C42.6287 590.108 42.9412 588.744 43.5662 587.636C44.196 586.524 45.0435 585.683 46.1088 585.115C47.1789 584.542 48.3768 584.256 49.7026 584.256C51.0189 584.256 52.2121 584.542 53.2821 585.115C54.3522 585.683 55.2021 586.524 55.8319 587.636C56.4616 588.744 56.7765 590.108 56.7765 591.727ZM52.714 591.727C52.714 590.856 52.598 590.122 52.3659 589.526C52.1387 588.924 51.8001 588.47 51.3503 588.162C50.9052 587.849 50.356 587.693 49.7026 587.693C49.0492 587.693 48.4976 587.849 48.0478 588.162C47.6027 588.47 47.2641 588.924 47.0321 589.526C46.8049 590.122 46.6912 590.856 46.6912 591.727C46.6912 592.598 46.8049 593.335 47.0321 593.936C47.2641 594.533 47.6027 594.987 48.0478 595.3C48.4976 595.607 49.0492 595.761 49.7026 595.761C50.356 595.761 50.9052 595.607 51.3503 595.3C51.8001 594.987 52.1387 594.533 52.3659 593.936C52.598 593.335 52.714 592.598 52.714 591.727ZM58.6035 599V584.455H62.5524V590.136H67.7797V584.455H71.7285V599H67.7797V593.318H62.5524V599H58.6035ZM77.3819 599H73.1206L77.9217 584.455H83.3194L88.1206 599H83.8592L80.6774 588.46H80.5637L77.3819 599ZM76.5865 593.261H84.5978V596.216H76.5865V593.261ZM89.5215 584.455H94.4363L97.8169 592.693H97.9874L101.368 584.455H106.283V599H102.419V590.591H102.306L99.0669 598.886H96.7374L93.4988 590.534H93.3851V599H89.5215V584.455ZM108.154 599V584.455H118.637V587.636H112.103V590.136H118.097V593.318H112.103V595.818H118.609V599H108.154ZM126.192 599H120.596V584.455H126.135C127.632 584.455 128.924 584.746 130.013 585.328C131.107 585.906 131.95 586.739 132.542 587.828C133.138 588.912 133.437 590.212 133.437 591.727C133.437 593.242 133.141 594.545 132.549 595.634C131.957 596.718 131.119 597.551 130.035 598.134C128.95 598.711 127.67 599 126.192 599ZM124.545 595.648H126.05C126.77 595.648 127.383 595.532 127.89 595.3C128.401 595.068 128.789 594.668 129.055 594.099C129.324 593.531 129.459 592.741 129.459 591.727C129.459 590.714 129.322 589.923 129.047 589.355C128.778 588.787 128.38 588.387 127.854 588.155C127.333 587.923 126.694 587.807 125.937 587.807H124.545V595.648ZM182.87 599H178.609L183.41 584.455H188.808L193.609 599H189.347L186.166 588.46H186.052L182.87 599ZM182.075 593.261H190.086V596.216H182.075V593.261ZM192.929 584.455H197.332L200.173 590.364H200.287L203.128 584.455H207.531L202.19 594.426V599H198.27V594.426L192.929 584.455ZM208.818 584.455H213.733L217.114 592.693H217.284L220.665 584.455H225.58V599H221.716V590.591H221.602L218.364 598.886H216.034L212.796 590.534H212.682V599H208.818V584.455ZM231.23 599H226.968L231.769 584.455H237.167L241.968 599H237.707L234.525 588.46H234.411L231.23 599ZM230.434 593.261H238.445V596.216H230.434V593.261ZM255.954 584.455V599H252.659L247.403 591.358H247.318V599H243.369V584.455H246.721L251.892 592.068H252.006V584.455H255.954Z" fill="#4467AE"/>
<path d="M160.49 580.343L160.491 580.344L163.726 591.025H176.149C176.417 591.025 176.671 591.081 176.868 591.186C177.054 591.284 177.25 591.463 177.25 591.725C177.25 591.988 177.054 592.166 176.868 592.265C176.671 592.369 176.417 592.426 176.149 592.426H162.815C162.58 592.426 162.352 592.387 162.166 592.308C161.988 592.234 161.8 592.102 161.735 591.889L160.49 580.343ZM160.49 580.343C160.429 580.144 160.257 579.997 160.079 579.905C159.894 579.809 159.662 579.75 159.415 579.75H159.411C159.167 579.75 158.935 579.808 158.75 579.902C158.572 579.992 158.399 580.137 158.335 580.335C158.335 580.335 158.335 580.336 158.335 580.336L152.209 599.247L149.129 591.53L148.897 591.623L149.129 591.53C149.051 591.336 148.871 591.212 148.696 591.139C148.513 591.064 148.292 591.025 148.064 591.025H137.851C137.584 591.025 137.329 591.081 137.132 591.186C136.947 591.284 136.75 591.463 136.75 591.725C136.75 591.988 136.947 592.167 137.132 592.265C137.329 592.37 137.584 592.426 137.851 592.426H147.204L151.254 602.66L151.255 602.66C151.325 602.838 151.487 602.983 151.662 603.08C151.844 603.182 152.073 603.25 152.319 603.25H152.319H152.319H152.319H152.319H152.319H152.319H152.319H152.319H152.319H152.319H152.319H152.32H152.32H152.32H152.32H152.32H152.32H152.32H152.32H152.32H152.32H152.32H152.32H152.32H152.32H152.32H152.32H152.32H152.32H152.32H152.32H152.32H152.32H152.32H152.32H152.32H152.32H152.32H152.32H152.32H152.32H152.32H152.32H152.32H152.32H152.321H152.321H152.321H152.321H152.321H152.321H152.321H152.321H152.321H152.321H152.321H152.321H152.321H152.321H152.321H152.321H152.321H152.321H152.321H152.321H152.321H152.321H152.321H152.321H152.321H152.321H152.321H152.321H152.321H152.321H152.321H152.321H152.322H152.322H152.322H152.322H152.322H152.322H152.322H152.322H152.322H152.322H152.322H152.322H152.322H152.322H152.322H152.322H152.322H152.322H152.322H152.322H152.322H152.322H152.322H152.322H152.322H152.322H152.322H152.322H152.322H152.322H152.322H152.322H152.322H152.323H152.323H152.323H152.323H152.323H152.323H152.323H152.323H152.323H152.323H152.323H152.323H152.323H152.323H152.323H152.323H152.323H152.323H152.323H152.323H152.323H152.323H152.323H152.323H152.323H152.323H152.323H152.323H152.323H152.323H152.323H152.323H152.324H152.324H152.324H152.324H152.324H152.324H152.324H152.324H152.324H152.324H152.324H152.324H152.324H152.324H152.324H152.324H152.324H152.324H152.324H152.324H152.324H152.324H152.324H152.324H152.324H152.324H152.324H152.324H152.324H152.324H152.324H152.325H152.325H152.325H152.325H152.325H152.325H152.325H152.325H152.325H152.325H152.325H152.325H152.325H152.325H152.325H152.325H152.325H152.325H152.325H152.325H152.325H152.325H152.325H152.325H152.325H152.325H152.325H152.325H152.325H152.325H152.325H152.325H152.326H152.326H152.326H152.326H152.326H152.326H152.326H152.326H152.326H152.326H152.326H152.326H152.326H152.326H152.326H152.326H152.326H152.326H152.326H152.326H152.326H152.326H152.326H152.326H152.326H152.326H152.326H152.326H152.326H152.326H152.326H152.327H152.327H152.327H152.327H152.327H152.327H152.327H152.327H152.327H152.327H152.327H152.327H152.327H152.327H152.327H152.327H152.327H152.327H152.327H152.327H152.327H152.327H152.327H152.327H152.327H152.327H152.327H152.327H152.327H152.327H152.327H152.328H152.328H152.328H152.328H152.328H152.328H152.328H152.328H152.328H152.328H152.328H152.328H152.328H152.328H152.328H152.328H152.328H152.328H152.328H152.328H152.328H152.328H152.328H152.328H152.328H152.328H152.328H152.328H152.328H152.328H152.328H152.329H152.329H152.329H152.329H152.329H152.329H152.329H152.329H152.329H152.329H152.329H152.329H152.329H152.329H152.329H152.329H152.329H152.329H152.329H152.329H152.329H152.329H152.329H152.329H152.329H152.329H152.329H152.329H152.329H152.329H152.33H152.33H152.33H152.33H152.33H152.33H152.33H152.33H152.33H152.33H152.33H152.33H152.33H152.33H152.33H152.33H152.33H152.33H152.33H152.33H152.33H152.33H152.33H152.33H152.33H152.33H152.33H152.33H152.33H152.33H152.33H152.331H152.331H152.331H152.331H152.331H152.331H152.331H152.331H152.331H152.331H152.331H152.331H152.331H152.331H152.331H152.331H152.331H152.331H152.331H152.331H152.331H152.331H152.331H152.331H152.331H152.331H152.331H152.331H152.331H152.331H152.331H152.332H152.332H152.332H152.332H152.332H152.332H152.332H152.332H152.332H152.332H152.332H152.332H152.332H152.332H152.332H152.332H152.332H152.332H152.332H152.332H152.332H152.332H152.332H152.332H152.332H152.332H152.332H152.332H152.332H152.332H152.332H152.333H152.333H152.333H152.333H152.333H152.333H152.333H152.333H152.333H152.333H152.333H152.333H152.333H152.333H152.333H152.333H152.333H152.333H152.333H152.333H152.333H152.333H152.333H152.333H152.333H152.333H152.333H152.333H152.333H152.333H152.333H152.334H152.334H152.334H152.334H152.334H152.334H152.334H152.334H152.334H152.334H152.334H152.334H152.334H152.334H152.334H152.334H152.334H152.334H152.334H152.334H152.334H152.334H152.334H152.334H152.334H152.334H152.334H152.334H152.334H152.334H152.334H152.335H152.335H152.335H152.335H152.335H152.335H152.335H152.335H152.335H152.335H152.335H152.335H152.335H152.335H152.335H152.335H152.335H152.335H152.335H152.335H152.335H152.335H152.335H152.335H152.335H152.335H152.335H152.335H152.335C152.586 603.25 152.818 603.178 153 603.071C153.174 602.968 153.335 602.814 153.395 602.627L159.376 584.144L161.735 591.888L160.49 580.343Z" fill="black" fill-opacity="0.69" stroke="black" stroke-width="0.5"/>
<path d="M525.708 295.577V333.289C525.956 348.753 558.006 363.573 597.5 363.573C636.994 363.573 669.028 348.753 669.292 333.289V295.577H525.708Z" fill="#1B9BDB"/>
<path d="M669.292 295.461C669.292 311.866 637.142 327.479 597.5 327.479C557.858 327.479 525.708 311.866 525.708 295.461C525.708 279.056 557.858 265.754 597.5 265.754C637.142 265.754 669.292 279.04 669.292 295.461Z" fill="#3ED6FF"/>
<path d="M591.245 280.393H596.015L596.031 290.824H600.9L600.784 280.393H605.554L598.342 267.999L591.245 280.393ZM600.966 297.855H596.031L596.048 310.051H590.998L598.622 322.462L606.132 310.051H601.081L600.966 297.855ZM621.018 291.864L620.787 286.912L608.888 294.339L621.497 301.783L621.266 296.831H642.094L641.664 291.864H621.018ZM575.896 291.864H555.267L554.887 296.831H575.715L575.533 301.783L588.06 294.339L576.094 286.912L575.896 291.864Z" fill="white"/>
<path d="M568.708 410V395.455H574.163C575.28 395.455 576.218 395.649 576.975 396.037C577.737 396.425 578.313 396.97 578.701 397.67C579.094 398.366 579.29 399.179 579.29 400.107C579.29 401.039 579.092 401.849 578.694 402.536C578.301 403.217 577.721 403.745 576.954 404.119C576.187 404.489 575.245 404.673 574.127 404.673H570.242V402.486H573.772C574.425 402.486 574.96 402.396 575.377 402.216C575.794 402.031 576.102 401.764 576.3 401.413C576.504 401.058 576.606 400.623 576.606 400.107C576.606 399.59 576.504 399.15 576.3 398.786C576.097 398.416 575.787 398.137 575.37 397.947C574.953 397.753 574.416 397.656 573.758 397.656H571.343V410H568.708ZM576.222 403.409L579.823 410H576.883L573.346 403.409H576.222ZM586.205 410.213C585.139 410.213 584.216 409.979 583.435 409.51C582.653 409.041 582.047 408.385 581.616 407.543C581.19 406.7 580.977 405.715 580.977 404.588C580.977 403.461 581.19 402.474 581.616 401.626C582.047 400.779 582.653 400.121 583.435 399.652C584.216 399.183 585.139 398.949 586.205 398.949C587.27 398.949 588.193 399.183 588.974 399.652C589.756 400.121 590.359 400.779 590.786 401.626C591.216 402.474 591.432 403.461 591.432 404.588C591.432 405.715 591.216 406.7 590.786 407.543C590.359 408.385 589.756 409.041 588.974 409.51C588.193 409.979 587.27 410.213 586.205 410.213ZM586.219 408.153C586.796 408.153 587.279 407.995 587.668 407.678C588.056 407.356 588.345 406.925 588.534 406.385C588.728 405.845 588.825 405.244 588.825 404.581C588.825 403.913 588.728 403.31 588.534 402.77C588.345 402.225 588.056 401.792 587.668 401.47C587.279 401.148 586.796 400.987 586.219 400.987C585.627 400.987 585.134 401.148 584.741 401.47C584.353 401.792 584.062 402.225 583.868 402.77C583.679 403.31 583.584 403.913 583.584 404.581C583.584 405.244 583.679 405.845 583.868 406.385C584.062 406.925 584.353 407.356 584.741 407.678C585.134 407.995 585.627 408.153 586.219 408.153ZM600.567 405.412V399.091H603.138V410H600.645V408.061H600.532C600.285 408.672 599.881 409.171 599.317 409.56C598.758 409.948 598.069 410.142 597.25 410.142C596.535 410.142 595.903 409.983 595.354 409.666C594.81 409.344 594.383 408.878 594.076 408.267C593.768 407.652 593.614 406.908 593.614 406.037V399.091H596.185V405.639C596.185 406.33 596.374 406.88 596.753 407.287C597.132 407.694 597.629 407.898 598.245 407.898C598.623 407.898 598.99 407.805 599.346 407.621C599.701 407.436 599.992 407.161 600.219 406.797C600.451 406.428 600.567 405.966 600.567 405.412ZM611.229 399.091V401.08H604.958V399.091H611.229ZM606.506 396.477H609.077V406.719C609.077 407.064 609.129 407.33 609.234 407.514C609.343 407.694 609.485 407.817 609.66 407.884C609.835 407.95 610.029 407.983 610.242 407.983C610.403 407.983 610.55 407.971 610.683 407.947C610.82 407.924 610.924 407.902 610.995 407.884L611.428 409.893C611.291 409.941 611.094 409.993 610.839 410.05C610.588 410.107 610.28 410.14 609.915 410.149C609.272 410.168 608.692 410.071 608.175 409.858C607.659 409.64 607.25 409.304 606.947 408.849C606.648 408.395 606.502 407.827 606.506 407.145V396.477ZM618.092 410.213C616.998 410.213 616.054 409.986 615.258 409.531C614.467 409.072 613.859 408.423 613.433 407.585C613.007 406.742 612.794 405.75 612.794 404.609C612.794 403.487 613.007 402.502 613.433 401.655C613.864 400.803 614.465 400.14 615.237 399.666C616.009 399.188 616.915 398.949 617.957 398.949C618.629 398.949 619.264 399.058 619.86 399.276C620.462 399.489 620.992 399.82 621.451 400.27C621.915 400.72 622.28 401.293 622.545 401.989C622.81 402.68 622.943 403.504 622.943 404.46V405.249H614.001V403.516H620.478C620.474 403.023 620.367 402.585 620.159 402.202C619.95 401.813 619.659 401.508 619.285 401.286C618.916 401.063 618.485 400.952 617.993 400.952C617.467 400.952 617.005 401.08 616.608 401.335C616.21 401.586 615.9 401.918 615.677 402.33C615.459 402.737 615.348 403.184 615.343 403.672V405.185C615.343 405.819 615.459 406.364 615.691 406.818C615.923 407.268 616.248 407.614 616.664 407.855C617.081 408.092 617.569 408.21 618.127 408.21C618.502 408.21 618.84 408.158 619.143 408.054C619.446 407.945 619.709 407.786 619.931 407.578C620.154 407.37 620.322 407.112 620.436 406.804L622.836 407.074C622.685 407.708 622.396 408.262 621.97 408.736C621.548 409.205 621.009 409.569 620.35 409.83C619.692 410.085 618.94 410.213 618.092 410.213ZM625.118 410V399.091H627.611V400.909H627.724C627.923 400.279 628.264 399.794 628.747 399.453C629.235 399.107 629.791 398.935 630.416 398.935C630.558 398.935 630.717 398.942 630.892 398.956C631.072 398.965 631.221 398.982 631.339 399.006V401.371C631.231 401.333 631.058 401.3 630.821 401.271C630.589 401.238 630.364 401.222 630.146 401.222C629.678 401.222 629.256 401.323 628.882 401.527C628.513 401.726 628.222 402.003 628.009 402.358C627.795 402.713 627.689 403.123 627.689 403.587V410H625.118Z" fill="black"/>
<g clip-path="url(#clip0_202_2)">
<path d="M556.909 75.7351C556.909 86.6806 561.257 97.1779 568.996 104.918C576.736 112.657 587.233 117.005 598.179 117.005C609.124 117.005 619.622 112.657 627.361 104.918C635.101 97.1779 639.449 86.6806 639.449 75.7351C639.449 64.7895 635.101 54.2923 627.361 46.5526C619.622 38.8129 609.124 34.4648 598.179 34.4648C587.233 34.4648 576.736 38.8129 568.996 46.5526C561.257 54.2923 556.909 64.7895 556.909 75.7351Z" fill="#4766AC"/>
<path d="M635.545 93.2655C628.949 107.289 614.69 117.005 598.179 117.005C575.401 117.005 556.909 98.5129 556.909 75.735C556.897 67.3686 559.441 59.1982 564.2 52.3174C561.622 57.8015 560.289 63.7881 560.298 69.8479C560.298 92.6258 578.79 111.118 601.568 111.118C615.652 111.118 628.097 104.048 635.545 93.2655Z" fill="#3F5A98"/>
<path d="M635.545 93.2652C628.097 104.048 615.652 111.118 601.568 111.118C578.79 111.118 560.298 92.6255 560.298 69.8476C560.289 63.7877 561.622 57.8011 564.2 52.317C565.222 50.8392 566.338 49.4291 567.542 48.0957C567.425 48.5384 567.316 48.9834 567.214 49.4316C565.601 53.914 564.779 58.6424 564.785 63.406C564.785 86.1828 583.277 104.676 606.055 104.676C618.033 104.676 628.826 99.5618 636.368 91.4002C636.109 92.0287 635.835 92.6505 635.545 93.2652Z" fill="#32539D"/>
<path d="M636.368 91.4003C628.826 99.5618 618.033 104.676 606.055 104.676C583.277 104.676 564.785 86.1828 564.785 63.4061C564.785 58.5018 565.641 53.7968 567.214 49.4316C566.531 52.4408 566.187 55.5169 566.189 58.6026C566.189 81.3804 584.683 99.8728 607.459 99.8728C619.611 99.8728 630.543 94.61 638.098 86.2415C637.636 87.9975 637.058 89.7209 636.368 91.4003Z" fill="#3A5AA3"/>
<path d="M573.497 106.745C567.394 103.055 565.128 101.209 561.694 94.9402C558.445 89.01 556.747 82.3552 556.757 75.5934C556.757 67.2725 559.28 59.536 563.604 53.1088C564.984 51.0568 568.363 48.8908 570.085 47.1299C568.609 49.1398 565.491 51.5427 564.378 53.8149C559.77 63.2305 558.414 74.6637 561.38 86.077C562.104 88.8713 563.074 91.5958 564.28 94.2186C567.185 100.532 568.551 102.53 573.497 106.745ZM602.587 71.5215C602.587 71.5215 603.89 69.7595 606.914 71.3754C606.914 71.3754 608.014 71.2835 608.987 70.159C608.987 70.159 611.17 70.2022 613.203 73.5967C613.203 73.5967 615.809 73.9265 612.571 70.3782C609.332 66.8298 606.695 68.1269 606.889 66.635C607.084 65.143 609.359 65.5315 610.1 63.6632C610.842 61.7961 608.42 59.8237 607.556 58.6129C606.69 57.4021 607.556 56.313 610.323 56.6594C613.09 57.0047 613.797 55.8791 612.864 54.5222C611.931 53.1641 614.753 53.1785 616.414 54.106C618.075 55.0324 623.529 55.2294 624.393 54.0363C625.259 52.8432 627.507 48.6573 629.064 52.6351C630.62 56.6129 634.844 55.0623 635.741 66.4103C636.638 77.7583 637.943 78.9835 636.321 82.8484C634.7 86.7123 632.079 81.0776 630.836 80.0239C629.592 78.9702 629.187 80.2132 629.241 82.7267C629.295 85.2391 628.89 90.482 627.539 89.0233C626.187 87.5634 623.508 78.0604 621.132 80.1501C618.755 82.2397 617.647 88.0769 614.405 86.9148C611.162 85.7527 613.228 82.9923 610.504 82.0416C607.78 81.0897 604.993 81.0322 604.687 78.8861C604.381 76.7389 602.394 78.2718 602.795 75.5314C603.196 72.7921 602.062 72.0206 602.587 71.5215Z" fill="#6C8CC7"/>
<path d="M631.697 90.1732C631.697 90.1732 631.59 91.2888 631.831 91.1793C632.071 91.0708 632.089 91.0431 632.229 91.166C632.37 91.2888 632.371 90.8339 632.586 90.8373C632.801 90.8395 632.578 91.1117 632.755 91.1206C632.932 91.1295 633.186 89.2213 633.54 88.2363C633.54 88.2363 633.971 87.9817 633.606 87.218C633.241 86.4543 634.414 85.3022 633.839 85.1029C633.263 84.9037 633.529 86.1444 633.042 86.5872C632.555 87.0299 632.931 87.5169 632.898 87.9375C632.865 88.358 632.969 88.4776 632.319 88.5728C631.669 88.6679 631.448 89.819 631.697 90.1732ZM580.515 55.8735C580.515 55.8735 579.106 53.6611 581.855 52.3639C584.603 51.0678 582.629 50.1935 582.771 49.6578C582.912 49.1232 584.941 48.2344 586.224 48.883C587.506 49.5316 587.83 49.5172 589.029 49.4464C590.226 49.3766 592.935 51.5061 590.552 51.7164C588.169 51.9278 588.86 53.7031 587.591 54.2532C586.323 54.8022 585.523 54.7745 583.794 54.8232C582.066 54.873 583.179 55.6765 582.108 56.2399C581.037 56.8044 580.995 56.3948 580.515 55.8735ZM584.014 65.7218C584.014 65.7218 581.155 64.2764 580.71 67.1086C580.265 69.9409 580.3 72.2973 581.934 71.9033C583.569 71.5082 584.934 71.8579 586.557 69.4794C588.181 67.0998 588.666 66.5364 590.774 68.5995C592.883 70.6626 593.753 73.3465 595.68 70.6493C597.607 67.9509 597.213 70.0771 599.084 68.3626C600.956 66.6493 602.74 69.1839 605.699 69.3953C608.659 69.6067 606.376 69.1274 605.756 66.9437C605.756 66.9437 606.841 66.2741 606.263 64.625C605.685 62.9759 607.312 64.0483 607.384 63.9587C607.456 63.8679 610.19 63.641 608.936 61.9654C607.682 60.2886 606.879 61.6256 605.813 58.8021C604.748 55.9776 606.785 52.6472 603.179 52.9494C603.179 52.9494 599.946 56.1436 596.856 54.7114C593.765 53.2803 590.295 54.0053 588.974 56.1547C587.652 58.3041 587.917 57.8459 587.687 59.9953C587.458 62.1447 585.633 63.3367 583.392 62.9703C581.152 62.604 583.945 65.5846 584.014 65.7218Z" fill="#6C8CC7"/>
<path d="M580.467 74.8669C580.467 74.8669 584.263 73.9417 585.828 72.0922C587.393 70.2427 587.731 70.8116 588.289 68.7098C588.289 68.7098 589.618 67.4016 592.017 72.2029C592.017 72.2029 594.66 75.5277 596.621 71.2333C596.621 71.2333 597.347 69.9339 599.109 72.9953C599.109 72.9953 600.1 73.9417 600.915 71.9605C600.915 71.9605 602.17 72.5991 601.047 75.396C599.923 78.1929 601.89 77.7413 603.095 78.0512C604.299 78.36 602.82 80.3567 604.747 82.1109C606.674 83.8663 608.722 82.6876 609.716 83.0196C610.71 83.3527 603.724 88.2902 603.931 91.5597C604.137 94.828 605.686 95.843 601.454 97.3227C597.222 98.8025 600.181 99.2486 600.035 100.071C599.888 100.894 598.523 102.822 596.358 102.721C594.193 102.62 594.284 104.311 593.01 101.785C591.736 99.2596 589.071 97.7013 591.502 94.1772C593.932 90.6532 589.437 91.0229 590.106 88.2747C590.776 85.5265 587.633 87.9006 585.828 86.7728C584.023 85.646 579.228 86.1242 579.503 80.2061C579.778 74.2881 577.081 78.5847 580.467 74.8669ZM566.019 51.4582C566.019 51.4582 572.157 43.9707 573.699 43.8047C573.699 43.8047 572.625 45.6497 572.625 45.9519C572.625 46.2551 571.576 46.6525 572.396 47.7172C572.396 47.7172 572.779 47.9884 572.876 48.5196C572.974 49.052 573.154 49.2413 574.426 48.1223C574.426 48.1223 575.228 48.1998 575.274 49.0919C575.319 49.985 575.472 49.7415 575.715 49.985C575.96 50.2285 574.832 51.2977 572.369 51.4427C572.369 51.4427 570.802 51.6032 569.892 53.0464C568.984 54.4897 569.041 54.6269 569.135 54.5982C569.23 54.5694 573.299 51.0476 574.511 52.0658C574.511 52.0658 574.93 52.3104 573.595 53.1627C573.595 53.1627 573.047 53.653 574.511 54.4178C575.977 55.1826 573.58 56.0481 573.615 56.5561C573.649 57.0641 574.62 57.716 573.805 58.0215C572.992 58.3281 570.776 57.8721 570.517 58.1023C570.258 58.3336 570.415 58.3657 570.17 58.5649C569.926 58.763 569.486 58.7951 569.75 59.602C570.013 60.4077 570.154 61.6108 566.972 60.7984C566.972 60.7984 567.859 59.6529 567.391 59.5312C566.922 59.4083 566.662 59.4803 565.962 61.0674C565.962 61.0674 563.751 63.9572 562.038 64.9036C562.038 64.9036 561.394 66.2594 561.354 66.9401C561.354 66.9401 560.898 67.281 560.834 66.4664C560.77 65.6529 560.454 65.3407 560.194 65.7281C559.934 66.1144 559.835 67.3186 560.014 67.8377C560.194 68.3579 560.77 69.1415 559.381 71.6672C559.381 71.6672 558.461 73.4801 560.085 74.7795C561.709 76.0789 565.599 82.6599 564.322 83.7612C563.045 84.8624 565.515 84.361 566.099 84.8447C566.684 85.3284 566.417 85.646 567.384 85.884C568.351 86.122 568.083 88.2293 570.519 89.501C572.954 90.7727 570.088 92.6609 570.687 93.8441C571.286 95.0272 571.521 97.3327 569.952 98.1606C568.385 98.9885 569.941 100.98 570.687 101.719C571.433 102.459 575.027 107.04 574.48 107.075C573.934 107.11 566.671 104.163 562.996 95.1446C559.321 86.1253 558.092 82.796 557.889 79.0849C557.687 75.3727 557.992 65.1747 560.507 61.2201C563.02 57.2644 561.619 57.1349 566.019 51.4582ZM606.342 100.544C606.342 100.544 604.907 102.687 606.309 102.837C607.711 102.985 607.612 103.1 607.925 101.995C608.239 100.89 608.585 100.412 609.443 99.7356C610.301 99.0593 610.102 97.8551 610.021 97.0472C609.937 96.2381 609.548 95.4965 609.265 96.486C608.981 97.4755 609.377 97.8219 608.338 98.02C607.299 98.2181 607.332 97.9049 607.084 98.6631C606.837 99.4223 606.145 99.4057 606.293 99.9171C606.441 100.428 606.342 100.544 606.342 100.544Z" fill="#6C8CC7"/>
<path d="M594.544 32.6309C592.756 32.6309 591.303 52.7292 591.303 77.4838C591.303 102.24 592.756 122.337 594.544 122.337C594.097 111.124 593.734 94.886 593.734 77.4838C593.734 60.0816 594.097 43.8449 594.544 32.6309Z" fill="#DEE5F6"/>
<path d="M547.718 74.7188C547.718 77.3784 569.565 79.5377 596.474 79.5377C623.384 79.5377 645.231 77.3784 645.231 74.7188C633.042 75.3839 615.391 75.9241 596.474 75.9241C577.558 75.9241 559.907 75.3839 547.718 74.7188Z" fill="#DEE5F6"/>
<path d="M590.505 30.9033C577.712 30.9033 567.325 51.4909 567.325 76.8487C567.325 102.208 577.712 122.795 590.505 122.795C579.466 120.696 570.503 100.831 570.503 76.8487C570.503 52.8677 579.466 33.0029 590.505 30.9033Z" fill="#DEE5F6"/>
<path d="M548.785 78.4492C548.785 91.2438 570.463 101.631 597.166 101.631C623.869 101.631 645.549 91.2438 645.549 78.4492C643.337 89.4884 622.419 98.4513 597.166 98.4513C571.913 98.4513 550.996 89.4884 548.785 78.4492Z" fill="#DEE5F6"/>
<path d="M589.859 29.9609C565.652 29.9609 546 50.461 546 75.7104C546 100.961 565.652 121.46 589.859 121.46C567.697 120.172 549.704 100.115 549.704 75.7104C549.704 51.3055 567.697 31.2492 589.859 29.9609ZM605.112 30.4313C629.317 30.4313 648.97 50.9314 648.97 76.1808C648.97 101.431 629.317 121.93 605.112 121.93C627.273 120.643 645.265 100.587 645.265 76.1808C645.265 51.7759 627.273 31.7196 605.112 30.4313Z" fill="#DEE5F6"/>
<path d="M600.705 31.7676C613.499 31.7676 623.886 52.3551 623.886 77.7129C623.886 103.072 613.499 123.659 600.705 123.659C611.744 121.56 620.707 101.695 620.707 77.7129C620.707 53.732 611.744 33.8672 600.705 31.7676Z" fill="#DEE5F6"/>
<path d="M548.589 70.428C548.589 57.6334 570.523 47.2461 597.541 47.2461C624.559 47.2461 646.494 57.6334 646.494 70.428C644.256 59.3877 623.092 50.4248 597.541 50.4248C571.991 50.4248 550.827 59.3877 548.589 70.428Z" fill="#DEE5F6"/>
</g>
<path d="M610.279 131.455V146H607.644V131.455H610.279ZM615.589 139.608V146H613.018V135.091H615.476V136.945H615.604C615.854 136.334 616.255 135.848 616.804 135.489C617.358 135.129 618.042 134.949 618.856 134.949C619.609 134.949 620.265 135.11 620.824 135.432C621.387 135.754 621.823 136.22 622.131 136.831C622.443 137.442 622.597 138.183 622.592 139.054V146H620.021V139.452C620.021 138.723 619.832 138.152 619.453 137.74C619.079 137.328 618.56 137.122 617.898 137.122C617.448 137.122 617.048 137.222 616.697 137.42C616.352 137.615 616.079 137.896 615.881 138.266C615.686 138.635 615.589 139.082 615.589 139.608ZM630.653 135.091V137.08H624.382V135.091H630.653ZM625.93 132.477H628.501V142.719C628.501 143.064 628.553 143.33 628.657 143.514C628.766 143.694 628.908 143.817 629.084 143.884C629.259 143.95 629.453 143.983 629.666 143.983C629.827 143.983 629.974 143.971 630.106 143.947C630.244 143.924 630.348 143.902 630.419 143.884L630.852 145.893C630.715 145.941 630.518 145.993 630.263 146.05C630.012 146.107 629.704 146.14 629.339 146.149C628.695 146.168 628.115 146.071 627.599 145.858C627.083 145.64 626.674 145.304 626.371 144.849C626.072 144.395 625.925 143.827 625.93 143.145V132.477ZM637.516 146.213C636.422 146.213 635.477 145.986 634.682 145.531C633.891 145.072 633.283 144.423 632.857 143.585C632.431 142.742 632.218 141.75 632.218 140.609C632.218 139.487 632.431 138.502 632.857 137.655C633.288 136.803 633.889 136.14 634.661 135.666C635.432 135.188 636.339 134.949 637.381 134.949C638.053 134.949 638.688 135.058 639.284 135.276C639.886 135.489 640.416 135.82 640.875 136.27C641.339 136.72 641.704 137.293 641.969 137.989C642.234 138.68 642.367 139.504 642.367 140.46V141.249H633.425V139.516H639.902C639.897 139.023 639.791 138.585 639.583 138.202C639.374 137.813 639.083 137.508 638.709 137.286C638.34 137.063 637.909 136.952 637.416 136.952C636.891 136.952 636.429 137.08 636.031 137.335C635.634 137.586 635.324 137.918 635.101 138.33C634.883 138.737 634.772 139.184 634.767 139.672V141.185C634.767 141.819 634.883 142.364 635.115 142.818C635.347 143.268 635.672 143.614 636.088 143.855C636.505 144.092 636.993 144.21 637.551 144.21C637.925 144.21 638.264 144.158 638.567 144.054C638.87 143.945 639.133 143.786 639.355 143.578C639.578 143.37 639.746 143.112 639.86 142.804L642.26 143.074C642.109 143.708 641.82 144.262 641.394 144.736C640.972 145.205 640.432 145.569 639.774 145.83C639.116 146.085 638.363 146.213 637.516 146.213ZM644.542 146V135.091H647.035V136.909H647.148C647.347 136.279 647.688 135.794 648.171 135.453C648.659 135.107 649.215 134.935 649.84 134.935C649.982 134.935 650.141 134.942 650.316 134.956C650.496 134.965 650.645 134.982 650.763 135.006V137.371C650.654 137.333 650.482 137.3 650.245 137.271C650.013 137.238 649.788 137.222 649.57 137.222C649.101 137.222 648.68 137.323 648.306 137.527C647.937 137.726 647.645 138.003 647.432 138.358C647.219 138.713 647.113 139.123 647.113 139.587V146H644.542ZM655.042 139.608V146H652.471V135.091H654.929V136.945H655.057C655.308 136.334 655.708 135.848 656.257 135.489C656.811 135.129 657.495 134.949 658.309 134.949C659.062 134.949 659.718 135.11 660.277 135.432C660.84 135.754 661.276 136.22 661.584 136.831C661.896 137.442 662.05 138.183 662.045 139.054V146H659.474V139.452C659.474 138.723 659.285 138.152 658.906 137.74C658.532 137.328 658.014 137.122 657.351 137.122C656.901 137.122 656.501 137.222 656.15 137.42C655.805 137.615 655.532 137.896 655.334 138.266C655.14 138.635 655.042 139.082 655.042 139.608ZM669.488 146.213C668.395 146.213 667.45 145.986 666.655 145.531C665.864 145.072 665.256 144.423 664.829 143.585C664.403 142.742 664.19 141.75 664.19 140.609C664.19 139.487 664.403 138.502 664.829 137.655C665.26 136.803 665.862 136.14 666.633 135.666C667.405 135.188 668.312 134.949 669.354 134.949C670.026 134.949 670.66 135.058 671.257 135.276C671.858 135.489 672.389 135.82 672.848 136.27C673.312 136.72 673.676 137.293 673.942 137.989C674.207 138.68 674.339 139.504 674.339 140.46V141.249H665.398V139.516H671.875C671.87 139.023 671.764 138.585 671.555 138.202C671.347 137.813 671.056 137.508 670.682 137.286C670.312 137.063 669.881 136.952 669.389 136.952C668.863 136.952 668.402 137.08 668.004 137.335C667.606 137.586 667.296 137.918 667.074 138.33C666.856 138.737 666.745 139.184 666.74 139.672V141.185C666.74 141.819 666.856 142.364 667.088 142.818C667.32 143.268 667.644 143.614 668.061 143.855C668.478 144.092 668.965 144.21 669.524 144.21C669.898 144.21 670.237 144.158 670.54 144.054C670.843 143.945 671.105 143.786 671.328 143.578C671.55 143.37 671.719 143.112 671.832 142.804L674.233 143.074C674.081 143.708 673.792 144.262 673.366 144.736C672.945 145.205 672.405 145.569 671.747 145.83C671.089 146.085 670.336 146.213 669.488 146.213ZM681.962 135.091V137.08H675.691V135.091H681.962ZM677.239 132.477H679.81V142.719C679.81 143.064 679.862 143.33 679.966 143.514C680.075 143.694 680.217 143.817 680.392 143.884C680.567 143.95 680.762 143.983 680.975 143.983C681.136 143.983 681.282 143.971 681.415 143.947C681.552 143.924 681.656 143.902 681.727 143.884L682.161 145.893C682.023 145.941 681.827 145.993 681.571 146.05C681.32 146.107 681.012 146.14 680.648 146.149C680.004 146.168 679.424 146.071 678.908 145.858C678.392 145.64 677.982 145.304 677.679 144.849C677.381 144.395 677.234 143.827 677.239 143.145V132.477Z" fill="black"/>
<defs>
<clipPath id="clip0_202_2">
<rect width="104" height="104" fill="white" transform="translate(546 25)"/>
</clipPath>
</defs>
</svg>
