<svg width="300" height="300" viewBox="0 0 300 300" fill="none" xmlns="http://www.w3.org/2000/svg">
<g clip-path="url(#clip0_201_2)">
<rect width="300" height="300" fill="#EF4E1B"/>
<path d="M20.6577 136.091V163H15.783V136.091H20.6577ZM30.4825 151.175V163H25.7261V142.818H30.2723V146.248H30.5088C30.973 145.118 31.7132 144.22 32.7293 143.554C33.7542 142.888 35.0199 142.555 36.5265 142.555C37.9193 142.555 39.1325 142.853 40.1661 143.449C41.2085 144.045 42.0144 144.907 42.5837 146.037C43.1618 147.167 43.4465 148.538 43.4378 150.15V163H38.6814V150.886C38.6814 149.537 38.331 148.481 37.6302 147.719C36.9382 146.957 35.9791 146.576 34.7528 146.576C33.9206 146.576 33.1804 146.76 32.5322 147.128C31.8928 147.487 31.3891 148.008 31.0212 148.691C30.6621 149.375 30.4825 150.202 30.4825 151.175ZM58.3508 142.818V146.497H46.7488V142.818H58.3508ZM49.6132 137.983H54.3696V156.93C54.3696 157.569 54.4659 158.06 54.6586 158.401C54.8601 158.734 55.1229 158.962 55.447 159.085C55.7711 159.207 56.1302 159.268 56.5244 159.268C56.8222 159.268 57.0938 159.247 57.339 159.203C57.5931 159.159 57.7858 159.12 57.9172 159.085L58.7187 162.803C58.4646 162.891 58.1011 162.987 57.6281 163.092C57.1639 163.197 56.5945 163.258 55.92 163.276C54.7287 163.311 53.6557 163.131 52.7009 162.737C51.7461 162.334 50.9884 161.712 50.4278 160.871C49.876 160.031 49.6044 158.979 49.6132 157.718V137.983ZM62.3287 163V142.818H66.9405V146.182H67.1507C67.5186 145.017 68.1493 144.119 69.0428 143.488C69.945 142.849 70.9743 142.529 72.1305 142.529C72.3933 142.529 72.6867 142.542 73.0108 142.569C73.3437 142.586 73.6196 142.617 73.8386 142.661V147.036C73.6371 146.966 73.3174 146.904 72.8794 146.852C72.4502 146.791 72.0342 146.76 71.6312 146.76C70.764 146.76 69.9844 146.948 69.2924 147.325C68.6092 147.693 68.0705 148.205 67.6763 148.862C67.2821 149.519 67.0851 150.277 67.0851 151.135V163H62.3287ZM84.9708 163.394C82.9999 163.394 81.2918 162.961 79.8465 162.093C78.4012 161.226 77.28 160.013 76.4829 158.454C75.6945 156.895 75.3003 155.073 75.3003 152.988C75.3003 150.903 75.6945 149.077 76.4829 147.509C77.28 145.941 78.4012 144.723 79.8465 143.856C81.2918 142.989 82.9999 142.555 84.9708 142.555C86.9417 142.555 88.6498 142.989 90.0951 143.856C91.5404 144.723 92.6572 145.941 93.4456 147.509C94.2427 149.077 94.6412 150.903 94.6412 152.988C94.6412 155.073 94.2427 156.895 93.4456 158.454C92.6572 160.013 91.5404 161.226 90.0951 162.093C88.6498 162.961 86.9417 163.394 84.9708 163.394ZM84.9971 159.584C86.0657 159.584 86.9592 159.29 87.6775 158.703C88.3957 158.108 88.9301 157.311 89.2805 156.312C89.6396 155.314 89.8192 154.201 89.8192 152.975C89.8192 151.74 89.6396 150.623 89.2805 149.624C88.9301 148.617 88.3957 147.815 87.6775 147.22C86.9592 146.624 86.0657 146.326 84.9971 146.326C83.9021 146.326 82.9912 146.624 82.2641 147.22C81.5458 147.815 81.0071 148.617 80.648 149.624C80.2976 150.623 80.1224 151.74 80.1224 152.975C80.1224 154.201 80.2976 155.314 80.648 156.312C81.0071 157.311 81.5458 158.108 82.2641 158.703C82.9912 159.29 83.9021 159.584 84.9971 159.584ZM106.168 163.355C104.582 163.355 103.163 162.947 101.911 162.133C100.658 161.318 99.6681 160.136 98.9411 158.585C98.214 157.035 97.8505 155.152 97.8505 152.935C97.8505 150.693 98.2184 148.801 98.9542 147.259C99.6987 145.709 100.702 144.539 101.963 143.751C103.224 142.954 104.63 142.555 106.181 142.555C107.363 142.555 108.336 142.757 109.098 143.16C109.86 143.554 110.464 144.031 110.911 144.592C111.358 145.144 111.704 145.665 111.949 146.156H112.146V136.091H116.915V163H112.238V159.82H111.949C111.704 160.311 111.349 160.832 110.885 161.384C110.42 161.927 109.807 162.391 109.045 162.777C108.283 163.162 107.324 163.355 106.168 163.355ZM107.495 159.452C108.502 159.452 109.36 159.181 110.07 158.638C110.779 158.086 111.318 157.319 111.686 156.338C112.054 155.357 112.238 154.214 112.238 152.909C112.238 151.604 112.054 150.47 111.686 149.506C111.327 148.542 110.793 147.794 110.083 147.259C109.382 146.725 108.52 146.458 107.495 146.458C106.435 146.458 105.55 146.734 104.841 147.286C104.131 147.837 103.597 148.599 103.238 149.572C102.878 150.544 102.699 151.656 102.699 152.909C102.699 154.17 102.878 155.296 103.238 156.286C103.605 157.267 104.144 158.042 104.854 158.612C105.572 159.172 106.452 159.452 107.495 159.452ZM134.847 154.512V142.818H139.604V163H134.992V159.413H134.782C134.326 160.543 133.577 161.467 132.535 162.185C131.501 162.904 130.227 163.263 128.711 163.263C127.389 163.263 126.219 162.969 125.203 162.382C124.196 161.787 123.407 160.924 122.838 159.794C122.269 158.655 121.984 157.28 121.984 155.668V142.818H126.74V154.933C126.74 156.211 127.091 157.228 127.791 157.981C128.492 158.734 129.412 159.111 130.551 159.111C131.251 159.111 131.93 158.94 132.587 158.598C133.244 158.257 133.783 157.749 134.203 157.074C134.633 156.391 134.847 155.537 134.847 154.512ZM153.298 163.394C151.283 163.394 149.553 162.952 148.108 162.067C146.671 161.182 145.563 159.96 144.784 158.401C144.013 156.833 143.627 155.029 143.627 152.988C143.627 150.938 144.022 149.129 144.81 147.561C145.598 145.985 146.711 144.758 148.147 143.882C149.593 142.998 151.301 142.555 153.272 142.555C154.91 142.555 156.359 142.858 157.621 143.462C158.891 144.058 159.903 144.903 160.656 145.998C161.409 147.084 161.838 148.354 161.944 149.808H157.397C157.213 148.836 156.775 148.026 156.083 147.377C155.4 146.721 154.485 146.392 153.337 146.392C152.365 146.392 151.511 146.655 150.775 147.18C150.039 147.697 149.466 148.442 149.054 149.414C148.651 150.386 148.45 151.551 148.45 152.909C148.45 154.284 148.651 155.467 149.054 156.457C149.457 157.438 150.022 158.195 150.749 158.73C151.485 159.255 152.348 159.518 153.337 159.518C154.038 159.518 154.664 159.387 155.216 159.124C155.777 158.852 156.246 158.463 156.622 157.955C156.999 157.446 157.257 156.829 157.397 156.102H161.944C161.83 157.53 161.409 158.795 160.682 159.899C159.955 160.994 158.965 161.853 157.713 162.474C156.46 163.088 154.989 163.394 153.298 163.394ZM175.927 142.818V146.497H164.325V142.818H175.927ZM167.189 137.983H171.946V156.93C171.946 157.569 172.042 158.06 172.235 158.401C172.436 158.734 172.699 158.962 173.023 159.085C173.347 159.207 173.706 159.268 174.101 159.268C174.398 159.268 174.67 159.247 174.915 159.203C175.169 159.159 175.362 159.12 175.493 159.085L176.295 162.803C176.041 162.891 175.677 162.987 175.204 163.092C174.74 163.197 174.171 163.258 173.496 163.276C172.305 163.311 171.232 163.131 170.277 162.737C169.322 162.334 168.565 161.712 168.004 160.871C167.452 160.031 167.181 158.979 167.189 157.718V137.983ZM179.905 163V142.818H184.661V163H179.905ZM182.296 139.954C181.543 139.954 180.895 139.704 180.352 139.205C179.808 138.697 179.537 138.088 179.537 137.379C179.537 136.66 179.808 136.051 180.352 135.552C180.895 135.044 181.543 134.79 182.296 134.79C183.058 134.79 183.706 135.044 184.241 135.552C184.784 136.051 185.055 136.66 185.055 137.379C185.055 138.088 184.784 138.697 184.241 139.205C183.706 139.704 183.058 139.954 182.296 139.954ZM198.356 163.394C196.385 163.394 194.677 162.961 193.231 162.093C191.786 161.226 190.665 160.013 189.868 158.454C189.079 156.895 188.685 155.073 188.685 152.988C188.685 150.903 189.079 149.077 189.868 147.509C190.665 145.941 191.786 144.723 193.231 143.856C194.677 142.989 196.385 142.555 198.356 142.555C200.326 142.555 202.035 142.989 203.48 143.856C204.925 144.723 206.042 145.941 206.83 147.509C207.627 149.077 208.026 150.903 208.026 152.988C208.026 155.073 207.627 156.895 206.83 158.454C206.042 160.013 204.925 161.226 203.48 162.093C202.035 162.961 200.326 163.394 198.356 163.394ZM198.382 159.584C199.45 159.584 200.344 159.29 201.062 158.703C201.781 158.108 202.315 157.311 202.665 156.312C203.024 155.314 203.204 154.201 203.204 152.975C203.204 151.74 203.024 150.623 202.665 149.624C202.315 148.617 201.781 147.815 201.062 147.22C200.344 146.624 199.45 146.326 198.382 146.326C197.287 146.326 196.376 146.624 195.649 147.22C194.931 147.815 194.392 148.617 194.033 149.624C193.682 150.623 193.507 151.74 193.507 152.975C193.507 154.201 193.682 155.314 194.033 156.312C194.392 157.311 194.931 158.108 195.649 158.703C196.376 159.29 197.287 159.584 198.382 159.584ZM216.819 151.175V163H212.063V142.818H216.609V146.248H216.846C217.31 145.118 218.05 144.22 219.066 143.554C220.091 142.888 221.357 142.555 222.863 142.555C224.256 142.555 225.469 142.853 226.503 143.449C227.545 144.045 228.351 144.907 228.921 146.037C229.499 147.167 229.783 148.538 229.775 150.15V163H225.018V150.886C225.018 149.537 224.668 148.481 223.967 147.719C223.275 146.957 222.316 146.576 221.09 146.576C220.258 146.576 219.517 146.76 218.869 147.128C218.23 147.487 217.726 148.008 217.358 148.691C216.999 149.375 216.819 150.202 216.819 151.175ZM253.865 142.818V146.497H242.263V142.818H253.865ZM245.128 137.983H249.884V156.93C249.884 157.569 249.981 158.06 250.173 158.401C250.375 158.734 250.638 158.962 250.962 159.085C251.286 159.207 251.645 159.268 252.039 159.268C252.337 159.268 252.608 159.247 252.854 159.203C253.108 159.159 253.3 159.12 253.432 159.085L254.233 162.803C253.979 162.891 253.616 162.987 253.143 163.092C252.679 163.197 252.109 163.258 251.435 163.276C250.243 163.311 249.17 163.131 248.216 162.737C247.261 162.334 246.503 161.712 245.942 160.871C245.391 160.031 245.119 158.979 245.128 157.718V137.983ZM266.43 163.394C264.459 163.394 262.751 162.961 261.305 162.093C259.86 161.226 258.739 160.013 257.942 158.454C257.153 156.895 256.759 155.073 256.759 152.988C256.759 150.903 257.153 149.077 257.942 147.509C258.739 145.941 259.86 144.723 261.305 143.856C262.751 142.989 264.459 142.555 266.43 142.555C268.401 142.555 270.109 142.989 271.554 143.856C272.999 144.723 274.116 145.941 274.905 147.509C275.702 149.077 276.1 150.903 276.1 152.988C276.1 155.073 275.702 156.895 274.905 158.454C274.116 160.013 272.999 161.226 271.554 162.093C270.109 162.961 268.401 163.394 266.43 163.394ZM266.456 159.584C267.525 159.584 268.418 159.29 269.136 158.703C269.855 158.108 270.389 157.311 270.739 156.312C271.099 155.314 271.278 154.201 271.278 152.975C271.278 151.74 271.099 150.623 270.739 149.624C270.389 148.617 269.855 147.815 269.136 147.22C268.418 146.624 267.525 146.326 266.456 146.326C265.361 146.326 264.45 146.624 263.723 147.22C263.005 147.815 262.466 148.617 262.107 149.624C261.757 150.623 261.581 151.74 261.581 152.975C261.581 154.201 261.757 155.314 262.107 156.312C262.466 157.311 263.005 158.108 263.723 158.703C264.45 159.29 265.361 159.584 266.456 159.584ZM43.8664 195.488C43.7438 194.341 43.227 193.447 42.316 192.808C41.4138 192.168 40.24 191.849 38.7947 191.849C37.7786 191.849 36.907 192.002 36.18 192.309C35.453 192.615 34.8967 193.031 34.5113 193.557C34.1259 194.082 33.9288 194.682 33.9201 195.357C33.9201 195.917 34.0471 196.404 34.3011 196.815C34.5639 197.227 34.9186 197.577 35.3654 197.866C35.8121 198.147 36.307 198.383 36.8501 198.576C37.3932 198.769 37.9407 198.931 38.4925 199.062L41.0152 199.693C42.0313 199.929 43.008 200.249 43.9453 200.652C44.8913 201.055 45.7366 201.563 46.4811 202.176C47.2344 202.789 47.8301 203.529 48.2681 204.397C48.706 205.264 48.925 206.28 48.925 207.445C48.925 209.022 48.5221 210.41 47.7162 211.61C46.9103 212.801 45.7453 213.734 44.2212 214.409C42.7058 215.074 40.8707 215.407 38.7159 215.407C36.6224 215.407 34.8048 215.083 33.2631 214.435C31.7302 213.787 30.5301 212.841 29.663 211.597C28.8045 210.353 28.3403 208.838 28.2702 207.051H33.066C33.1361 207.988 33.4251 208.768 33.9332 209.39C34.4412 210.011 35.1026 210.476 35.9172 210.782C36.7406 211.089 37.6603 211.242 38.6764 211.242C39.7363 211.242 40.6648 211.085 41.462 210.769C42.2678 210.445 42.8985 209.998 43.354 209.429C43.8095 208.851 44.0416 208.176 44.0504 207.406C44.0416 206.705 43.8358 206.127 43.4328 205.671C43.0299 205.207 42.4649 204.821 41.7379 204.515C41.0196 204.2 40.1787 203.919 39.2152 203.674L36.1537 202.886C33.9376 202.316 32.1857 201.453 30.898 200.297C29.6192 199.132 28.9797 197.586 28.9797 195.659C28.9797 194.074 29.4089 192.685 30.2674 191.494C31.1345 190.303 32.3127 189.379 33.8018 188.722C35.2909 188.056 36.9771 187.723 38.8604 187.723C40.77 187.723 42.443 188.056 43.8796 188.722C45.3249 189.379 46.4592 190.294 47.2826 191.468C48.106 192.633 48.5309 193.973 48.5571 195.488H43.8664ZM58.1455 188.091V215H53.2708V188.091H58.1455ZM63.4241 215V188.091H80.9256V192.177H68.2988V199.483H80.019V203.569H68.2988V210.914H81.0307V215H63.4241ZM85.8987 188.091H91.8639L99.8526 207.589H100.168L108.157 188.091H114.122V215H109.444V196.513H109.195L101.758 214.921H98.2627L90.826 196.474H90.5763V215H85.8987V188.091ZM143.232 195.488C143.109 194.341 142.592 193.447 141.681 192.808C140.779 192.168 139.605 191.849 138.16 191.849C137.144 191.849 136.272 192.002 135.545 192.309C134.818 192.615 134.262 193.031 133.877 193.557C133.491 194.082 133.294 194.682 133.285 195.357C133.285 195.917 133.412 196.404 133.666 196.815C133.929 197.227 134.284 197.577 134.731 197.866C135.177 198.147 135.672 198.383 136.215 198.576C136.758 198.769 137.306 198.931 137.858 199.062L140.38 199.693C141.397 199.929 142.373 200.249 143.311 200.652C144.257 201.055 145.102 201.563 145.846 202.176C146.6 202.789 147.195 203.529 147.633 204.397C148.071 205.264 148.29 206.28 148.29 207.445C148.29 209.022 147.887 210.41 147.081 211.61C146.276 212.801 145.111 213.734 143.586 214.409C142.071 215.074 140.236 215.407 138.081 215.407C135.988 215.407 134.17 215.083 132.628 214.435C131.095 213.787 129.895 212.841 129.028 211.597C128.17 210.353 127.706 208.838 127.635 207.051H132.431C132.501 207.988 132.79 208.768 133.298 209.39C133.806 210.011 134.468 210.476 135.282 210.782C136.106 211.089 137.026 211.242 138.042 211.242C139.102 211.242 140.03 211.085 140.827 210.769C141.633 210.445 142.264 209.998 142.719 209.429C143.175 208.851 143.407 208.176 143.416 207.406C143.407 206.705 143.201 206.127 142.798 205.671C142.395 205.207 141.83 204.821 141.103 204.515C140.385 204.2 139.544 203.919 138.58 203.674L135.519 202.886C133.303 202.316 131.551 201.453 130.263 200.297C128.984 199.132 128.345 197.586 128.345 195.659C128.345 194.074 128.774 192.685 129.633 191.494C130.5 190.303 131.678 189.379 133.167 188.722C134.656 188.056 136.342 187.723 138.226 187.723C140.135 187.723 141.808 188.056 143.245 188.722C144.69 189.379 145.824 190.294 146.648 191.468C147.471 192.633 147.896 193.973 147.922 195.488H143.232ZM161.229 215.394C159.258 215.394 157.55 214.961 156.105 214.093C154.659 213.226 153.538 212.013 152.741 210.454C151.953 208.895 151.559 207.073 151.559 204.988C151.559 202.903 151.953 201.077 152.741 199.509C153.538 197.941 154.659 196.723 156.105 195.856C157.55 194.989 159.258 194.555 161.229 194.555C163.2 194.555 164.908 194.989 166.353 195.856C167.799 196.723 168.916 197.941 169.704 199.509C170.501 201.077 170.9 202.903 170.9 204.988C170.9 207.073 170.501 208.895 169.704 210.454C168.916 212.013 167.799 213.226 166.353 214.093C164.908 214.961 163.2 215.394 161.229 215.394ZM161.255 211.584C162.324 211.584 163.217 211.29 163.936 210.703C164.654 210.108 165.188 209.311 165.539 208.312C165.898 207.314 166.077 206.201 166.077 204.975C166.077 203.74 165.898 202.623 165.539 201.624C165.188 200.617 164.654 199.815 163.936 199.22C163.217 198.624 162.324 198.326 161.255 198.326C160.16 198.326 159.249 198.624 158.522 199.22C157.804 199.815 157.265 200.617 156.906 201.624C156.556 202.623 156.381 203.74 156.381 204.975C156.381 206.201 156.556 207.314 156.906 208.312C157.265 209.311 157.804 210.108 158.522 210.703C159.249 211.29 160.16 211.584 161.255 211.584ZM179.693 188.091V215H174.937V188.091H179.693ZM197.447 206.512V194.818H202.204V215H197.592V211.413H197.382C196.926 212.543 196.177 213.467 195.135 214.185C194.101 214.904 192.827 215.263 191.311 215.263C189.989 215.263 188.819 214.969 187.803 214.382C186.796 213.787 186.007 212.924 185.438 211.794C184.869 210.655 184.584 209.28 184.584 207.668V194.818H189.34V206.933C189.34 208.211 189.691 209.228 190.392 209.981C191.092 210.734 192.012 211.111 193.151 211.111C193.852 211.111 194.53 210.94 195.187 210.598C195.844 210.257 196.383 209.749 196.803 209.074C197.233 208.391 197.447 207.537 197.447 206.512ZM217.173 194.818V198.497H205.571V194.818H217.173ZM208.435 189.983H213.191V208.93C213.191 209.569 213.288 210.06 213.48 210.401C213.682 210.734 213.945 210.962 214.269 211.085C214.593 211.207 214.952 211.268 215.346 211.268C215.644 211.268 215.916 211.247 216.161 211.203C216.415 211.159 216.608 211.12 216.739 211.085L217.54 214.803C217.286 214.891 216.923 214.987 216.45 215.092C215.986 215.197 215.416 215.258 214.742 215.276C213.551 215.311 212.477 215.131 211.523 214.737C210.568 214.334 209.81 213.712 209.25 212.871C208.698 212.031 208.426 210.979 208.435 209.718V189.983ZM221.15 215V194.818H225.907V215H221.15ZM223.542 191.954C222.788 191.954 222.14 191.704 221.597 191.205C221.054 190.697 220.783 190.088 220.783 189.379C220.783 188.66 221.054 188.051 221.597 187.552C222.14 187.044 222.788 186.79 223.542 186.79C224.304 186.79 224.952 187.044 225.486 187.552C226.029 188.051 226.301 188.66 226.301 189.379C226.301 190.088 226.029 190.697 225.486 191.205C224.952 191.704 224.304 191.954 223.542 191.954ZM239.601 215.394C237.63 215.394 235.922 214.961 234.477 214.093C233.032 213.226 231.91 212.013 231.113 210.454C230.325 208.895 229.931 207.073 229.931 204.988C229.931 202.903 230.325 201.077 231.113 199.509C231.91 197.941 233.032 196.723 234.477 195.856C235.922 194.989 237.63 194.555 239.601 194.555C241.572 194.555 243.28 194.989 244.725 195.856C246.171 196.723 247.288 197.941 248.076 199.509C248.873 201.077 249.272 202.903 249.272 204.988C249.272 207.073 248.873 208.895 248.076 210.454C247.288 212.013 246.171 213.226 244.725 214.093C243.28 214.961 241.572 215.394 239.601 215.394ZM239.627 211.584C240.696 211.584 241.59 211.29 242.308 210.703C243.026 210.108 243.56 209.311 243.911 208.312C244.27 207.314 244.45 206.201 244.45 204.975C244.45 203.74 244.27 202.623 243.911 201.624C243.56 200.617 243.026 199.815 242.308 199.22C241.59 198.624 240.696 198.326 239.627 198.326C238.533 198.326 237.622 198.624 236.894 199.22C236.176 199.815 235.638 200.617 235.278 201.624C234.928 202.623 234.753 203.74 234.753 204.975C234.753 206.201 234.928 207.314 235.278 208.312C235.638 209.311 236.176 210.108 236.894 210.703C237.622 211.29 238.533 211.584 239.627 211.584ZM258.065 203.175V215H253.309V194.818H257.855V198.248H258.091C258.556 197.118 259.296 196.22 260.312 195.554C261.337 194.888 262.602 194.555 264.109 194.555C265.502 194.555 266.715 194.853 267.749 195.449C268.791 196.045 269.597 196.907 270.166 198.037C270.744 199.167 271.029 200.538 271.02 202.15V215H266.264V202.886C266.264 201.537 265.914 200.481 265.213 199.719C264.521 198.957 263.562 198.576 262.335 198.576C261.503 198.576 260.763 198.76 260.115 199.128C259.475 199.487 258.972 200.008 258.604 200.691C258.245 201.375 258.065 202.202 258.065 203.175Z" fill="white"/>
<path d="M137.67 253.453C137.603 252.833 137.324 252.35 136.831 252.004C136.344 251.659 135.709 251.486 134.928 251.486C134.379 251.486 133.908 251.569 133.515 251.734C133.122 251.9 132.821 252.125 132.613 252.409C132.404 252.693 132.298 253.018 132.293 253.382C132.293 253.685 132.362 253.948 132.499 254.17C132.641 254.393 132.833 254.582 133.074 254.739C133.316 254.89 133.583 255.018 133.877 255.122C134.171 255.226 134.466 255.314 134.765 255.385L136.128 255.726C136.678 255.854 137.206 256.027 137.712 256.244C138.224 256.462 138.68 256.737 139.083 257.068C139.49 257.4 139.812 257.8 140.049 258.268C140.286 258.737 140.404 259.286 140.404 259.916C140.404 260.768 140.186 261.519 139.751 262.168C139.315 262.812 138.685 263.316 137.861 263.68C137.042 264.04 136.05 264.22 134.885 264.22C133.754 264.22 132.771 264.045 131.938 263.695C131.109 263.344 130.461 262.833 129.992 262.161C129.528 261.488 129.277 260.669 129.239 259.703H131.831C131.869 260.21 132.026 260.631 132.3 260.967C132.575 261.304 132.932 261.554 133.373 261.72C133.818 261.886 134.315 261.969 134.864 261.969C135.437 261.969 135.939 261.884 136.37 261.713C136.805 261.538 137.146 261.296 137.393 260.989C137.639 260.676 137.764 260.312 137.769 259.895C137.764 259.516 137.653 259.204 137.435 258.957C137.217 258.706 136.912 258.498 136.519 258.332C136.131 258.162 135.676 258.01 135.155 257.878L133.501 257.452C132.303 257.144 131.356 256.678 130.66 256.053C129.968 255.423 129.623 254.587 129.623 253.545C129.623 252.688 129.855 251.938 130.319 251.294C130.787 250.65 131.424 250.151 132.229 249.795C133.034 249.436 133.946 249.256 134.964 249.256C135.996 249.256 136.9 249.436 137.677 249.795C138.458 250.151 139.071 250.645 139.516 251.28C139.961 251.91 140.191 252.634 140.205 253.453H137.67ZM155.75 256.727C155.75 258.295 155.457 259.637 154.869 260.754C154.287 261.867 153.492 262.719 152.483 263.311C151.479 263.903 150.341 264.199 149.067 264.199C147.793 264.199 146.652 263.903 145.644 263.311C144.64 262.714 143.844 261.86 143.257 260.747C142.675 259.63 142.384 258.29 142.384 256.727C142.384 255.16 142.675 253.82 143.257 252.707C143.844 251.59 144.64 250.735 145.644 250.143C146.652 249.552 147.793 249.256 149.067 249.256C150.341 249.256 151.479 249.552 152.483 250.143C153.492 250.735 154.287 251.59 154.869 252.707C155.457 253.82 155.75 255.16 155.75 256.727ZM153.101 256.727C153.101 255.624 152.928 254.694 152.583 253.936C152.242 253.174 151.768 252.598 151.162 252.21C150.556 251.817 149.858 251.621 149.067 251.621C148.276 251.621 147.578 251.817 146.972 252.21C146.366 252.598 145.89 253.174 145.544 253.936C145.203 254.694 145.033 255.624 145.033 256.727C145.033 257.83 145.203 258.763 145.544 259.526C145.89 260.283 146.366 260.858 146.972 261.251C147.578 261.64 148.276 261.834 149.067 261.834C149.858 261.834 150.556 261.64 151.162 261.251C151.768 260.858 152.242 260.283 152.583 259.526C152.928 258.763 153.101 257.83 153.101 256.727ZM170.692 254.362H168.035C167.96 253.927 167.82 253.541 167.616 253.205C167.413 252.864 167.159 252.575 166.856 252.338C166.553 252.101 166.208 251.924 165.819 251.805C165.436 251.682 165.022 251.621 164.577 251.621C163.786 251.621 163.085 251.82 162.474 252.217C161.863 252.61 161.385 253.188 161.04 253.95C160.694 254.708 160.521 255.634 160.521 256.727C160.521 257.84 160.694 258.777 161.04 259.54C161.39 260.297 161.868 260.87 162.474 261.259C163.085 261.642 163.783 261.834 164.569 261.834C165.005 261.834 165.412 261.777 165.791 261.663C166.175 261.545 166.518 261.372 166.821 261.145C167.129 260.918 167.387 260.638 167.595 260.307C167.808 259.975 167.955 259.597 168.035 259.17L170.692 259.185C170.592 259.876 170.377 260.525 170.045 261.131C169.719 261.737 169.29 262.272 168.76 262.736C168.229 263.195 167.609 263.555 166.899 263.815C166.189 264.071 165.4 264.199 164.534 264.199C163.256 264.199 162.114 263.903 161.111 263.311C160.107 262.719 159.316 261.865 158.738 260.747C158.161 259.63 157.872 258.29 157.872 256.727C157.872 255.16 158.163 253.82 158.746 252.707C159.328 251.59 160.121 250.735 161.125 250.143C162.129 249.552 163.265 249.256 164.534 249.256C165.344 249.256 166.096 249.369 166.792 249.597C167.488 249.824 168.109 250.158 168.653 250.598C169.198 251.034 169.645 251.569 169.996 252.203C170.351 252.833 170.583 253.553 170.692 254.362Z" fill="#292D32"/>
<path d="M119.339 101.453C119.273 100.833 118.994 100.35 118.501 100.004C118.014 99.6586 117.379 99.4858 116.598 99.4858C116.049 99.4858 115.578 99.5687 115.185 99.7344C114.792 99.9001 114.491 100.125 114.283 100.409C114.074 100.693 113.968 101.018 113.963 101.382C113.963 101.685 114.032 101.948 114.169 102.17C114.311 102.393 114.503 102.582 114.744 102.739C114.986 102.89 115.253 103.018 115.547 103.122C115.84 103.226 116.136 103.314 116.435 103.385L117.798 103.726C118.348 103.854 118.875 104.027 119.382 104.244C119.893 104.462 120.35 104.737 120.753 105.068C121.16 105.4 121.482 105.8 121.719 106.268C121.955 106.737 122.074 107.286 122.074 107.916C122.074 108.768 121.856 109.519 121.42 110.168C120.985 110.812 120.355 111.316 119.531 111.68C118.712 112.04 117.72 112.22 116.555 112.22C115.424 112.22 114.441 112.045 113.608 111.695C112.779 111.344 112.131 110.833 111.662 110.161C111.198 109.488 110.947 108.669 110.909 107.703H113.501C113.539 108.21 113.696 108.631 113.97 108.967C114.245 109.304 114.602 109.554 115.043 109.72C115.488 109.886 115.985 109.969 116.534 109.969C117.107 109.969 117.609 109.884 118.04 109.713C118.475 109.538 118.816 109.296 119.062 108.989C119.309 108.676 119.434 108.312 119.439 107.895C119.434 107.516 119.323 107.204 119.105 106.957C118.887 106.706 118.582 106.498 118.189 106.332C117.801 106.162 117.346 106.01 116.825 105.878L115.17 105.452C113.973 105.144 113.026 104.678 112.33 104.053C111.638 103.423 111.293 102.587 111.293 101.545C111.293 100.688 111.525 99.938 111.989 99.294C112.457 98.6501 113.094 98.1506 113.899 97.7955C114.704 97.4356 115.616 97.2557 116.634 97.2557C117.666 97.2557 118.57 97.4356 119.347 97.7955C120.128 98.1506 120.741 98.6454 121.186 99.2798C121.631 99.9096 121.861 100.634 121.875 101.453H119.339ZM127.058 97.4545V112H124.423V97.4545H127.058ZM129.911 112V97.4545H139.371V99.6634H132.546V103.612H138.881V105.821H132.546V109.791H139.428V112H129.911ZM142.06 97.4545H145.284L149.602 107.994H149.773L154.091 97.4545H157.315V112H154.787V102.007H154.652L150.632 111.957H148.743L144.723 101.986H144.588V112H142.06V97.4545ZM165.419 112.277C164.25 112.277 163.246 111.981 162.408 111.389C161.574 110.793 160.933 109.933 160.483 108.811C160.038 107.684 159.815 106.328 159.815 104.741C159.82 103.155 160.045 101.806 160.49 100.693C160.94 99.5758 161.581 98.7235 162.415 98.1364C163.253 97.5492 164.254 97.2557 165.419 97.2557C166.584 97.2557 167.585 97.5492 168.423 98.1364C169.261 98.7235 169.903 99.5758 170.348 100.693C170.798 101.811 171.023 103.16 171.023 104.741C171.023 106.332 170.798 107.691 170.348 108.818C169.903 109.94 169.261 110.797 168.423 111.389C167.59 111.981 166.589 112.277 165.419 112.277ZM165.419 110.054C166.328 110.054 167.045 109.607 167.571 108.712C168.101 107.812 168.366 106.489 168.366 104.741C168.366 103.586 168.246 102.616 168.004 101.83C167.763 101.044 167.422 100.452 166.982 100.054C166.541 99.6515 166.02 99.4503 165.419 99.4503C164.515 99.4503 163.8 99.9001 163.274 100.8C162.749 101.695 162.483 103.009 162.479 104.741C162.474 105.902 162.59 106.877 162.827 107.668C163.068 108.458 163.409 109.055 163.849 109.457C164.29 109.855 164.813 110.054 165.419 110.054ZM179.299 97.4545V112H176.664V100.018H176.578L173.176 102.192V99.777L176.792 97.4545H179.299Z" fill="#292D32"/>
</g>
<defs>
<clipPath id="clip0_201_2">
<rect width="300" height="300" fill="white"/>
</clipPath>
</defs>
</svg>
