<svg width="500" height="300" viewBox="0 0 500 300" fill="none" xmlns="http://www.w3.org/2000/svg">
<g clip-path="url(#clip0_133_2)">
<rect width="500" height="300" fill="#FF6682"/>
<path d="M136.936 166V139.818H146.754C148.765 139.818 150.453 140.193 151.817 140.943C153.189 141.693 154.224 142.724 154.923 144.037C155.631 145.341 155.984 146.824 155.984 148.486C155.984 150.165 155.631 151.656 154.923 152.96C154.216 154.264 153.172 155.291 151.791 156.041C150.41 156.783 148.71 157.153 146.69 157.153H140.183V153.254H146.051C147.227 153.254 148.19 153.05 148.94 152.641C149.69 152.232 150.244 151.669 150.602 150.953C150.969 150.237 151.152 149.415 151.152 148.486C151.152 147.557 150.969 146.739 150.602 146.031C150.244 145.324 149.686 144.774 148.927 144.382C148.177 143.982 147.21 143.781 146.025 143.781H141.679V166H136.936ZM164.527 154.494V166H159.899V139.818H164.425V149.7H164.655C165.115 148.592 165.827 147.719 166.79 147.08C167.762 146.432 168.997 146.108 170.497 146.108C171.861 146.108 173.05 146.393 174.064 146.964C175.078 147.536 175.862 148.371 176.416 149.47C176.979 150.57 177.26 151.912 177.26 153.497V166H172.632V154.213C172.632 152.892 172.291 151.865 171.61 151.132C170.936 150.391 169.99 150.02 168.771 150.02C167.953 150.02 167.22 150.199 166.573 150.557C165.933 150.906 165.431 151.413 165.064 152.078C164.706 152.743 164.527 153.548 164.527 154.494ZM181.977 166V146.364H186.605V166H181.977ZM184.304 143.577C183.571 143.577 182.941 143.334 182.412 142.848C181.884 142.354 181.619 141.761 181.619 141.071C181.619 140.372 181.884 139.78 182.412 139.294C182.941 138.8 183.571 138.553 184.304 138.553C185.046 138.553 185.676 138.8 186.196 139.294C186.725 139.78 186.989 140.372 186.989 141.071C186.989 141.761 186.725 142.354 186.196 142.848C185.676 143.334 185.046 143.577 184.304 143.577ZM206.884 151.554L202.665 152.014C202.546 151.588 202.337 151.188 202.039 150.812C201.749 150.438 201.357 150.135 200.863 149.905C200.368 149.675 199.763 149.56 199.047 149.56C198.084 149.56 197.275 149.768 196.618 150.186C195.971 150.604 195.651 151.145 195.66 151.81C195.651 152.381 195.86 152.845 196.286 153.203C196.721 153.561 197.437 153.855 198.434 154.085L201.783 154.801C203.641 155.202 205.022 155.837 205.925 156.706C206.837 157.575 207.297 158.713 207.306 160.119C207.297 161.355 206.935 162.446 206.219 163.392C205.512 164.33 204.528 165.062 203.266 165.591C202.005 166.119 200.556 166.384 198.92 166.384C196.516 166.384 194.581 165.881 193.116 164.875C191.65 163.861 190.776 162.45 190.495 160.643L195.008 160.209C195.212 161.095 195.647 161.764 196.312 162.216C196.976 162.668 197.841 162.893 198.907 162.893C200.006 162.893 200.888 162.668 201.553 162.216C202.226 161.764 202.563 161.206 202.563 160.541C202.563 159.979 202.346 159.514 201.911 159.148C201.485 158.781 200.82 158.5 199.917 158.304L196.567 157.601C194.684 157.209 193.29 156.548 192.387 155.619C191.483 154.682 191.036 153.497 191.045 152.065C191.036 150.855 191.364 149.807 192.029 148.92C192.702 148.026 193.635 147.335 194.829 146.849C196.03 146.355 197.415 146.108 198.983 146.108C201.285 146.108 203.096 146.598 204.417 147.578C205.746 148.558 206.569 149.884 206.884 151.554ZM215.75 154.494V166H211.122V139.818H215.648V149.7H215.878C216.338 148.592 217.05 147.719 218.013 147.08C218.984 146.432 220.22 146.108 221.72 146.108C223.084 146.108 224.273 146.393 225.287 146.964C226.301 147.536 227.085 148.371 227.639 149.47C228.202 150.57 228.483 151.912 228.483 153.497V166H223.855V154.213C223.855 152.892 223.514 151.865 222.832 151.132C222.159 150.391 221.213 150.02 219.994 150.02C219.176 150.02 218.443 150.199 217.795 150.557C217.156 150.906 216.653 151.413 216.287 152.078C215.929 152.743 215.75 153.548 215.75 154.494ZM233.2 166V146.364H237.828V166H233.2ZM235.527 143.577C234.794 143.577 234.163 143.334 233.635 142.848C233.106 142.354 232.842 141.761 232.842 141.071C232.842 140.372 233.106 139.78 233.635 139.294C234.163 138.8 234.794 138.553 235.527 138.553C236.268 138.553 236.899 138.8 237.419 139.294C237.947 139.78 238.211 140.372 238.211 141.071C238.211 141.761 237.947 142.354 237.419 142.848C236.899 143.334 236.268 143.577 235.527 143.577ZM247.215 154.494V166H242.587V146.364H247.01V149.7H247.24C247.692 148.601 248.412 147.727 249.401 147.08C250.398 146.432 251.629 146.108 253.095 146.108C254.45 146.108 255.631 146.398 256.637 146.977C257.651 147.557 258.435 148.396 258.989 149.496C259.551 150.595 259.828 151.929 259.82 153.497V166H255.192V154.213C255.192 152.901 254.851 151.874 254.169 151.132C253.496 150.391 252.563 150.02 251.369 150.02C250.56 150.02 249.84 150.199 249.209 150.557C248.587 150.906 248.097 151.413 247.739 152.078C247.389 152.743 247.215 153.548 247.215 154.494ZM273.064 173.773C271.402 173.773 269.975 173.547 268.781 173.095C267.588 172.652 266.629 172.055 265.905 171.305C265.181 170.555 264.678 169.724 264.396 168.812L268.564 167.803C268.752 168.186 269.024 168.565 269.382 168.94C269.74 169.324 270.222 169.639 270.827 169.886C271.441 170.142 272.212 170.27 273.141 170.27C274.453 170.27 275.54 169.95 276.401 169.311C277.262 168.68 277.692 167.641 277.692 166.192V162.472H277.462C277.223 162.949 276.874 163.439 276.414 163.942C275.962 164.445 275.361 164.866 274.611 165.207C273.869 165.548 272.936 165.719 271.811 165.719C270.303 165.719 268.935 165.365 267.708 164.658C266.489 163.942 265.517 162.876 264.793 161.462C264.077 160.038 263.719 158.257 263.719 156.118C263.719 153.962 264.077 152.142 264.793 150.659C265.517 149.168 266.493 148.038 267.72 147.271C268.948 146.496 270.316 146.108 271.824 146.108C272.975 146.108 273.921 146.304 274.662 146.696C275.412 147.08 276.009 147.544 276.452 148.089C276.895 148.626 277.232 149.134 277.462 149.611H277.718V146.364H282.281V166.32C282.281 167.999 281.881 169.388 281.08 170.487C280.279 171.587 279.183 172.409 277.794 172.955C276.405 173.5 274.828 173.773 273.064 173.773ZM273.102 162.088C274.083 162.088 274.918 161.849 275.608 161.372C276.298 160.895 276.823 160.209 277.181 159.314C277.539 158.419 277.718 157.345 277.718 156.092C277.718 154.857 277.539 153.774 277.181 152.845C276.831 151.916 276.311 151.196 275.621 150.685C274.939 150.165 274.1 149.905 273.102 149.905C272.071 149.905 271.21 150.173 270.52 150.71C269.83 151.247 269.31 151.984 268.96 152.922C268.611 153.851 268.436 154.908 268.436 156.092C268.436 157.294 268.611 158.347 268.96 159.25C269.318 160.145 269.843 160.844 270.533 161.347C271.232 161.841 272.088 162.088 273.102 162.088ZM296.159 139.818H301.963L309.735 158.79H310.042L317.815 139.818H323.619V166H319.068V148.013H318.825L311.589 165.923H308.188L300.953 147.974H300.71V166H296.159V139.818ZM334.23 166.396C332.985 166.396 331.865 166.175 330.867 165.732C329.879 165.28 329.095 164.615 328.515 163.737C327.944 162.859 327.659 161.777 327.659 160.49C327.659 159.382 327.863 158.466 328.272 157.741C328.681 157.017 329.24 156.438 329.947 156.003C330.654 155.568 331.451 155.24 332.338 155.018C333.232 154.788 334.157 154.622 335.112 154.52C336.262 154.401 337.195 154.294 337.911 154.2C338.627 154.098 339.147 153.945 339.471 153.74C339.803 153.527 339.97 153.199 339.97 152.756V152.679C339.97 151.716 339.684 150.97 339.113 150.442C338.542 149.913 337.72 149.649 336.646 149.649C335.512 149.649 334.613 149.896 333.948 150.391C333.292 150.885 332.849 151.469 332.619 152.142L328.298 151.528C328.639 150.335 329.201 149.338 329.985 148.537C330.769 147.727 331.728 147.122 332.862 146.722C333.995 146.312 335.248 146.108 336.62 146.108C337.566 146.108 338.508 146.219 339.445 146.44C340.383 146.662 341.24 147.028 342.015 147.54C342.791 148.043 343.413 148.729 343.882 149.598C344.359 150.467 344.597 151.554 344.597 152.858V166H340.149V163.303H339.995C339.714 163.848 339.318 164.359 338.806 164.837C338.303 165.305 337.669 165.685 336.901 165.974C336.143 166.256 335.252 166.396 334.23 166.396ZM335.431 162.996C336.36 162.996 337.166 162.812 337.847 162.446C338.529 162.071 339.053 161.577 339.42 160.963C339.795 160.349 339.982 159.68 339.982 158.956V156.642C339.838 156.761 339.59 156.872 339.241 156.974C338.9 157.077 338.517 157.166 338.09 157.243C337.664 157.32 337.242 157.388 336.825 157.447C336.407 157.507 336.045 157.558 335.738 157.601C335.048 157.695 334.43 157.848 333.884 158.061C333.339 158.274 332.909 158.572 332.593 158.956C332.278 159.331 332.12 159.817 332.12 160.413C332.12 161.266 332.431 161.909 333.053 162.344C333.676 162.778 334.468 162.996 335.431 162.996ZM349.251 166V146.364H353.879V166H349.251ZM351.578 143.577C350.845 143.577 350.214 143.334 349.686 142.848C349.157 142.354 348.893 141.761 348.893 141.071C348.893 140.372 349.157 139.78 349.686 139.294C350.214 138.8 350.845 138.553 351.578 138.553C352.319 138.553 352.95 138.8 353.47 139.294C353.998 139.78 354.262 140.372 354.262 141.071C354.262 141.761 353.998 142.354 353.47 142.848C352.95 143.334 352.319 143.577 351.578 143.577ZM363.265 139.818V166H358.638V139.818H363.265ZM181.21 210H172.338V183.818H181.389C183.989 183.818 186.222 184.342 188.088 185.391C189.963 186.43 191.404 187.926 192.409 189.878C193.415 191.83 193.918 194.165 193.918 196.884C193.918 199.611 193.411 201.955 192.396 203.915C191.391 205.875 189.938 207.379 188.037 208.428C186.145 209.476 183.869 210 181.21 210ZM177.081 205.896H180.98C182.804 205.896 184.325 205.564 185.544 204.899C186.763 204.226 187.679 203.224 188.293 201.895C188.906 200.557 189.213 198.886 189.213 196.884C189.213 194.881 188.906 193.219 188.293 191.898C187.679 190.568 186.771 189.575 185.57 188.919C184.377 188.254 182.894 187.922 181.121 187.922H177.081V205.896ZM206.913 210.384C204.944 210.384 203.244 209.974 201.812 209.156C200.389 208.33 199.294 207.162 198.526 205.653C197.759 204.136 197.376 202.351 197.376 200.297C197.376 198.277 197.759 196.504 198.526 194.979C199.302 193.445 200.384 192.251 201.774 191.399C203.163 190.538 204.795 190.108 206.67 190.108C207.88 190.108 209.022 190.304 210.096 190.696C211.178 191.08 212.133 191.676 212.96 192.486C213.795 193.295 214.451 194.327 214.928 195.58C215.406 196.824 215.644 198.307 215.644 200.028V201.447H199.549V198.328H211.208C211.2 197.442 211.008 196.653 210.633 195.963C210.258 195.264 209.734 194.714 209.061 194.314C208.396 193.913 207.62 193.713 206.734 193.713C205.788 193.713 204.957 193.943 204.241 194.403C203.525 194.855 202.967 195.452 202.566 196.193C202.174 196.926 201.974 197.732 201.965 198.609V201.332C201.965 202.474 202.174 203.455 202.592 204.273C203.009 205.082 203.593 205.705 204.343 206.139C205.093 206.565 205.971 206.778 206.977 206.778C207.65 206.778 208.259 206.685 208.805 206.497C209.35 206.301 209.823 206.016 210.224 205.641C210.624 205.266 210.927 204.801 211.132 204.247L215.453 204.733C215.18 205.875 214.66 206.872 213.893 207.724C213.134 208.568 212.163 209.224 210.978 209.693C209.794 210.153 208.438 210.384 206.913 210.384ZM229.365 190.364V193.943H218.077V190.364H229.365ZM220.863 185.659H225.491V204.094C225.491 204.716 225.585 205.193 225.773 205.526C225.969 205.849 226.224 206.071 226.54 206.19C226.855 206.31 227.204 206.369 227.588 206.369C227.878 206.369 228.142 206.348 228.381 206.305C228.628 206.263 228.815 206.224 228.943 206.19L229.723 209.808C229.476 209.893 229.122 209.987 228.662 210.089C228.21 210.192 227.656 210.251 227 210.268C225.841 210.303 224.797 210.128 223.868 209.744C222.939 209.352 222.202 208.747 221.656 207.929C221.119 207.111 220.855 206.088 220.863 204.861V185.659ZM241.718 210.384C239.749 210.384 238.048 209.974 236.617 209.156C235.193 208.33 234.098 207.162 233.331 205.653C232.564 204.136 232.181 202.351 232.181 200.297C232.181 198.277 232.564 196.504 233.331 194.979C234.107 193.445 235.189 192.251 236.578 191.399C237.968 190.538 239.6 190.108 241.475 190.108C242.685 190.108 243.827 190.304 244.901 190.696C245.983 191.08 246.938 191.676 247.764 192.486C248.6 193.295 249.256 194.327 249.733 195.58C250.21 196.824 250.449 198.307 250.449 200.028V201.447H234.354V198.328H246.013C246.004 197.442 245.813 196.653 245.438 195.963C245.063 195.264 244.539 194.714 243.865 194.314C243.2 193.913 242.425 193.713 241.539 193.713C240.593 193.713 239.762 193.943 239.046 194.403C238.33 194.855 237.771 195.452 237.371 196.193C236.979 196.926 236.779 197.732 236.77 198.609V201.332C236.77 202.474 236.979 203.455 237.396 204.273C237.814 205.082 238.398 205.705 239.148 206.139C239.898 206.565 240.776 206.778 241.781 206.778C242.455 206.778 243.064 206.685 243.61 206.497C244.155 206.301 244.628 206.016 245.029 205.641C245.429 205.266 245.732 204.801 245.936 204.247L250.257 204.733C249.985 205.875 249.465 206.872 248.698 207.724C247.939 208.568 246.968 209.224 245.783 209.693C244.598 210.153 243.243 210.384 241.718 210.384ZM262.93 210.384C260.969 210.384 259.286 209.953 257.88 209.092C256.482 208.232 255.404 207.043 254.645 205.526C253.895 204 253.52 202.244 253.52 200.259C253.52 198.264 253.904 196.504 254.671 194.979C255.438 193.445 256.52 192.251 257.918 191.399C259.324 190.538 260.986 190.108 262.904 190.108C264.498 190.108 265.908 190.402 267.135 190.99C268.371 191.57 269.356 192.392 270.089 193.457C270.822 194.514 271.239 195.75 271.341 197.165H266.918C266.739 196.219 266.313 195.43 265.64 194.8C264.975 194.161 264.084 193.841 262.968 193.841C262.022 193.841 261.191 194.097 260.475 194.608C259.759 195.111 259.201 195.835 258.8 196.781C258.408 197.727 258.212 198.861 258.212 200.182C258.212 201.52 258.408 202.67 258.8 203.634C259.192 204.588 259.742 205.325 260.449 205.845C261.165 206.357 262.005 206.612 262.968 206.612C263.65 206.612 264.259 206.484 264.796 206.229C265.341 205.964 265.797 205.585 266.164 205.091C266.53 204.597 266.782 203.996 266.918 203.288H271.341C271.231 204.678 270.822 205.909 270.114 206.983C269.407 208.048 268.444 208.884 267.225 209.489C266.006 210.085 264.574 210.384 262.93 210.384ZM284.947 190.364V193.943H273.659V190.364H284.947ZM276.445 185.659H281.073V204.094C281.073 204.716 281.167 205.193 281.355 205.526C281.551 205.849 281.806 206.071 282.122 206.19C282.437 206.31 282.786 206.369 283.17 206.369C283.46 206.369 283.724 206.348 283.963 206.305C284.21 206.263 284.397 206.224 284.525 206.19L285.305 209.808C285.058 209.893 284.704 209.987 284.244 210.089C283.792 210.192 283.238 210.251 282.582 210.268C281.423 210.303 280.379 210.128 279.45 209.744C278.521 209.352 277.784 208.747 277.238 207.929C276.701 207.111 276.437 206.088 276.445 204.861V185.659ZM297.3 210.384C295.331 210.384 293.631 209.974 292.199 209.156C290.775 208.33 289.68 207.162 288.913 205.653C288.146 204.136 287.763 202.351 287.763 200.297C287.763 198.277 288.146 196.504 288.913 194.979C289.689 193.445 290.771 192.251 292.16 191.399C293.55 190.538 295.182 190.108 297.057 190.108C298.267 190.108 299.409 190.304 300.483 190.696C301.565 191.08 302.52 191.676 303.346 192.486C304.182 193.295 304.838 194.327 305.315 195.58C305.792 196.824 306.031 198.307 306.031 200.028V201.447H289.936V198.328H301.595C301.586 197.442 301.395 196.653 301.02 195.963C300.645 195.264 300.121 194.714 299.447 194.314C298.782 193.913 298.007 193.713 297.121 193.713C296.175 193.713 295.344 193.943 294.628 194.403C293.912 194.855 293.354 195.452 292.953 196.193C292.561 196.926 292.361 197.732 292.352 198.609V201.332C292.352 202.474 292.561 203.455 292.979 204.273C293.396 205.082 293.98 205.705 294.73 206.139C295.48 206.565 296.358 206.778 297.363 206.778C298.037 206.778 298.646 206.685 299.192 206.497C299.737 206.301 300.21 206.016 300.611 205.641C301.011 205.266 301.314 204.801 301.518 204.247L305.839 204.733C305.567 205.875 305.047 206.872 304.28 207.724C303.521 208.568 302.55 209.224 301.365 209.693C300.18 210.153 298.825 210.384 297.3 210.384ZM317.233 210.345C315.691 210.345 314.31 209.949 313.091 209.156C311.872 208.364 310.909 207.213 310.202 205.705C309.494 204.196 309.141 202.364 309.141 200.207C309.141 198.026 309.499 196.185 310.215 194.685C310.939 193.176 311.915 192.038 313.142 191.271C314.369 190.496 315.737 190.108 317.246 190.108C318.396 190.108 319.343 190.304 320.084 190.696C320.825 191.08 321.414 191.544 321.848 192.089C322.283 192.626 322.619 193.134 322.858 193.611H323.05V183.818H327.691V210H323.139V206.906H322.858C322.619 207.384 322.274 207.891 321.823 208.428C321.371 208.956 320.774 209.408 320.033 209.783C319.291 210.158 318.358 210.345 317.233 210.345ZM318.524 206.548C319.504 206.548 320.34 206.284 321.03 205.756C321.72 205.219 322.244 204.473 322.602 203.518C322.96 202.564 323.139 201.452 323.139 200.182C323.139 198.912 322.96 197.808 322.602 196.871C322.253 195.933 321.733 195.205 321.043 194.685C320.361 194.165 319.521 193.905 318.524 193.905C317.493 193.905 316.632 194.173 315.942 194.71C315.252 195.247 314.732 195.989 314.382 196.935C314.033 197.881 313.858 198.963 313.858 200.182C313.858 201.409 314.033 202.504 314.382 203.467C314.74 204.422 315.264 205.176 315.955 205.73C316.654 206.276 317.51 206.548 318.524 206.548Z" fill="white"/>
<path d="M168.435 252V237.455H177.895V239.663H171.07V243.612H177.405V245.821H171.07V249.791H177.952V252H168.435ZM182.572 241.091L184.773 245.118L187.011 241.091H189.731L186.442 246.545L189.788 252H187.082L184.773 248.072L182.487 252H179.759L183.083 246.545L179.844 241.091H182.572ZM196.068 252.213C194.979 252.213 194.044 251.974 193.262 251.496C192.486 251.018 191.887 250.357 191.466 249.514C191.049 248.667 190.841 247.691 190.841 246.588C190.841 245.48 191.054 244.502 191.48 243.655C191.906 242.803 192.507 242.14 193.284 241.666C194.065 241.188 194.988 240.949 196.054 240.949C196.939 240.949 197.723 241.112 198.404 241.439C199.091 241.761 199.638 242.218 200.045 242.81C200.452 243.397 200.684 244.083 200.741 244.869H198.284C198.184 244.344 197.948 243.906 197.574 243.555C197.204 243.2 196.709 243.023 196.089 243.023C195.564 243.023 195.102 243.165 194.704 243.449C194.306 243.728 193.996 244.131 193.774 244.656C193.556 245.182 193.447 245.812 193.447 246.545C193.447 247.289 193.556 247.928 193.774 248.463C193.992 248.993 194.297 249.403 194.69 249.692C195.088 249.976 195.554 250.118 196.089 250.118C196.468 250.118 196.806 250.047 197.105 249.905C197.408 249.758 197.661 249.547 197.865 249.273C198.068 248.998 198.208 248.664 198.284 248.271H200.741C200.68 249.043 200.452 249.727 200.059 250.324C199.666 250.916 199.131 251.38 198.454 251.716C197.777 252.047 196.982 252.213 196.068 252.213ZM207.682 252.213C206.588 252.213 205.643 251.986 204.848 251.531C204.057 251.072 203.449 250.423 203.023 249.585C202.597 248.742 202.384 247.75 202.384 246.609C202.384 245.487 202.597 244.502 203.023 243.655C203.454 242.803 204.055 242.14 204.827 241.666C205.598 241.188 206.505 240.949 207.547 240.949C208.219 240.949 208.854 241.058 209.45 241.276C210.052 241.489 210.582 241.82 211.041 242.27C211.505 242.72 211.87 243.293 212.135 243.989C212.4 244.68 212.533 245.504 212.533 246.46V247.249H203.591V245.516H210.068C210.063 245.023 209.957 244.585 209.749 244.202C209.54 243.813 209.249 243.508 208.875 243.286C208.506 243.063 208.075 242.952 207.582 242.952C207.057 242.952 206.595 243.08 206.197 243.335C205.8 243.586 205.49 243.918 205.267 244.33C205.049 244.737 204.938 245.184 204.933 245.672V247.185C204.933 247.819 205.049 248.364 205.281 248.818C205.513 249.268 205.838 249.614 206.254 249.855C206.671 250.092 207.159 250.21 207.717 250.21C208.091 250.21 208.43 250.158 208.733 250.054C209.036 249.945 209.299 249.786 209.521 249.578C209.744 249.37 209.912 249.112 210.026 248.804L212.426 249.074C212.275 249.708 211.986 250.262 211.56 250.736C211.138 251.205 210.598 251.569 209.94 251.83C209.282 252.085 208.529 252.213 207.682 252.213ZM217.279 237.455V252H214.708V237.455H217.279ZM224.592 249.301V247.206L230.764 237.455H232.511V240.438H231.446L227.291 247.021V247.135H235.906V249.301H224.592ZM231.531 252V248.662L231.56 247.724V237.455H234.045V252H231.531ZM239.377 252.156C238.947 252.156 238.577 252.005 238.27 251.702C237.962 251.399 237.81 251.029 237.815 250.594C237.81 250.168 237.962 249.803 238.27 249.5C238.577 249.197 238.947 249.045 239.377 249.045C239.794 249.045 240.156 249.197 240.464 249.5C240.777 249.803 240.935 250.168 240.94 250.594C240.935 250.883 240.859 251.145 240.713 251.382C240.571 251.619 240.381 251.808 240.145 251.95C239.913 252.088 239.657 252.156 239.377 252.156ZM248.376 252.277C247.207 252.277 246.203 251.981 245.365 251.389C244.531 250.793 243.89 249.933 243.44 248.811C242.995 247.684 242.772 246.328 242.772 244.741C242.777 243.155 243.002 241.806 243.447 240.693C243.897 239.576 244.538 238.723 245.372 238.136C246.21 237.549 247.211 237.256 248.376 237.256C249.541 237.256 250.542 237.549 251.38 238.136C252.218 238.723 252.86 239.576 253.305 240.693C253.755 241.811 253.98 243.16 253.98 244.741C253.98 246.332 253.755 247.691 253.305 248.818C252.86 249.94 252.218 250.797 251.38 251.389C250.547 251.981 249.546 252.277 248.376 252.277ZM248.376 250.054C249.285 250.054 250.002 249.607 250.528 248.712C251.058 247.812 251.324 246.489 251.324 244.741C251.324 243.586 251.203 242.616 250.961 241.83C250.72 241.044 250.379 240.452 249.939 240.054C249.498 239.652 248.977 239.45 248.376 239.45C247.472 239.45 246.757 239.9 246.231 240.8C245.706 241.695 245.44 243.009 245.436 244.741C245.431 245.902 245.547 246.877 245.784 247.668C246.025 248.458 246.366 249.055 246.806 249.457C247.247 249.855 247.77 250.054 248.376 250.054ZM261.442 237.455H264.667L268.985 247.994H269.156L273.474 237.455H276.698V252H274.17V242.007H274.035L270.015 251.957H268.126L264.106 241.986H263.971V252H261.442V237.455ZM282.593 252.22C281.902 252.22 281.279 252.097 280.725 251.851C280.176 251.6 279.74 251.231 279.418 250.743C279.101 250.255 278.942 249.654 278.942 248.939C278.942 248.323 279.056 247.814 279.283 247.412C279.511 247.009 279.821 246.688 280.214 246.446C280.607 246.205 281.049 246.022 281.542 245.899C282.039 245.771 282.553 245.679 283.083 245.622C283.722 245.556 284.241 245.497 284.638 245.445C285.036 245.388 285.325 245.303 285.505 245.189C285.69 245.071 285.782 244.888 285.782 244.642V244.599C285.782 244.064 285.623 243.65 285.306 243.357C284.989 243.063 284.532 242.916 283.935 242.916C283.306 242.916 282.806 243.054 282.437 243.328C282.072 243.603 281.826 243.927 281.698 244.301L279.298 243.96C279.487 243.297 279.799 242.743 280.235 242.298C280.671 241.848 281.203 241.512 281.833 241.29C282.463 241.062 283.159 240.949 283.921 240.949C284.447 240.949 284.97 241.01 285.491 241.134C286.012 241.257 286.487 241.46 286.918 241.744C287.349 242.024 287.695 242.405 287.955 242.888C288.22 243.371 288.353 243.974 288.353 244.699V252H285.881V250.501H285.796C285.64 250.804 285.42 251.089 285.136 251.354C284.856 251.614 284.504 251.825 284.077 251.986C283.656 252.142 283.161 252.22 282.593 252.22ZM283.261 250.331C283.777 250.331 284.224 250.229 284.603 250.026C284.982 249.817 285.273 249.543 285.477 249.202C285.685 248.861 285.789 248.489 285.789 248.087V246.801C285.709 246.867 285.571 246.929 285.377 246.986C285.188 247.043 284.975 247.092 284.738 247.135C284.501 247.178 284.267 247.215 284.035 247.249C283.803 247.282 283.602 247.31 283.431 247.334C283.048 247.386 282.704 247.471 282.401 247.589C282.098 247.708 281.859 247.874 281.684 248.087C281.509 248.295 281.421 248.565 281.421 248.896C281.421 249.37 281.594 249.727 281.94 249.969C282.285 250.21 282.726 250.331 283.261 250.331ZM295.697 252.213C294.608 252.213 293.673 251.974 292.891 251.496C292.115 251.018 291.516 250.357 291.094 249.514C290.678 248.667 290.469 247.691 290.469 246.588C290.469 245.48 290.683 244.502 291.109 243.655C291.535 242.803 292.136 242.14 292.913 241.666C293.694 241.188 294.617 240.949 295.683 240.949C296.568 240.949 297.352 241.112 298.033 241.439C298.72 241.761 299.267 242.218 299.674 242.81C300.081 243.397 300.313 244.083 300.37 244.869H297.913C297.813 244.344 297.576 243.906 297.202 243.555C296.833 243.2 296.338 243.023 295.718 243.023C295.192 243.023 294.731 243.165 294.333 243.449C293.935 243.728 293.625 244.131 293.403 244.656C293.185 245.182 293.076 245.812 293.076 246.545C293.076 247.289 293.185 247.928 293.403 248.463C293.621 248.993 293.926 249.403 294.319 249.692C294.717 249.976 295.183 250.118 295.718 250.118C296.097 250.118 296.435 250.047 296.734 249.905C297.037 249.758 297.29 249.547 297.494 249.273C297.697 248.998 297.837 248.664 297.913 248.271H300.37C300.308 249.043 300.081 249.727 299.688 250.324C299.295 250.916 298.76 251.38 298.083 251.716C297.406 252.047 296.611 252.213 295.697 252.213ZM302.481 252V241.091H304.974V242.909H305.088C305.287 242.279 305.627 241.794 306.11 241.453C306.598 241.107 307.154 240.935 307.779 240.935C307.922 240.935 308.08 240.942 308.255 240.956C308.435 240.965 308.584 240.982 308.703 241.006V243.371C308.594 243.333 308.421 243.3 308.184 243.271C307.952 243.238 307.727 243.222 307.51 243.222C307.041 243.222 306.619 243.323 306.245 243.527C305.876 243.726 305.585 244.003 305.372 244.358C305.159 244.713 305.052 245.123 305.052 245.587V252H302.481ZM314.72 252.213C313.655 252.213 312.732 251.979 311.95 251.51C311.169 251.041 310.563 250.385 310.132 249.543C309.706 248.7 309.493 247.715 309.493 246.588C309.493 245.461 309.706 244.474 310.132 243.626C310.563 242.779 311.169 242.121 311.95 241.652C312.732 241.183 313.655 240.949 314.72 240.949C315.786 240.949 316.709 241.183 317.49 241.652C318.271 242.121 318.875 242.779 319.301 243.626C319.732 244.474 319.947 245.461 319.947 246.588C319.947 247.715 319.732 248.7 319.301 249.543C318.875 250.385 318.271 251.041 317.49 251.51C316.709 251.979 315.786 252.213 314.72 252.213ZM314.734 250.153C315.312 250.153 315.795 249.995 316.183 249.678C316.571 249.356 316.86 248.925 317.05 248.385C317.244 247.845 317.341 247.244 317.341 246.581C317.341 245.913 317.244 245.31 317.05 244.77C316.86 244.225 316.571 243.792 316.183 243.47C315.795 243.148 315.312 242.987 314.734 242.987C314.143 242.987 313.65 243.148 313.257 243.47C312.869 243.792 312.578 244.225 312.384 244.77C312.194 245.31 312.099 245.913 312.099 246.581C312.099 247.244 312.194 247.845 312.384 248.385C312.578 248.925 312.869 249.356 313.257 249.678C313.65 249.995 314.143 250.153 314.734 250.153ZM330.752 243.974L328.408 244.23C328.342 243.993 328.226 243.771 328.06 243.562C327.899 243.354 327.681 243.186 327.407 243.058C327.132 242.93 326.796 242.866 326.398 242.866C325.863 242.866 325.413 242.982 325.049 243.214C324.689 243.446 324.511 243.747 324.516 244.116C324.511 244.434 324.627 244.692 324.864 244.891C325.105 245.089 325.503 245.253 326.057 245.381L327.918 245.778C328.95 246.001 329.717 246.354 330.219 246.837C330.726 247.32 330.981 247.952 330.986 248.733C330.981 249.42 330.78 250.026 330.382 250.551C329.989 251.072 329.443 251.479 328.742 251.773C328.041 252.066 327.236 252.213 326.327 252.213C324.992 252.213 323.917 251.934 323.103 251.375C322.288 250.812 321.803 250.028 321.647 249.024L324.154 248.783C324.267 249.275 324.509 249.647 324.878 249.898C325.248 250.149 325.728 250.274 326.32 250.274C326.931 250.274 327.421 250.149 327.79 249.898C328.164 249.647 328.351 249.337 328.351 248.967C328.351 248.655 328.23 248.397 327.989 248.193C327.752 247.99 327.383 247.833 326.881 247.724L325.02 247.334C323.974 247.116 323.2 246.749 322.698 246.233C322.196 245.712 321.947 245.054 321.952 244.259C321.947 243.586 322.13 243.004 322.499 242.511C322.873 242.014 323.391 241.631 324.054 241.361C324.722 241.086 325.491 240.949 326.363 240.949C327.641 240.949 328.647 241.221 329.381 241.766C330.12 242.31 330.577 243.046 330.752 243.974Z" fill="#292D32"/>
<path d="M219.339 101.453C219.273 100.833 218.994 100.35 218.501 100.004C218.014 99.6586 217.379 99.4858 216.598 99.4858C216.049 99.4858 215.578 99.5687 215.185 99.7344C214.792 99.9001 214.491 100.125 214.283 100.409C214.074 100.693 213.968 101.018 213.963 101.382C213.963 101.685 214.032 101.948 214.169 102.17C214.311 102.393 214.503 102.582 214.744 102.739C214.986 102.89 215.253 103.018 215.547 103.122C215.84 103.226 216.136 103.314 216.435 103.385L217.798 103.726C218.348 103.854 218.875 104.027 219.382 104.244C219.893 104.462 220.35 104.737 220.753 105.068C221.16 105.4 221.482 105.8 221.719 106.268C221.955 106.737 222.074 107.286 222.074 107.916C222.074 108.768 221.856 109.519 221.42 110.168C220.985 110.812 220.355 111.316 219.531 111.68C218.712 112.04 217.72 112.22 216.555 112.22C215.424 112.22 214.441 112.045 213.608 111.695C212.779 111.344 212.131 110.833 211.662 110.161C211.198 109.488 210.947 108.669 210.909 107.703H213.501C213.539 108.21 213.696 108.631 213.97 108.967C214.245 109.304 214.602 109.554 215.043 109.72C215.488 109.886 215.985 109.969 216.534 109.969C217.107 109.969 217.609 109.884 218.04 109.713C218.475 109.538 218.816 109.296 219.062 108.989C219.309 108.676 219.434 108.312 219.439 107.895C219.434 107.516 219.323 107.204 219.105 106.957C218.887 106.706 218.582 106.498 218.189 106.332C217.801 106.162 217.346 106.01 216.825 105.878L215.17 105.452C213.973 105.144 213.026 104.678 212.33 104.053C211.638 103.423 211.293 102.587 211.293 101.545C211.293 100.688 211.525 99.938 211.989 99.294C212.457 98.6501 213.094 98.1506 213.899 97.7955C214.704 97.4356 215.616 97.2557 216.634 97.2557C217.666 97.2557 218.57 97.4356 219.347 97.7955C220.128 98.1506 220.741 98.6454 221.186 99.2798C221.631 99.9096 221.861 100.634 221.875 101.453H219.339ZM237.42 104.727C237.42 106.295 237.127 107.637 236.539 108.754C235.957 109.867 235.162 110.719 234.153 111.311C233.149 111.903 232.011 112.199 230.737 112.199C229.463 112.199 228.322 111.903 227.314 111.311C226.31 110.714 225.514 109.86 224.927 108.747C224.345 107.63 224.054 106.29 224.054 104.727C224.054 103.16 224.345 101.82 224.927 100.707C225.514 99.59 226.31 98.7353 227.314 98.1435C228.322 97.5516 229.463 97.2557 230.737 97.2557C232.011 97.2557 233.149 97.5516 234.153 98.1435C235.162 98.7353 235.957 99.59 236.539 100.707C237.127 101.82 237.42 103.16 237.42 104.727ZM234.771 104.727C234.771 103.624 234.598 102.694 234.252 101.936C233.912 101.174 233.438 100.598 232.832 100.21C232.226 99.8172 231.528 99.6207 230.737 99.6207C229.946 99.6207 229.248 99.8172 228.642 100.21C228.036 100.598 227.56 101.174 227.214 101.936C226.873 102.694 226.703 103.624 226.703 104.727C226.703 105.83 226.873 106.763 227.214 107.526C227.56 108.283 228.036 108.858 228.642 109.251C229.248 109.64 229.946 109.834 230.737 109.834C231.528 109.834 232.226 109.64 232.832 109.251C233.438 108.858 233.912 108.283 234.252 107.526C234.598 106.763 234.771 105.83 234.771 104.727ZM252.362 102.362H249.705C249.629 101.927 249.49 101.541 249.286 101.205C249.083 100.864 248.829 100.575 248.526 100.338C248.223 100.101 247.878 99.9238 247.489 99.8054C247.106 99.6823 246.692 99.6207 246.246 99.6207C245.456 99.6207 244.755 99.8196 244.144 100.217C243.533 100.61 243.055 101.188 242.71 101.95C242.364 102.708 242.191 103.634 242.191 104.727C242.191 105.84 242.364 106.777 242.71 107.54C243.06 108.297 243.538 108.87 244.144 109.259C244.755 109.642 245.453 109.834 246.239 109.834C246.675 109.834 247.082 109.777 247.461 109.663C247.844 109.545 248.188 109.372 248.491 109.145C248.799 108.918 249.057 108.638 249.265 108.307C249.478 107.975 249.625 107.597 249.705 107.17L252.362 107.185C252.262 107.876 252.047 108.525 251.715 109.131C251.388 109.737 250.96 110.272 250.43 110.736C249.899 111.195 249.279 111.555 248.569 111.815C247.859 112.071 247.07 112.199 246.204 112.199C244.925 112.199 243.784 111.903 242.781 111.311C241.777 110.719 240.986 109.865 240.408 108.747C239.831 107.63 239.542 106.29 239.542 104.727C239.542 103.16 239.833 101.82 240.415 100.707C240.998 99.59 241.791 98.7353 242.795 98.1435C243.799 97.5516 244.935 97.2557 246.204 97.2557C247.013 97.2557 247.766 97.3693 248.462 97.5966C249.158 97.8239 249.779 98.1577 250.323 98.598C250.868 99.0336 251.315 99.5687 251.665 100.203C252.021 100.833 252.253 101.553 252.362 102.362ZM260.549 97.4545V112H257.914V100.018H257.828L254.426 102.192V99.777L258.042 97.4545H260.549ZM263.979 109.301V107.206L270.151 97.4545H271.898V100.438H270.833L266.678 107.021V107.135H275.293V109.301H263.979ZM270.918 112V108.662L270.946 107.724V97.4545H273.432V112H270.918ZM282.889 112.199C282.193 112.194 281.513 112.073 280.85 111.837C280.188 111.595 279.591 111.205 279.061 110.665C278.53 110.12 278.109 109.398 277.797 108.499C277.484 107.594 277.33 106.474 277.335 105.139C277.335 103.894 277.467 102.784 277.733 101.808C277.998 100.833 278.379 100.009 278.876 99.3366C279.373 98.6596 279.972 98.1435 280.673 97.7884C281.378 97.4332 282.167 97.2557 283.038 97.2557C283.952 97.2557 284.761 97.4356 285.467 97.7955C286.177 98.1553 286.75 98.6477 287.186 99.2727C287.621 99.893 287.891 100.594 287.995 101.375H285.403C285.27 100.816 284.998 100.371 284.586 100.04C284.179 99.7036 283.663 99.5355 283.038 99.5355C282.029 99.5355 281.253 99.9735 280.708 100.849C280.169 101.725 279.896 102.928 279.892 104.457H279.991C280.223 104.041 280.524 103.683 280.893 103.385C281.262 103.087 281.679 102.857 282.143 102.696C282.612 102.53 283.107 102.447 283.627 102.447C284.48 102.447 285.244 102.651 285.922 103.058C286.603 103.465 287.143 104.027 287.541 104.741C287.939 105.452 288.135 106.266 288.13 107.185C288.135 108.141 287.917 109 287.477 109.763C287.037 110.52 286.423 111.117 285.637 111.553C284.851 111.988 283.935 112.204 282.889 112.199ZM282.875 110.068C283.391 110.068 283.852 109.943 284.26 109.692C284.667 109.441 284.989 109.102 285.225 108.676C285.462 108.25 285.578 107.772 285.574 107.241C285.578 106.721 285.465 106.25 285.233 105.828C285.005 105.407 284.69 105.073 284.288 104.827C283.886 104.58 283.426 104.457 282.91 104.457C282.527 104.457 282.169 104.531 281.838 104.678C281.506 104.824 281.217 105.028 280.971 105.288C280.725 105.544 280.531 105.842 280.389 106.183C280.252 106.519 280.181 106.879 280.176 107.263C280.181 107.769 280.299 108.236 280.531 108.662C280.763 109.088 281.083 109.429 281.49 109.685C281.897 109.94 282.359 110.068 282.875 110.068Z" fill="#292D32"/>
</g>
<defs>
<clipPath id="clip0_133_2">
<rect width="500" height="300" fill="white"/>
</clipPath>
</defs>
</svg>
