<svg width="300" height="300" viewBox="0 0 300 300" fill="none" xmlns="http://www.w3.org/2000/svg">
<g clip-path="url(#clip0_133_2)">
<rect width="300" height="300" fill="#FF6682"/>
<path d="M36.9359 166V139.818H46.7541C48.7654 139.818 50.4529 140.193 51.8166 140.943C53.1887 141.693 54.2243 142.724 54.9231 144.037C55.6305 145.341 55.9842 146.824 55.9842 148.486C55.9842 150.165 55.6305 151.656 54.9231 152.96C54.2157 154.264 53.1717 155.291 51.791 156.041C50.4103 156.783 48.71 157.153 46.6902 157.153H40.1831V153.254H46.051C47.2271 153.254 48.1902 153.05 48.9402 152.641C49.6902 152.232 50.2441 151.669 50.6021 150.953C50.9686 150.237 51.1518 149.415 51.1518 148.486C51.1518 147.557 50.9686 146.739 50.6021 146.031C50.2441 145.324 49.6859 144.774 48.9274 144.382C48.1774 143.982 47.2101 143.781 46.0254 143.781H41.6788V166H36.9359ZM64.5272 154.494V166H59.8993V139.818H64.4249V149.7H64.655C65.1152 148.592 65.8269 147.719 66.79 147.08C67.7615 146.432 68.9973 146.108 70.4973 146.108C71.861 146.108 73.0499 146.393 74.0641 146.964C75.0783 147.536 75.8624 148.371 76.4164 149.47C76.9789 150.57 77.2601 151.912 77.2601 153.497V166H72.6323V154.213C72.6323 152.892 72.2914 151.865 71.6096 151.132C70.9363 150.391 69.9902 150.02 68.7715 150.02C67.9533 150.02 67.2203 150.199 66.5726 150.557C65.9334 150.906 65.4306 151.413 65.0641 152.078C64.7061 152.743 64.5272 153.548 64.5272 154.494ZM81.9775 166V146.364H86.6053V166H81.9775ZM84.3042 143.577C83.5712 143.577 82.9405 143.334 82.4121 142.848C81.8837 142.354 81.6195 141.761 81.6195 141.071C81.6195 140.372 81.8837 139.78 82.4121 139.294C82.9405 138.8 83.5712 138.553 84.3042 138.553C85.0456 138.553 85.6763 138.8 86.1962 139.294C86.7246 139.78 86.9888 140.372 86.9888 141.071C86.9888 141.761 86.7246 142.354 86.1962 142.848C85.6763 143.334 85.0456 143.577 84.3042 143.577ZM106.884 151.554L102.665 152.014C102.546 151.588 102.337 151.188 102.039 150.812C101.749 150.438 101.357 150.135 100.863 149.905C100.368 149.675 99.7633 149.56 99.0474 149.56C98.0843 149.56 97.2747 149.768 96.6184 150.186C95.9707 150.604 95.6511 151.145 95.6596 151.81C95.6511 152.381 95.8599 152.845 96.286 153.203C96.7207 153.561 97.4366 153.855 98.4338 154.085L101.783 154.801C103.641 155.202 105.022 155.837 105.925 156.706C106.837 157.575 107.297 158.713 107.306 160.119C107.297 161.355 106.935 162.446 106.219 163.392C105.512 164.33 104.528 165.062 103.266 165.591C102.005 166.119 100.556 166.384 98.9196 166.384C96.5162 166.384 94.5815 165.881 93.1156 164.875C91.6497 163.861 90.7761 162.45 90.4949 160.643L95.0076 160.209C95.2122 161.095 95.6468 161.764 96.3116 162.216C96.9764 162.668 97.8414 162.893 98.9068 162.893C100.006 162.893 100.888 162.668 101.553 162.216C102.226 161.764 102.563 161.206 102.563 160.541C102.563 159.979 102.346 159.514 101.911 159.148C101.485 158.781 100.82 158.5 99.9167 158.304L96.5673 157.601C94.6838 157.209 93.2903 156.548 92.3869 155.619C91.4835 154.682 91.036 153.497 91.0446 152.065C91.036 150.855 91.3642 149.807 92.0289 148.92C92.7022 148.026 93.6355 147.335 94.8287 146.849C96.0304 146.355 97.4153 146.108 98.9835 146.108C101.285 146.108 103.096 146.598 104.417 147.578C105.746 148.558 106.569 149.884 106.884 151.554ZM115.75 154.494V166H111.122V139.818H115.648V149.7H115.878C116.338 148.592 117.05 147.719 118.013 147.08C118.984 146.432 120.22 146.108 121.72 146.108C123.084 146.108 124.273 146.393 125.287 146.964C126.301 147.536 127.085 148.371 127.639 149.47C128.202 150.57 128.483 151.912 128.483 153.497V166H123.855V154.213C123.855 152.892 123.514 151.865 122.832 151.132C122.159 150.391 121.213 150.02 119.994 150.02C119.176 150.02 118.443 150.199 117.795 150.557C117.156 150.906 116.653 151.413 116.287 152.078C115.929 152.743 115.75 153.548 115.75 154.494ZM133.2 166V146.364H137.828V166H133.2ZM135.527 143.577C134.794 143.577 134.163 143.334 133.635 142.848C133.106 142.354 132.842 141.761 132.842 141.071C132.842 140.372 133.106 139.78 133.635 139.294C134.163 138.8 134.794 138.553 135.527 138.553C136.268 138.553 136.899 138.8 137.419 139.294C137.947 139.78 138.211 140.372 138.211 141.071C138.211 141.761 137.947 142.354 137.419 142.848C136.899 143.334 136.268 143.577 135.527 143.577ZM147.215 154.494V166H142.587V146.364H147.01V149.7H147.24C147.692 148.601 148.412 147.727 149.401 147.08C150.398 146.432 151.629 146.108 153.095 146.108C154.45 146.108 155.631 146.398 156.637 146.977C157.651 147.557 158.435 148.396 158.989 149.496C159.551 150.595 159.828 151.929 159.82 153.497V166H155.192V154.213C155.192 152.901 154.851 151.874 154.169 151.132C153.496 150.391 152.563 150.02 151.369 150.02C150.56 150.02 149.84 150.199 149.209 150.557C148.587 150.906 148.097 151.413 147.739 152.078C147.389 152.743 147.215 153.548 147.215 154.494ZM173.064 173.773C171.402 173.773 169.975 173.547 168.781 173.095C167.588 172.652 166.629 172.055 165.905 171.305C165.181 170.555 164.678 169.724 164.396 168.812L168.564 167.803C168.752 168.186 169.024 168.565 169.382 168.94C169.74 169.324 170.222 169.639 170.827 169.886C171.441 170.142 172.212 170.27 173.141 170.27C174.453 170.27 175.54 169.95 176.401 169.311C177.262 168.68 177.692 167.641 177.692 166.192V162.472H177.462C177.223 162.949 176.874 163.439 176.414 163.942C175.962 164.445 175.361 164.866 174.611 165.207C173.869 165.548 172.936 165.719 171.811 165.719C170.303 165.719 168.935 165.365 167.708 164.658C166.489 163.942 165.517 162.876 164.793 161.462C164.077 160.038 163.719 158.257 163.719 156.118C163.719 153.962 164.077 152.142 164.793 150.659C165.517 149.168 166.493 148.038 167.72 147.271C168.948 146.496 170.316 146.108 171.824 146.108C172.975 146.108 173.921 146.304 174.662 146.696C175.412 147.08 176.009 147.544 176.452 148.089C176.895 148.626 177.232 149.134 177.462 149.611H177.718V146.364H182.281V166.32C182.281 167.999 181.881 169.388 181.08 170.487C180.279 171.587 179.183 172.409 177.794 172.955C176.405 173.5 174.828 173.773 173.064 173.773ZM173.102 162.088C174.083 162.088 174.918 161.849 175.608 161.372C176.298 160.895 176.823 160.209 177.181 159.314C177.539 158.419 177.718 157.345 177.718 156.092C177.718 154.857 177.539 153.774 177.181 152.845C176.831 151.916 176.311 151.196 175.621 150.685C174.939 150.165 174.1 149.905 173.102 149.905C172.071 149.905 171.21 150.173 170.52 150.71C169.83 151.247 169.31 151.984 168.96 152.922C168.611 153.851 168.436 154.908 168.436 156.092C168.436 157.294 168.611 158.347 168.96 159.25C169.318 160.145 169.843 160.844 170.533 161.347C171.232 161.841 172.088 162.088 173.102 162.088ZM196.159 139.818H201.963L209.735 158.79H210.042L217.815 139.818H223.619V166H219.068V148.013H218.825L211.589 165.923H208.188L200.953 147.974H200.71V166H196.159V139.818ZM234.23 166.396C232.985 166.396 231.865 166.175 230.867 165.732C229.879 165.28 229.095 164.615 228.515 163.737C227.944 162.859 227.659 161.777 227.659 160.49C227.659 159.382 227.863 158.466 228.272 157.741C228.681 157.017 229.24 156.438 229.947 156.003C230.654 155.568 231.451 155.24 232.338 155.018C233.232 154.788 234.157 154.622 235.112 154.52C236.262 154.401 237.195 154.294 237.911 154.2C238.627 154.098 239.147 153.945 239.471 153.74C239.803 153.527 239.97 153.199 239.97 152.756V152.679C239.97 151.716 239.684 150.97 239.113 150.442C238.542 149.913 237.72 149.649 236.646 149.649C235.512 149.649 234.613 149.896 233.948 150.391C233.292 150.885 232.849 151.469 232.619 152.142L228.298 151.528C228.639 150.335 229.201 149.338 229.985 148.537C230.769 147.727 231.728 147.122 232.862 146.722C233.995 146.312 235.248 146.108 236.62 146.108C237.566 146.108 238.508 146.219 239.445 146.44C240.383 146.662 241.24 147.028 242.015 147.54C242.791 148.043 243.413 148.729 243.882 149.598C244.359 150.467 244.597 151.554 244.597 152.858V166H240.149V163.303H239.995C239.714 163.848 239.318 164.359 238.806 164.837C238.303 165.305 237.669 165.685 236.901 165.974C236.143 166.256 235.252 166.396 234.23 166.396ZM235.431 162.996C236.36 162.996 237.166 162.812 237.847 162.446C238.529 162.071 239.053 161.577 239.42 160.963C239.795 160.349 239.982 159.68 239.982 158.956V156.642C239.838 156.761 239.59 156.872 239.241 156.974C238.9 157.077 238.517 157.166 238.09 157.243C237.664 157.32 237.242 157.388 236.825 157.447C236.407 157.507 236.045 157.558 235.738 157.601C235.048 157.695 234.43 157.848 233.884 158.061C233.339 158.274 232.909 158.572 232.593 158.956C232.278 159.331 232.12 159.817 232.12 160.413C232.12 161.266 232.431 161.909 233.053 162.344C233.676 162.778 234.468 162.996 235.431 162.996ZM249.251 166V146.364H253.879V166H249.251ZM251.578 143.577C250.845 143.577 250.214 143.334 249.686 142.848C249.157 142.354 248.893 141.761 248.893 141.071C248.893 140.372 249.157 139.78 249.686 139.294C250.214 138.8 250.845 138.553 251.578 138.553C252.319 138.553 252.95 138.8 253.47 139.294C253.998 139.78 254.262 140.372 254.262 141.071C254.262 141.761 253.998 142.354 253.47 142.848C252.95 143.334 252.319 143.577 251.578 143.577ZM263.265 139.818V166H258.638V139.818H263.265ZM81.2104 210H72.3382V183.818H81.3894C83.9888 183.818 86.2218 184.342 88.0882 185.391C89.9632 186.43 91.4036 187.926 92.4093 189.878C93.415 191.83 93.9178 194.165 93.9178 196.884C93.9178 199.611 93.4107 201.955 92.3965 203.915C91.3908 205.875 89.9377 207.379 88.0371 208.428C86.1451 209.476 83.8695 210 81.2104 210ZM77.0811 205.896H80.9803C82.8042 205.896 84.3255 205.564 85.5442 204.899C86.763 204.226 87.6792 203.224 88.2928 201.895C88.9064 200.557 89.2132 198.886 89.2132 196.884C89.2132 194.881 88.9064 193.219 88.2928 191.898C87.6792 190.568 86.7715 189.575 85.5698 188.919C84.3766 188.254 82.8936 187.922 81.1209 187.922H77.0811V205.896ZM106.913 210.384C104.944 210.384 103.244 209.974 101.812 209.156C100.389 208.33 99.2935 207.162 98.5265 205.653C97.7594 204.136 97.3759 202.351 97.3759 200.297C97.3759 198.277 97.7594 196.504 98.5265 194.979C99.302 193.445 100.384 192.251 101.774 191.399C103.163 190.538 104.795 190.108 106.67 190.108C107.88 190.108 109.022 190.304 110.096 190.696C111.178 191.08 112.133 191.676 112.96 192.486C113.795 193.295 114.451 194.327 114.928 195.58C115.406 196.824 115.644 198.307 115.644 200.028V201.447H99.5492V198.328H111.208C111.2 197.442 111.008 196.653 110.633 195.963C110.258 195.264 109.734 194.714 109.061 194.314C108.396 193.913 107.62 193.713 106.734 193.713C105.788 193.713 104.957 193.943 104.241 194.403C103.525 194.855 102.967 195.452 102.566 196.193C102.174 196.926 101.974 197.732 101.965 198.609V201.332C101.965 202.474 102.174 203.455 102.592 204.273C103.009 205.082 103.593 205.705 104.343 206.139C105.093 206.565 105.971 206.778 106.977 206.778C107.65 206.778 108.259 206.685 108.805 206.497C109.35 206.301 109.823 206.016 110.224 205.641C110.624 205.266 110.927 204.801 111.132 204.247L115.453 204.733C115.18 205.875 114.66 206.872 113.893 207.724C113.134 208.568 112.163 209.224 110.978 209.693C109.794 210.153 108.438 210.384 106.913 210.384ZM129.365 190.364V193.943H118.077V190.364H129.365ZM120.863 185.659H125.491V204.094C125.491 204.716 125.585 205.193 125.773 205.526C125.969 205.849 126.224 206.071 126.54 206.19C126.855 206.31 127.204 206.369 127.588 206.369C127.878 206.369 128.142 206.348 128.381 206.305C128.628 206.263 128.815 206.224 128.943 206.19L129.723 209.808C129.476 209.893 129.122 209.987 128.662 210.089C128.21 210.192 127.656 210.251 127 210.268C125.841 210.303 124.797 210.128 123.868 209.744C122.939 209.352 122.202 208.747 121.656 207.929C121.119 207.111 120.855 206.088 120.863 204.861V185.659ZM141.718 210.384C139.749 210.384 138.048 209.974 136.617 209.156C135.193 208.33 134.098 207.162 133.331 205.653C132.564 204.136 132.181 202.351 132.181 200.297C132.181 198.277 132.564 196.504 133.331 194.979C134.107 193.445 135.189 192.251 136.578 191.399C137.968 190.538 139.6 190.108 141.475 190.108C142.685 190.108 143.827 190.304 144.901 190.696C145.983 191.08 146.938 191.676 147.764 192.486C148.6 193.295 149.256 194.327 149.733 195.58C150.21 196.824 150.449 198.307 150.449 200.028V201.447H134.354V198.328H146.013C146.004 197.442 145.813 196.653 145.438 195.963C145.063 195.264 144.539 194.714 143.865 194.314C143.2 193.913 142.425 193.713 141.539 193.713C140.593 193.713 139.762 193.943 139.046 194.403C138.33 194.855 137.771 195.452 137.371 196.193C136.979 196.926 136.779 197.732 136.77 198.609V201.332C136.77 202.474 136.979 203.455 137.396 204.273C137.814 205.082 138.398 205.705 139.148 206.139C139.898 206.565 140.776 206.778 141.781 206.778C142.455 206.778 143.064 206.685 143.61 206.497C144.155 206.301 144.628 206.016 145.029 205.641C145.429 205.266 145.732 204.801 145.936 204.247L150.257 204.733C149.985 205.875 149.465 206.872 148.698 207.724C147.939 208.568 146.968 209.224 145.783 209.693C144.598 210.153 143.243 210.384 141.718 210.384ZM162.93 210.384C160.969 210.384 159.286 209.953 157.88 209.092C156.482 208.232 155.404 207.043 154.645 205.526C153.895 204 153.52 202.244 153.52 200.259C153.52 198.264 153.904 196.504 154.671 194.979C155.438 193.445 156.52 192.251 157.918 191.399C159.324 190.538 160.986 190.108 162.904 190.108C164.498 190.108 165.908 190.402 167.135 190.99C168.371 191.57 169.356 192.392 170.089 193.457C170.822 194.514 171.239 195.75 171.341 197.165H166.918C166.739 196.219 166.313 195.43 165.64 194.8C164.975 194.161 164.084 193.841 162.968 193.841C162.022 193.841 161.191 194.097 160.475 194.608C159.759 195.111 159.201 195.835 158.8 196.781C158.408 197.727 158.212 198.861 158.212 200.182C158.212 201.52 158.408 202.67 158.8 203.634C159.192 204.588 159.742 205.325 160.449 205.845C161.165 206.357 162.005 206.612 162.968 206.612C163.65 206.612 164.259 206.484 164.796 206.229C165.341 205.964 165.797 205.585 166.164 205.091C166.53 204.597 166.782 203.996 166.918 203.288H171.341C171.231 204.678 170.822 205.909 170.114 206.983C169.407 208.048 168.444 208.884 167.225 209.489C166.006 210.085 164.574 210.384 162.93 210.384ZM184.947 190.364V193.943H173.659V190.364H184.947ZM176.445 185.659H181.073V204.094C181.073 204.716 181.167 205.193 181.355 205.526C181.551 205.849 181.806 206.071 182.122 206.19C182.437 206.31 182.786 206.369 183.17 206.369C183.46 206.369 183.724 206.348 183.963 206.305C184.21 206.263 184.397 206.224 184.525 206.19L185.305 209.808C185.058 209.893 184.704 209.987 184.244 210.089C183.792 210.192 183.238 210.251 182.582 210.268C181.423 210.303 180.379 210.128 179.45 209.744C178.521 209.352 177.784 208.747 177.238 207.929C176.701 207.111 176.437 206.088 176.445 204.861V185.659ZM197.3 210.384C195.331 210.384 193.631 209.974 192.199 209.156C190.775 208.33 189.68 207.162 188.913 205.653C188.146 204.136 187.763 202.351 187.763 200.297C187.763 198.277 188.146 196.504 188.913 194.979C189.689 193.445 190.771 192.251 192.16 191.399C193.55 190.538 195.182 190.108 197.057 190.108C198.267 190.108 199.409 190.304 200.483 190.696C201.565 191.08 202.52 191.676 203.346 192.486C204.182 193.295 204.838 194.327 205.315 195.58C205.792 196.824 206.031 198.307 206.031 200.028V201.447H189.936V198.328H201.595C201.586 197.442 201.395 196.653 201.02 195.963C200.645 195.264 200.121 194.714 199.447 194.314C198.782 193.913 198.007 193.713 197.121 193.713C196.175 193.713 195.344 193.943 194.628 194.403C193.912 194.855 193.354 195.452 192.953 196.193C192.561 196.926 192.361 197.732 192.352 198.609V201.332C192.352 202.474 192.561 203.455 192.979 204.273C193.396 205.082 193.98 205.705 194.73 206.139C195.48 206.565 196.358 206.778 197.363 206.778C198.037 206.778 198.646 206.685 199.192 206.497C199.737 206.301 200.21 206.016 200.611 205.641C201.011 205.266 201.314 204.801 201.518 204.247L205.839 204.733C205.567 205.875 205.047 206.872 204.28 207.724C203.521 208.568 202.55 209.224 201.365 209.693C200.18 210.153 198.825 210.384 197.3 210.384ZM217.233 210.345C215.691 210.345 214.31 209.949 213.091 209.156C211.872 208.364 210.909 207.213 210.202 205.705C209.494 204.196 209.141 202.364 209.141 200.207C209.141 198.026 209.499 196.185 210.215 194.685C210.939 193.176 211.915 192.038 213.142 191.271C214.369 190.496 215.737 190.108 217.246 190.108C218.396 190.108 219.343 190.304 220.084 190.696C220.825 191.08 221.414 191.544 221.848 192.089C222.283 192.626 222.619 193.134 222.858 193.611H223.05V183.818H227.691V210H223.139V206.906H222.858C222.619 207.384 222.274 207.891 221.823 208.428C221.371 208.956 220.774 209.408 220.033 209.783C219.291 210.158 218.358 210.345 217.233 210.345ZM218.524 206.548C219.504 206.548 220.34 206.284 221.03 205.756C221.72 205.219 222.244 204.473 222.602 203.518C222.96 202.564 223.139 201.452 223.139 200.182C223.139 198.912 222.96 197.808 222.602 196.871C222.253 195.933 221.733 195.205 221.043 194.685C220.361 194.165 219.521 193.905 218.524 193.905C217.493 193.905 216.632 194.173 215.942 194.71C215.252 195.247 214.732 195.989 214.382 196.935C214.033 197.881 213.858 198.963 213.858 200.182C213.858 201.409 214.033 202.504 214.382 203.467C214.74 204.422 215.264 205.176 215.955 205.73C216.654 206.276 217.51 206.548 218.524 206.548Z" fill="white"/>
<path d="M68.4347 252V237.455H77.8949V239.663H71.0696V243.612H77.4048V245.821H71.0696V249.791H77.9517V252H68.4347ZM82.5717 241.091L84.7734 245.118L87.0107 241.091H89.7308L86.4425 246.545L89.7876 252H87.0817L84.7734 248.072L82.4865 252H79.7592L83.0831 246.545L79.8445 241.091H82.5717ZM96.0678 252.213C94.9788 252.213 94.0437 251.974 93.2624 251.496C92.4859 251.018 91.887 250.357 91.4656 249.514C91.0489 248.667 90.8406 247.691 90.8406 246.588C90.8406 245.48 91.0536 244.502 91.4798 243.655C91.9059 242.803 92.5072 242.14 93.2837 241.666C94.065 241.188 94.9883 240.949 96.0536 240.949C96.939 240.949 97.7227 241.112 98.4045 241.439C99.091 241.761 99.6379 242.218 100.045 242.81C100.452 243.397 100.684 244.083 100.741 244.869H98.2837C98.1843 244.344 97.9476 243.906 97.5735 243.555C97.2042 243.2 96.7094 243.023 96.0891 243.023C95.5636 243.023 95.1019 243.165 94.7042 243.449C94.3065 243.728 93.9963 244.131 93.7738 244.656C93.556 245.182 93.4471 245.812 93.4471 246.545C93.4471 247.289 93.556 247.928 93.7738 248.463C93.9916 248.993 94.297 249.403 94.69 249.692C95.0877 249.976 95.5541 250.118 96.0891 250.118C96.4679 250.118 96.8065 250.047 97.1048 249.905C97.4078 249.758 97.6611 249.547 97.8647 249.273C98.0683 248.998 98.208 248.664 98.2837 248.271H100.741C100.68 249.043 100.452 249.727 100.059 250.324C99.6663 250.916 99.1313 251.38 98.4542 251.716C97.7771 252.047 96.9817 252.213 96.0678 252.213ZM107.682 252.213C106.588 252.213 105.643 251.986 104.848 251.531C104.057 251.072 103.449 250.423 103.023 249.585C102.597 248.742 102.384 247.75 102.384 246.609C102.384 245.487 102.597 244.502 103.023 243.655C103.454 242.803 104.055 242.14 104.827 241.666C105.598 241.188 106.505 240.949 107.547 240.949C108.219 240.949 108.854 241.058 109.45 241.276C110.052 241.489 110.582 241.82 111.041 242.27C111.505 242.72 111.87 243.293 112.135 243.989C112.4 244.68 112.533 245.504 112.533 246.46V247.249H103.591V245.516H110.068C110.063 245.023 109.957 244.585 109.749 244.202C109.54 243.813 109.249 243.508 108.875 243.286C108.506 243.063 108.075 242.952 107.582 242.952C107.057 242.952 106.595 243.08 106.197 243.335C105.8 243.586 105.49 243.918 105.267 244.33C105.049 244.737 104.938 245.184 104.933 245.672V247.185C104.933 247.819 105.049 248.364 105.281 248.818C105.513 249.268 105.838 249.614 106.254 249.855C106.671 250.092 107.159 250.21 107.717 250.21C108.091 250.21 108.43 250.158 108.733 250.054C109.036 249.945 109.299 249.786 109.521 249.578C109.744 249.37 109.912 249.112 110.026 248.804L112.426 249.074C112.275 249.708 111.986 250.262 111.56 250.736C111.138 251.205 110.598 251.569 109.94 251.83C109.282 252.085 108.529 252.213 107.682 252.213ZM117.279 237.455V252H114.708V237.455H117.279ZM124.592 249.301V247.206L130.764 237.455H132.511V240.438H131.446L127.291 247.021V247.135H135.906V249.301H124.592ZM131.531 252V248.662L131.56 247.724V237.455H134.045V252H131.531ZM139.377 252.156C138.947 252.156 138.577 252.005 138.27 251.702C137.962 251.399 137.81 251.029 137.815 250.594C137.81 250.168 137.962 249.803 138.27 249.5C138.577 249.197 138.947 249.045 139.377 249.045C139.794 249.045 140.156 249.197 140.464 249.5C140.777 249.803 140.935 250.168 140.94 250.594C140.935 250.883 140.859 251.145 140.713 251.382C140.571 251.619 140.381 251.808 140.145 251.95C139.913 252.088 139.657 252.156 139.377 252.156ZM148.376 252.277C147.207 252.277 146.203 251.981 145.365 251.389C144.531 250.793 143.89 249.933 143.44 248.811C142.995 247.684 142.772 246.328 142.772 244.741C142.777 243.155 143.002 241.806 143.447 240.693C143.897 239.576 144.538 238.723 145.372 238.136C146.21 237.549 147.211 237.256 148.376 237.256C149.541 237.256 150.542 237.549 151.38 238.136C152.218 238.723 152.86 239.576 153.305 240.693C153.755 241.811 153.98 243.16 153.98 244.741C153.98 246.332 153.755 247.691 153.305 248.818C152.86 249.94 152.218 250.797 151.38 251.389C150.547 251.981 149.546 252.277 148.376 252.277ZM148.376 250.054C149.285 250.054 150.002 249.607 150.528 248.712C151.058 247.812 151.324 246.489 151.324 244.741C151.324 243.586 151.203 242.616 150.961 241.83C150.72 241.044 150.379 240.452 149.939 240.054C149.498 239.652 148.977 239.45 148.376 239.45C147.472 239.45 146.757 239.9 146.231 240.8C145.706 241.695 145.44 243.009 145.436 244.741C145.431 245.902 145.547 246.877 145.784 247.668C146.025 248.458 146.366 249.055 146.806 249.457C147.247 249.855 147.77 250.054 148.376 250.054ZM161.442 237.455H164.667L168.985 247.994H169.156L173.474 237.455H176.698V252H174.17V242.007H174.035L170.015 251.957H168.126L164.106 241.986H163.971V252H161.442V237.455ZM182.593 252.22C181.902 252.22 181.279 252.097 180.725 251.851C180.176 251.6 179.74 251.231 179.418 250.743C179.101 250.255 178.942 249.654 178.942 248.939C178.942 248.323 179.056 247.814 179.283 247.412C179.511 247.009 179.821 246.688 180.214 246.446C180.607 246.205 181.049 246.022 181.542 245.899C182.039 245.771 182.553 245.679 183.083 245.622C183.722 245.556 184.241 245.497 184.638 245.445C185.036 245.388 185.325 245.303 185.505 245.189C185.69 245.071 185.782 244.888 185.782 244.642V244.599C185.782 244.064 185.623 243.65 185.306 243.357C184.989 243.063 184.532 242.916 183.935 242.916C183.306 242.916 182.806 243.054 182.437 243.328C182.072 243.603 181.826 243.927 181.698 244.301L179.298 243.96C179.487 243.297 179.799 242.743 180.235 242.298C180.671 241.848 181.203 241.512 181.833 241.29C182.463 241.062 183.159 240.949 183.921 240.949C184.447 240.949 184.97 241.01 185.491 241.134C186.012 241.257 186.487 241.46 186.918 241.744C187.349 242.024 187.695 242.405 187.955 242.888C188.22 243.371 188.353 243.974 188.353 244.699V252H185.881V250.501H185.796C185.64 250.804 185.42 251.089 185.136 251.354C184.856 251.614 184.504 251.825 184.077 251.986C183.656 252.142 183.161 252.22 182.593 252.22ZM183.261 250.331C183.777 250.331 184.224 250.229 184.603 250.026C184.982 249.817 185.273 249.543 185.477 249.202C185.685 248.861 185.789 248.489 185.789 248.087V246.801C185.709 246.867 185.571 246.929 185.377 246.986C185.188 247.043 184.975 247.092 184.738 247.135C184.501 247.178 184.267 247.215 184.035 247.249C183.803 247.282 183.602 247.31 183.431 247.334C183.048 247.386 182.704 247.471 182.401 247.589C182.098 247.708 181.859 247.874 181.684 248.087C181.509 248.295 181.421 248.565 181.421 248.896C181.421 249.37 181.594 249.727 181.94 249.969C182.285 250.21 182.726 250.331 183.261 250.331ZM195.697 252.213C194.608 252.213 193.673 251.974 192.891 251.496C192.115 251.018 191.516 250.357 191.094 249.514C190.678 248.667 190.469 247.691 190.469 246.588C190.469 245.48 190.683 244.502 191.109 243.655C191.535 242.803 192.136 242.14 192.913 241.666C193.694 241.188 194.617 240.949 195.683 240.949C196.568 240.949 197.352 241.112 198.033 241.439C198.72 241.761 199.267 242.218 199.674 242.81C200.081 243.397 200.313 244.083 200.37 244.869H197.913C197.813 244.344 197.576 243.906 197.202 243.555C196.833 243.2 196.338 243.023 195.718 243.023C195.192 243.023 194.731 243.165 194.333 243.449C193.935 243.728 193.625 244.131 193.403 244.656C193.185 245.182 193.076 245.812 193.076 246.545C193.076 247.289 193.185 247.928 193.403 248.463C193.621 248.993 193.926 249.403 194.319 249.692C194.717 249.976 195.183 250.118 195.718 250.118C196.097 250.118 196.435 250.047 196.734 249.905C197.037 249.758 197.29 249.547 197.494 249.273C197.697 248.998 197.837 248.664 197.913 248.271H200.37C200.308 249.043 200.081 249.727 199.688 250.324C199.295 250.916 198.76 251.38 198.083 251.716C197.406 252.047 196.611 252.213 195.697 252.213ZM202.481 252V241.091H204.974V242.909H205.088C205.287 242.279 205.627 241.794 206.11 241.453C206.598 241.107 207.154 240.935 207.779 240.935C207.922 240.935 208.08 240.942 208.255 240.956C208.435 240.965 208.584 240.982 208.703 241.006V243.371C208.594 243.333 208.421 243.3 208.184 243.271C207.952 243.238 207.727 243.222 207.51 243.222C207.041 243.222 206.619 243.323 206.245 243.527C205.876 243.726 205.585 244.003 205.372 244.358C205.159 244.713 205.052 245.123 205.052 245.587V252H202.481ZM214.72 252.213C213.655 252.213 212.732 251.979 211.95 251.51C211.169 251.041 210.563 250.385 210.132 249.543C209.706 248.7 209.493 247.715 209.493 246.588C209.493 245.461 209.706 244.474 210.132 243.626C210.563 242.779 211.169 242.121 211.95 241.652C212.732 241.183 213.655 240.949 214.72 240.949C215.786 240.949 216.709 241.183 217.49 241.652C218.271 242.121 218.875 242.779 219.301 243.626C219.732 244.474 219.947 245.461 219.947 246.588C219.947 247.715 219.732 248.7 219.301 249.543C218.875 250.385 218.271 251.041 217.49 251.51C216.709 251.979 215.786 252.213 214.72 252.213ZM214.734 250.153C215.312 250.153 215.795 249.995 216.183 249.678C216.571 249.356 216.86 248.925 217.05 248.385C217.244 247.845 217.341 247.244 217.341 246.581C217.341 245.913 217.244 245.31 217.05 244.77C216.86 244.225 216.571 243.792 216.183 243.47C215.795 243.148 215.312 242.987 214.734 242.987C214.143 242.987 213.65 243.148 213.257 243.47C212.869 243.792 212.578 244.225 212.384 244.77C212.194 245.31 212.099 245.913 212.099 246.581C212.099 247.244 212.194 247.845 212.384 248.385C212.578 248.925 212.869 249.356 213.257 249.678C213.65 249.995 214.143 250.153 214.734 250.153ZM230.752 243.974L228.408 244.23C228.342 243.993 228.226 243.771 228.06 243.562C227.899 243.354 227.681 243.186 227.407 243.058C227.132 242.93 226.796 242.866 226.398 242.866C225.863 242.866 225.413 242.982 225.049 243.214C224.689 243.446 224.511 243.747 224.516 244.116C224.511 244.434 224.627 244.692 224.864 244.891C225.105 245.089 225.503 245.253 226.057 245.381L227.918 245.778C228.95 246.001 229.717 246.354 230.219 246.837C230.726 247.32 230.981 247.952 230.986 248.733C230.981 249.42 230.78 250.026 230.382 250.551C229.989 251.072 229.443 251.479 228.742 251.773C228.041 252.066 227.236 252.213 226.327 252.213C224.992 252.213 223.917 251.934 223.103 251.375C222.288 250.812 221.803 250.028 221.647 249.024L224.154 248.783C224.267 249.275 224.509 249.647 224.878 249.898C225.248 250.149 225.728 250.274 226.32 250.274C226.931 250.274 227.421 250.149 227.79 249.898C228.164 249.647 228.351 249.337 228.351 248.967C228.351 248.655 228.23 248.397 227.989 248.193C227.752 247.99 227.383 247.833 226.881 247.724L225.02 247.334C223.974 247.116 223.2 246.749 222.698 246.233C222.196 245.712 221.947 245.054 221.952 244.259C221.947 243.586 222.13 243.004 222.499 242.511C222.873 242.014 223.391 241.631 224.054 241.361C224.722 241.086 225.491 240.949 226.363 240.949C227.641 240.949 228.647 241.221 229.381 241.766C230.12 242.31 230.577 243.046 230.752 243.974Z" fill="#292D32"/>
<path d="M119.339 101.453C119.273 100.833 118.994 100.35 118.501 100.004C118.014 99.6586 117.379 99.4858 116.598 99.4858C116.049 99.4858 115.578 99.5687 115.185 99.7344C114.792 99.9001 114.491 100.125 114.283 100.409C114.074 100.693 113.968 101.018 113.963 101.382C113.963 101.685 114.032 101.948 114.169 102.17C114.311 102.393 114.503 102.582 114.744 102.739C114.986 102.89 115.253 103.018 115.547 103.122C115.84 103.226 116.136 103.314 116.435 103.385L117.798 103.726C118.348 103.854 118.875 104.027 119.382 104.244C119.893 104.462 120.35 104.737 120.753 105.068C121.16 105.4 121.482 105.8 121.719 106.268C121.955 106.737 122.074 107.286 122.074 107.916C122.074 108.768 121.856 109.519 121.42 110.168C120.985 110.812 120.355 111.316 119.531 111.68C118.712 112.04 117.72 112.22 116.555 112.22C115.424 112.22 114.441 112.045 113.608 111.695C112.779 111.344 112.131 110.833 111.662 110.161C111.198 109.488 110.947 108.669 110.909 107.703H113.501C113.539 108.21 113.696 108.631 113.97 108.967C114.245 109.304 114.602 109.554 115.043 109.72C115.488 109.886 115.985 109.969 116.534 109.969C117.107 109.969 117.609 109.884 118.04 109.713C118.475 109.538 118.816 109.296 119.062 108.989C119.309 108.676 119.434 108.312 119.439 107.895C119.434 107.516 119.323 107.204 119.105 106.957C118.887 106.706 118.582 106.498 118.189 106.332C117.801 106.162 117.346 106.01 116.825 105.878L115.17 105.452C113.973 105.144 113.026 104.678 112.33 104.053C111.638 103.423 111.293 102.587 111.293 101.545C111.293 100.688 111.525 99.938 111.989 99.294C112.457 98.6501 113.094 98.1506 113.899 97.7955C114.704 97.4356 115.616 97.2557 116.634 97.2557C117.666 97.2557 118.57 97.4356 119.347 97.7955C120.128 98.1506 120.741 98.6454 121.186 99.2798C121.631 99.9096 121.861 100.634 121.875 101.453H119.339ZM137.42 104.727C137.42 106.295 137.127 107.637 136.539 108.754C135.957 109.867 135.162 110.719 134.153 111.311C133.149 111.903 132.011 112.199 130.737 112.199C129.463 112.199 128.322 111.903 127.314 111.311C126.31 110.714 125.514 109.86 124.927 108.747C124.345 107.63 124.054 106.29 124.054 104.727C124.054 103.16 124.345 101.82 124.927 100.707C125.514 99.59 126.31 98.7353 127.314 98.1435C128.322 97.5516 129.463 97.2557 130.737 97.2557C132.011 97.2557 133.149 97.5516 134.153 98.1435C135.162 98.7353 135.957 99.59 136.539 100.707C137.127 101.82 137.42 103.16 137.42 104.727ZM134.771 104.727C134.771 103.624 134.598 102.694 134.252 101.936C133.912 101.174 133.438 100.598 132.832 100.21C132.226 99.8172 131.528 99.6207 130.737 99.6207C129.946 99.6207 129.248 99.8172 128.642 100.21C128.036 100.598 127.56 101.174 127.214 101.936C126.873 102.694 126.703 103.624 126.703 104.727C126.703 105.83 126.873 106.763 127.214 107.526C127.56 108.283 128.036 108.858 128.642 109.251C129.248 109.64 129.946 109.834 130.737 109.834C131.528 109.834 132.226 109.64 132.832 109.251C133.438 108.858 133.912 108.283 134.252 107.526C134.598 106.763 134.771 105.83 134.771 104.727ZM152.362 102.362H149.705C149.629 101.927 149.49 101.541 149.286 101.205C149.083 100.864 148.829 100.575 148.526 100.338C148.223 100.101 147.878 99.9238 147.489 99.8054C147.106 99.6823 146.692 99.6207 146.246 99.6207C145.456 99.6207 144.755 99.8196 144.144 100.217C143.533 100.61 143.055 101.188 142.71 101.95C142.364 102.708 142.191 103.634 142.191 104.727C142.191 105.84 142.364 106.777 142.71 107.54C143.06 108.297 143.538 108.87 144.144 109.259C144.755 109.642 145.453 109.834 146.239 109.834C146.675 109.834 147.082 109.777 147.461 109.663C147.844 109.545 148.188 109.372 148.491 109.145C148.799 108.918 149.057 108.638 149.265 108.307C149.478 107.975 149.625 107.597 149.705 107.17L152.362 107.185C152.262 107.876 152.047 108.525 151.715 109.131C151.388 109.737 150.96 110.272 150.43 110.736C149.899 111.195 149.279 111.555 148.569 111.815C147.859 112.071 147.07 112.199 146.204 112.199C144.925 112.199 143.784 111.903 142.781 111.311C141.777 110.719 140.986 109.865 140.408 108.747C139.831 107.63 139.542 106.29 139.542 104.727C139.542 103.16 139.833 101.82 140.415 100.707C140.998 99.59 141.791 98.7353 142.795 98.1435C143.799 97.5516 144.935 97.2557 146.204 97.2557C147.013 97.2557 147.766 97.3693 148.462 97.5966C149.158 97.8239 149.779 98.1577 150.323 98.598C150.868 99.0336 151.315 99.5687 151.665 100.203C152.021 100.833 152.253 101.553 152.362 102.362ZM160.549 97.4545V112H157.914V100.018H157.828L154.426 102.192V99.777L158.042 97.4545H160.549ZM163.979 109.301V107.206L170.151 97.4545H171.898V100.438H170.833L166.678 107.021V107.135H175.293V109.301H163.979ZM170.918 112V108.662L170.946 107.724V97.4545H173.432V112H170.918ZM182.889 112.199C182.193 112.194 181.513 112.073 180.85 111.837C180.188 111.595 179.591 111.205 179.061 110.665C178.53 110.12 178.109 109.398 177.797 108.499C177.484 107.594 177.33 106.474 177.335 105.139C177.335 103.894 177.467 102.784 177.733 101.808C177.998 100.833 178.379 100.009 178.876 99.3366C179.373 98.6596 179.972 98.1435 180.673 97.7884C181.378 97.4332 182.167 97.2557 183.038 97.2557C183.952 97.2557 184.761 97.4356 185.467 97.7955C186.177 98.1553 186.75 98.6477 187.186 99.2727C187.621 99.893 187.891 100.594 187.995 101.375H185.403C185.27 100.816 184.998 100.371 184.586 100.04C184.179 99.7036 183.663 99.5355 183.038 99.5355C182.029 99.5355 181.253 99.9735 180.708 100.849C180.169 101.725 179.896 102.928 179.892 104.457H179.991C180.223 104.041 180.524 103.683 180.893 103.385C181.262 103.087 181.679 102.857 182.143 102.696C182.612 102.53 183.107 102.447 183.627 102.447C184.48 102.447 185.244 102.651 185.922 103.058C186.603 103.465 187.143 104.027 187.541 104.741C187.939 105.452 188.135 106.266 188.13 107.185C188.135 108.141 187.917 109 187.477 109.763C187.037 110.52 186.423 111.117 185.637 111.553C184.851 111.988 183.935 112.204 182.889 112.199ZM182.875 110.068C183.391 110.068 183.852 109.943 184.26 109.692C184.667 109.441 184.989 109.102 185.225 108.676C185.462 108.25 185.578 107.772 185.574 107.241C185.578 106.721 185.465 106.25 185.233 105.828C185.005 105.407 184.69 105.073 184.288 104.827C183.886 104.58 183.426 104.457 182.91 104.457C182.527 104.457 182.169 104.531 181.838 104.678C181.506 104.824 181.217 105.028 180.971 105.288C180.725 105.544 180.531 105.842 180.389 106.183C180.252 106.519 180.181 106.879 180.176 107.263C180.181 107.769 180.299 108.236 180.531 108.662C180.763 109.088 181.083 109.429 181.49 109.685C181.897 109.94 182.359 110.068 182.875 110.068Z" fill="#292D32"/>
</g>
<defs>
<clipPath id="clip0_133_2">
<rect width="300" height="300" fill="white"/>
</clipPath>
</defs>
</svg>
