<?xml version="1.0" encoding="UTF-8"?>
<svg id="uuid-2d2ce12d-41e7-4631-811f-405e3586d23d" data-name="Layer 1" xmlns="http://www.w3.org/2000/svg" width="595.276" height="326.505" viewBox="0 0 595.276 326.505">
  <defs>
    <style>
      .uuid-930deba4-15a1-4f5f-80e3-fa9132a291d2 {
        fill: #020202;
      }

      .uuid-217bb678-a9d8-4952-b1d4-243ebe8ffd04 {
        fill: #e6e6e6;
      }

      .uuid-bf7958a5-659d-4beb-be61-7dbb269cbf63 {
        fill: #221f20;
      }

      .uuid-47406202-4fbf-4571-a936-c17b1b65bdb1 {
        stroke: #080808;
        stroke-dasharray: 0 6;
      }

      .uuid-47406202-4fbf-4571-a936-c17b1b65bdb1, .uuid-8b19c4ee-2014-4667-9178-5b425d1f533d, .uuid-1f0f9580-6318-4528-9061-2cdef9c3bed7, .uuid-ab160f8d-10bf-4ebf-becd-e1e6e12a2e02, .uuid-0cdc7371-9cd5-47df-8e10-e0511273454f {
        stroke-miterlimit: 10;
      }

      .uuid-47406202-4fbf-4571-a936-c17b1b65bdb1, .uuid-ab160f8d-10bf-4ebf-becd-e1e6e12a2e02, .uuid-0cdc7371-9cd5-47df-8e10-e0511273454f {
        fill: none;
      }

      .uuid-8b19c4ee-2014-4667-9178-5b425d1f533d {
        stroke: #221f20;
      }

      .uuid-8b19c4ee-2014-4667-9178-5b425d1f533d, .uuid-1f0f9580-6318-4528-9061-2cdef9c3bed7 {
        fill: #fff;
      }

      .uuid-1f0f9580-6318-4528-9061-2cdef9c3bed7, .uuid-0cdc7371-9cd5-47df-8e10-e0511273454f {
        stroke: #bebebe;
      }

      .uuid-ab160f8d-10bf-4ebf-becd-e1e6e12a2e02 {
        stroke: #020202;
      }
    </style>
  </defs>
  <rect class="uuid-217bb678-a9d8-4952-b1d4-243ebe8ffd04" x="30.848" y="22.323" width="129.488" height="154.046"/>
  <rect class="uuid-217bb678-a9d8-4952-b1d4-243ebe8ffd04" x="443.87" y="22.323" width="129.488" height="154.046"/>
  <rect class="uuid-217bb678-a9d8-4952-b1d4-243ebe8ffd04" x="212.858" y="22.323" width="178.489" height="154.046"/>
  <rect class="uuid-217bb678-a9d8-4952-b1d4-243ebe8ffd04" x="212.858" y="227.718" width="178.489" height="73.48"/>
  <rect class="uuid-1f0f9580-6318-4528-9061-2cdef9c3bed7" x="226.196" y="34.382" width="151.814" height="116.344"/>
  <rect class="uuid-1f0f9580-6318-4528-9061-2cdef9c3bed7" x="226.196" y="241.707" width="151.814" height="37.395"/>
  <g>
    <path class="uuid-bf7958a5-659d-4beb-be61-7dbb269cbf63" d="M268.957,165.965l.68,.68c-.47,.54-1.189,.87-1.959,.87-1.419,0-2.529-1.14-2.529-2.599,0-1.449,1.1-2.579,2.529-2.579,.779,0,1.499,.3,1.999,.839l-.699,.729c-.35-.39-.78-.589-1.259-.589-.81,0-1.439,.7-1.439,1.599,0,.909,.63,1.599,1.469,1.599,.479,0,.91-.19,1.209-.55Z"/>
    <path class="uuid-bf7958a5-659d-4beb-be61-7dbb269cbf63" d="M272.747,162.327c1.439,0,2.519,1.12,2.519,2.589,0,1.479-1.089,2.599-2.519,2.599s-2.519-1.129-2.519-2.599,1.089-2.589,2.519-2.589Zm1.399,2.599c0-.949-.59-1.629-1.399-1.629-.819,0-1.399,.68-1.399,1.629,0,.939,.58,1.609,1.399,1.609s1.399-.68,1.399-1.609Z"/>
    <path class="uuid-bf7958a5-659d-4beb-be61-7dbb269cbf63" d="M276.438,162.407h1.129v.8c.37-.58,.87-.88,1.489-.88,.669,0,1.209,.38,1.469,.97,.379-.64,.949-.97,1.659-.97,.97,0,1.639,.75,1.639,1.819v3.268h-1.129v-3.028c0-.7-.39-1.149-1.009-1.149-.41,0-.74,.2-1.009,.59,.01,.11,.02,.21,.02,.32v3.268h-1.129v-3.028c0-.7-.39-1.149-1.01-1.149-.4,0-.729,.19-.989,.57v3.608h-1.129v-5.007Z"/>
    <path class="uuid-bf7958a5-659d-4beb-be61-7dbb269cbf63" d="M285.198,162.407h1.129v.8c.37-.58,.87-.88,1.489-.88,.669,0,1.209,.38,1.469,.97,.379-.64,.949-.97,1.659-.97,.97,0,1.639,.75,1.639,1.819v3.268h-1.129v-3.028c0-.7-.39-1.149-1.009-1.149-.41,0-.74,.2-1.009,.59,.01,.11,.02,.21,.02,.32v3.268h-1.129v-3.028c0-.7-.39-1.149-1.01-1.149-.4,0-.729,.19-.989,.57v3.608h-1.129v-5.007Z"/>
    <path class="uuid-bf7958a5-659d-4beb-be61-7dbb269cbf63" d="M293.708,165.975c0-.9,.729-1.469,1.909-1.469,.47,0,.899,.1,1.349,.31v-.55c0-.66-.38-1-1.149-1-.42,0-.879,.12-1.459,.39l-.4-.82c.75-.35,1.409-.51,2.079-.51,1.299,0,2.049,.66,2.049,1.819v3.268h-1.119v-.51c-.45,.41-.919,.59-1.489,.59-1.049,0-1.769-.62-1.769-1.519Zm2.079,.729c.45,0,.839-.13,1.179-.41v-.819c-.36-.17-.72-.24-1.159-.24-.64,0-1.04,.28-1.04,.72,0,.459,.4,.75,1.02,.75Z"/>
    <path class="uuid-bf7958a5-659d-4beb-be61-7dbb269cbf63" d="M299.458,162.407h1.129v.82c.38-.59,.92-.9,1.589-.9,1.02,0,1.729,.74,1.729,1.789v3.298h-1.13v-2.979c0-.729-.43-1.199-1.099-1.199-.45,0-.82,.21-1.09,.6v3.578h-1.129v-5.007Z"/>
    <path class="uuid-bf7958a5-659d-4beb-be61-7dbb269cbf63" d="M308.855,166.745c-.35,.45-.909,.719-1.539,.719-1.27,0-2.269-1.129-2.269-2.548,0-1.429,1.029-2.549,2.339-2.549,.579,0,1.089,.24,1.459,.66v-2.758l1.129-.19v7.336h-1.119v-.669Zm-1.199-.23c.479,0,.89-.19,1.189-.55v-2.109c-.29-.34-.72-.54-1.189-.54-.859,0-1.489,.68-1.489,1.599,0,.909,.64,1.599,1.489,1.599Z"/>
    <path class="uuid-bf7958a5-659d-4beb-be61-7dbb269cbf63" d="M313.627,162.407h1.13v.8c.369-.58,.869-.88,1.489-.88,.669,0,1.209,.38,1.469,.97,.38-.64,.949-.97,1.659-.97,.97,0,1.639,.75,1.639,1.819v3.268h-1.129v-3.028c0-.7-.39-1.149-1.01-1.149-.409,0-.739,.2-1.009,.59,.01,.11,.02,.21,.02,.32v3.268h-1.129v-3.028c0-.7-.391-1.149-1.01-1.149-.4,0-.729,.19-.989,.57v3.608h-1.13v-5.007Z"/>
    <path class="uuid-bf7958a5-659d-4beb-be61-7dbb269cbf63" d="M324.676,162.327c1.439,0,2.519,1.12,2.519,2.589,0,1.479-1.089,2.599-2.519,2.599s-2.519-1.129-2.519-2.599,1.09-2.589,2.519-2.589Zm1.399,2.599c0-.949-.59-1.629-1.399-1.629-.819,0-1.398,.68-1.398,1.629,0,.939,.579,1.609,1.398,1.609s1.399-.68,1.399-1.609Z"/>
    <path class="uuid-bf7958a5-659d-4beb-be61-7dbb269cbf63" d="M331.976,166.745c-.351,.45-.91,.719-1.54,.719-1.269,0-2.269-1.129-2.269-2.548,0-1.429,1.029-2.549,2.339-2.549,.58,0,1.09,.24,1.459,.66v-2.758l1.13-.19v7.336h-1.119v-.669Zm-1.2-.23c.48,0,.89-.19,1.189-.55v-2.109c-.289-.34-.72-.54-1.189-.54-.859,0-1.488,.68-1.488,1.599,0,.909,.64,1.599,1.488,1.599Z"/>
    <path class="uuid-bf7958a5-659d-4beb-be61-7dbb269cbf63" d="M336.815,167.514c-1.429,0-2.549-1.14-2.549-2.599,0-1.469,1.05-2.589,2.438-2.589,1.37,0,2.369,1.09,2.369,2.579v.28h-3.698c.11,.79,.729,1.37,1.499,1.37,.47,0,.91-.17,1.189-.47l.74,.689c-.61,.51-1.21,.74-1.989,.74Zm-1.419-3.019h2.608c-.13-.74-.64-1.249-1.31-1.249s-1.169,.489-1.299,1.249Z"/>
  </g>
  <g>
    <path class="uuid-bf7958a5-659d-4beb-be61-7dbb269cbf63" d="M244.462,292.848c-1.429,0-2.549-1.14-2.549-2.599,0-1.469,1.049-2.589,2.438-2.589,1.37,0,2.369,1.09,2.369,2.579v.28h-3.698c.11,.79,.729,1.37,1.499,1.37,.47,0,.91-.17,1.189-.47l.74,.689c-.61,.51-1.209,.74-1.989,.74Zm-1.419-3.019h2.608c-.13-.74-.64-1.249-1.309-1.249s-1.169,.489-1.299,1.249Z"/>
    <path class="uuid-bf7958a5-659d-4beb-be61-7dbb269cbf63" d="M248.843,290.199l-1.829-2.458h1.319l1.169,1.649,1.169-1.649h1.259l-1.799,2.429,1.939,2.579h-1.329l-1.259-1.769-1.259,1.769h-1.259l1.879-2.549Z"/>
    <path class="uuid-bf7958a5-659d-4beb-be61-7dbb269cbf63" d="M253.403,288.64h-1.009v-.899h1.009v-1.379l1.129-.24v1.619h1.399v.899h-1.399v2.539c0,.49,.19,.68,.7,.68,.229,0,.379-.03,.68-.12v.949c-.29,.09-.67,.14-.97,.14-1.009,0-1.539-.48-1.539-1.399v-2.789Z"/>
    <path class="uuid-bf7958a5-659d-4beb-be61-7dbb269cbf63" d="M259.172,292.848c-1.429,0-2.549-1.14-2.549-2.599,0-1.469,1.049-2.589,2.438-2.589,1.37,0,2.369,1.09,2.369,2.579v.28h-3.698c.11,.79,.729,1.37,1.499,1.37,.47,0,.91-.17,1.189-.47l.74,.689c-.61,.51-1.209,.74-1.989,.74Zm-1.419-3.019h2.608c-.13-.74-.64-1.249-1.309-1.249s-1.169,.489-1.299,1.249Z"/>
    <path class="uuid-bf7958a5-659d-4beb-be61-7dbb269cbf63" d="M262.583,287.741h1.129v.82c.38-.59,.919-.9,1.589-.9,1.02,0,1.729,.74,1.729,1.789v3.298h-1.129v-2.979c0-.729-.43-1.199-1.099-1.199-.45,0-.82,.21-1.089,.6v3.578h-1.129v-5.007Z"/>
    <path class="uuid-bf7958a5-659d-4beb-be61-7dbb269cbf63" d="M271.981,292.079c-.35,.45-.91,.719-1.54,.719-1.269,0-2.269-1.129-2.269-2.548,0-1.429,1.029-2.549,2.339-2.549,.58,0,1.089,.24,1.459,.66v-2.758l1.129-.19v7.336h-1.119v-.669Zm-1.2-.23c.48,0,.89-.19,1.189-.55v-2.109c-.29-.34-.72-.54-1.189-.54-.859,0-1.489,.68-1.489,1.599,0,.909,.64,1.599,1.489,1.599Z"/>
    <path class="uuid-bf7958a5-659d-4beb-be61-7dbb269cbf63" d="M276.822,292.848c-1.429,0-2.549-1.14-2.549-2.599,0-1.469,1.049-2.589,2.438-2.589,1.37,0,2.369,1.09,2.369,2.579v.28h-3.698c.11,.79,.729,1.37,1.499,1.37,.47,0,.91-.17,1.189-.47l.74,.689c-.61,.51-1.209,.74-1.989,.74Zm-1.419-3.019h2.608c-.13-.74-.64-1.249-1.309-1.249s-1.169,.489-1.299,1.249Z"/>
    <path class="uuid-bf7958a5-659d-4beb-be61-7dbb269cbf63" d="M283.841,292.079c-.35,.45-.91,.719-1.54,.719-1.269,0-2.269-1.129-2.269-2.548,0-1.429,1.029-2.549,2.339-2.549,.58,0,1.089,.24,1.459,.66v-2.758l1.129-.19v7.336h-1.119v-.669Zm-1.2-.23c.48,0,.89-.19,1.189-.55v-2.109c-.29-.34-.72-.54-1.189-.54-.859,0-1.489,.68-1.489,1.599,0,.909,.64,1.599,1.489,1.599Z"/>
    <path class="uuid-bf7958a5-659d-4beb-be61-7dbb269cbf63" d="M292.191,291.299l.68,.68c-.47,.54-1.189,.87-1.959,.87-1.419,0-2.529-1.14-2.529-2.599,0-1.449,1.1-2.579,2.529-2.579,.779,0,1.499,.3,1.999,.839l-.699,.729c-.35-.39-.78-.589-1.259-.589-.81,0-1.439,.7-1.439,1.599,0,.909,.63,1.599,1.469,1.599,.479,0,.91-.19,1.209-.55Z"/>
    <path class="uuid-bf7958a5-659d-4beb-be61-7dbb269cbf63" d="M295.981,287.661c1.439,0,2.519,1.12,2.519,2.589,0,1.479-1.089,2.599-2.519,2.599s-2.519-1.129-2.519-2.599,1.089-2.589,2.519-2.589Zm1.399,2.599c0-.949-.59-1.629-1.399-1.629-.819,0-1.399,.68-1.399,1.629,0,.939,.58,1.609,1.399,1.609s1.399-.68,1.399-1.609Z"/>
    <path class="uuid-bf7958a5-659d-4beb-be61-7dbb269cbf63" d="M299.673,287.741h1.129v.8c.37-.58,.87-.88,1.489-.88,.67,0,1.209,.38,1.47,.97,.379-.64,.949-.97,1.658-.97,.97,0,1.64,.75,1.64,1.819v3.268h-1.13v-3.028c0-.7-.39-1.149-1.009-1.149-.41,0-.74,.2-1.01,.59,.01,.11,.02,.21,.02,.32v3.268h-1.129v-3.028c0-.7-.39-1.149-1.01-1.149-.399,0-.729,.19-.989,.57v3.608h-1.129v-5.007Z"/>
    <path class="uuid-bf7958a5-659d-4beb-be61-7dbb269cbf63" d="M308.433,287.741h1.129v.8c.37-.58,.87-.88,1.489-.88,.67,0,1.209,.38,1.47,.97,.379-.64,.949-.97,1.658-.97,.97,0,1.64,.75,1.64,1.819v3.268h-1.13v-3.028c0-.7-.39-1.149-1.009-1.149-.41,0-.74,.2-1.01,.59,.01,.11,.02,.21,.02,.32v3.268h-1.129v-3.028c0-.7-.39-1.149-1.01-1.149-.399,0-.729,.19-.989,.57v3.608h-1.129v-5.007Z"/>
    <path class="uuid-bf7958a5-659d-4beb-be61-7dbb269cbf63" d="M316.942,291.309c0-.9,.729-1.469,1.909-1.469,.47,0,.899,.1,1.35,.31v-.55c0-.66-.38-1-1.149-1-.42,0-.88,.12-1.459,.39l-.4-.82c.75-.35,1.409-.51,2.079-.51,1.299,0,2.049,.66,2.049,1.819v3.268h-1.119v-.51c-.45,.41-.92,.59-1.489,.59-1.05,0-1.77-.62-1.77-1.519Zm2.079,.729c.45,0,.84-.13,1.18-.41v-.819c-.36-.17-.72-.24-1.159-.24-.64,0-1.04,.28-1.04,.72,0,.459,.4,.75,1.02,.75Z"/>
    <path class="uuid-bf7958a5-659d-4beb-be61-7dbb269cbf63" d="M322.692,287.741h1.129v.82c.38-.59,.92-.9,1.589-.9,1.02,0,1.729,.74,1.729,1.789v3.298h-1.13v-2.979c0-.729-.43-1.199-1.099-1.199-.45,0-.82,.21-1.09,.6v3.578h-1.129v-5.007Z"/>
    <path class="uuid-bf7958a5-659d-4beb-be61-7dbb269cbf63" d="M332.09,292.079c-.35,.45-.909,.719-1.539,.719-1.27,0-2.269-1.129-2.269-2.548,0-1.429,1.029-2.549,2.339-2.549,.579,0,1.089,.24,1.459,.66v-2.758l1.129-.19v7.336h-1.119v-.669Zm-1.199-.23c.479,0,.89-.19,1.189-.55v-2.109c-.29-.34-.72-.54-1.189-.54-.859,0-1.489,.68-1.489,1.599,0,.909,.64,1.599,1.489,1.599Z"/>
    <path class="uuid-bf7958a5-659d-4beb-be61-7dbb269cbf63" d="M336.862,287.741h1.129v.8c.37-.58,.87-.88,1.489-.88,.67,0,1.209,.38,1.47,.97,.379-.64,.949-.97,1.658-.97,.97,0,1.64,.75,1.64,1.819v3.268h-1.13v-3.028c0-.7-.39-1.149-1.009-1.149-.41,0-.74,.2-1.01,.59,.01,.11,.02,.21,.02,.32v3.268h-1.129v-3.028c0-.7-.39-1.149-1.01-1.149-.399,0-.729,.19-.989,.57v3.608h-1.129v-5.007Z"/>
    <path class="uuid-bf7958a5-659d-4beb-be61-7dbb269cbf63" d="M347.91,287.661c1.439,0,2.519,1.12,2.519,2.589,0,1.479-1.089,2.599-2.519,2.599s-2.519-1.129-2.519-2.599,1.09-2.589,2.519-2.589Zm1.399,2.599c0-.949-.59-1.629-1.399-1.629-.819,0-1.398,.68-1.398,1.629,0,.939,.579,1.609,1.398,1.609s1.399-.68,1.399-1.609Z"/>
    <path class="uuid-bf7958a5-659d-4beb-be61-7dbb269cbf63" d="M355.21,292.079c-.351,.45-.91,.719-1.54,.719-1.269,0-2.269-1.129-2.269-2.548,0-1.429,1.029-2.549,2.339-2.549,.58,0,1.09,.24,1.459,.66v-2.758l1.13-.19v7.336h-1.119v-.669Zm-1.2-.23c.48,0,.89-.19,1.189-.55v-2.109c-.289-.34-.72-.54-1.189-.54-.859,0-1.488,.68-1.488,1.599,0,.909,.64,1.599,1.488,1.599Z"/>
    <path class="uuid-bf7958a5-659d-4beb-be61-7dbb269cbf63" d="M360.051,292.848c-1.43,0-2.549-1.14-2.549-2.599,0-1.469,1.049-2.589,2.438-2.589,1.369,0,2.368,1.09,2.368,2.579v.28h-3.697c.109,.79,.729,1.37,1.499,1.37,.47,0,.909-.17,1.189-.47l.739,.689c-.609,.51-1.209,.74-1.988,.74Zm-1.42-3.019h2.608c-.13-.74-.64-1.249-1.309-1.249s-1.17,.489-1.3,1.249Z"/>
  </g>
  <g>
    <path class="uuid-bf7958a5-659d-4beb-be61-7dbb269cbf63" d="M470.629,162.407h1.229l1.39,3.658,1.389-3.658h1.189l-2.059,5.007h-1.09l-2.049-5.007Z"/>
    <path class="uuid-bf7958a5-659d-4beb-be61-7dbb269cbf63" d="M476.499,160.698c0-.38,.319-.7,.699-.7,.39,0,.71,.32,.71,.7,0,.39-.31,.689-.71,.689-.39,0-.699-.3-.699-.689Zm1.27,6.716h-1.13v-5.007h1.13v5.007Z"/>
    <path class="uuid-bf7958a5-659d-4beb-be61-7dbb269cbf63" d="M479.239,166.075c.649,.41,1.099,.57,1.608,.57,.6,0,1.01-.27,1.01-.669,0-.31-.21-.48-.689-.57l-.89-.15c-.97-.18-1.449-.63-1.449-1.379,0-.939,.77-1.549,1.938-1.549,.7,0,1.33,.19,1.97,.6l-.53,.739c-.52-.33-.999-.479-1.509-.479-.52,0-.859,.22-.859,.589,0,.32,.18,.46,.709,.55l.88,.16c.999,.19,1.479,.649,1.479,1.399,0,.919-.88,1.629-2.039,1.629-.87,0-1.629-.24-2.159-.68l.53-.76Z"/>
    <path class="uuid-bf7958a5-659d-4beb-be61-7dbb269cbf63" d="M485.048,165.385c0,.729,.431,1.199,1.1,1.199,.46,0,.83-.21,1.1-.62v-3.558h1.129v5.007h-1.129v-.83c-.38,.59-.92,.91-1.6,.91-1.019,0-1.729-.729-1.729-1.789v-3.298h1.129v2.979Z"/>
    <path class="uuid-bf7958a5-659d-4beb-be61-7dbb269cbf63" d="M489.519,165.975c0-.9,.729-1.469,1.909-1.469,.47,0,.899,.1,1.35,.31v-.55c0-.66-.38-1-1.149-1-.42,0-.88,.12-1.459,.39l-.4-.82c.75-.35,1.409-.51,2.079-.51,1.299,0,2.049,.66,2.049,1.819v3.268h-1.119v-.51c-.45,.41-.92,.59-1.489,.59-1.05,0-1.77-.62-1.77-1.519Zm2.079,.729c.45,0,.84-.13,1.18-.41v-.819c-.36-.17-.72-.24-1.159-.24-.64,0-1.04,.28-1.04,.72,0,.459,.4,.75,1.02,.75Z"/>
    <path class="uuid-bf7958a5-659d-4beb-be61-7dbb269cbf63" d="M496.397,167.414h-1.129v-7.146l1.129-.19v7.336Z"/>
    <path class="uuid-bf7958a5-659d-4beb-be61-7dbb269cbf63" d="M502.357,167.514c-1.43,0-2.549-1.14-2.549-2.599,0-1.469,1.049-2.589,2.438-2.589,1.369,0,2.368,1.09,2.368,2.579v.28h-3.697c.109,.79,.729,1.37,1.499,1.37,.47,0,.909-.17,1.189-.47l.739,.689c-.609,.51-1.209,.74-1.988,.74Zm-1.42-3.019h2.608c-.13-.74-.64-1.249-1.309-1.249s-1.17,.489-1.3,1.249Z"/>
    <path class="uuid-bf7958a5-659d-4beb-be61-7dbb269cbf63" d="M509.376,166.745c-.35,.45-.909,.719-1.539,.719-1.27,0-2.269-1.129-2.269-2.548,0-1.429,1.029-2.549,2.339-2.549,.579,0,1.089,.24,1.459,.66v-2.758l1.129-.19v7.336h-1.119v-.669Zm-1.199-.23c.479,0,.89-.19,1.189-.55v-2.109c-.29-.34-.72-.54-1.189-.54-.859,0-1.489,.68-1.489,1.599,0,.909,.64,1.599,1.489,1.599Z"/>
    <path class="uuid-bf7958a5-659d-4beb-be61-7dbb269cbf63" d="M511.758,160.698c0-.38,.32-.7,.7-.7,.39,0,.709,.32,.709,.7,0,.39-.31,.689-.709,.689-.39,0-.7-.3-.7-.689Zm1.27,6.716h-1.129v-5.007h1.129v5.007Z"/>
    <path class="uuid-bf7958a5-659d-4beb-be61-7dbb269cbf63" d="M515.038,163.306h-1.01v-.899h1.01v-1.379l1.129-.24v1.619h1.399v.899h-1.399v2.539c0,.49,.19,.68,.7,.68,.229,0,.379-.03,.68-.12v.949c-.29,.09-.67,.14-.97,.14-1.01,0-1.539-.48-1.539-1.399v-2.789Z"/>
    <path class="uuid-bf7958a5-659d-4beb-be61-7dbb269cbf63" d="M520.808,162.407h1.13v.8c.369-.58,.869-.88,1.489-.88,.669,0,1.209,.38,1.469,.97,.38-.64,.949-.97,1.659-.97,.97,0,1.639,.75,1.639,1.819v3.268h-1.129v-3.028c0-.7-.39-1.149-1.01-1.149-.409,0-.739,.2-1.009,.59,.01,.11,.02,.21,.02,.32v3.268h-1.129v-3.028c0-.7-.391-1.149-1.01-1.149-.4,0-.729,.19-.989,.57v3.608h-1.13v-5.007Z"/>
    <path class="uuid-bf7958a5-659d-4beb-be61-7dbb269cbf63" d="M531.856,162.327c1.439,0,2.519,1.12,2.519,2.589,0,1.479-1.09,2.599-2.519,2.599s-2.519-1.129-2.519-2.599,1.089-2.589,2.519-2.589Zm1.399,2.599c0-.949-.59-1.629-1.399-1.629-.819,0-1.399,.68-1.399,1.629,0,.939,.58,1.609,1.399,1.609s1.399-.68,1.399-1.609Z"/>
    <path class="uuid-bf7958a5-659d-4beb-be61-7dbb269cbf63" d="M539.156,166.745c-.351,.45-.91,.719-1.54,.719-1.269,0-2.269-1.129-2.269-2.548,0-1.429,1.029-2.549,2.339-2.549,.58,0,1.09,.24,1.459,.66v-2.758l1.13-.19v7.336h-1.119v-.669Zm-1.2-.23c.48,0,.89-.19,1.189-.55v-2.109c-.289-.34-.72-.54-1.189-.54-.859,0-1.488,.68-1.488,1.599,0,.909,.64,1.599,1.488,1.599Z"/>
    <path class="uuid-bf7958a5-659d-4beb-be61-7dbb269cbf63" d="M543.996,167.514c-1.429,0-2.549-1.14-2.549-2.599,0-1.469,1.05-2.589,2.438-2.589,1.37,0,2.369,1.09,2.369,2.579v.28h-3.698c.11,.79,.729,1.37,1.499,1.37,.47,0,.91-.17,1.189-.47l.74,.689c-.61,.51-1.21,.74-1.989,.74Zm-1.419-3.019h2.608c-.13-.74-.64-1.249-1.31-1.249s-1.169,.489-1.299,1.249Z"/>
  </g>
  <g>
    <path class="uuid-bf7958a5-659d-4beb-be61-7dbb269cbf63" d="M74.926,167.514c-1.429,0-2.549-1.14-2.549-2.599,0-1.469,1.049-2.589,2.438-2.589,1.37,0,2.369,1.09,2.369,2.579v.28h-3.698c.11,.79,.729,1.37,1.499,1.37,.47,0,.91-.17,1.189-.47l.74,.689c-.61,.51-1.209,.74-1.989,.74Zm-1.419-3.019h2.608c-.13-.74-.64-1.249-1.309-1.249s-1.169,.489-1.299,1.249Z"/>
    <path class="uuid-bf7958a5-659d-4beb-be61-7dbb269cbf63" d="M81.945,166.745c-.35,.45-.91,.719-1.54,.719-1.269,0-2.269-1.129-2.269-2.548,0-1.429,1.029-2.549,2.339-2.549,.58,0,1.089,.24,1.459,.66v-2.758l1.129-.19v7.336h-1.119v-.669Zm-1.2-.23c.48,0,.89-.19,1.189-.55v-2.109c-.29-.34-.72-.54-1.189-.54-.859,0-1.489,.68-1.489,1.599,0,.909,.64,1.599,1.489,1.599Z"/>
    <path class="uuid-bf7958a5-659d-4beb-be61-7dbb269cbf63" d="M84.327,160.698c0-.38,.32-.7,.7-.7,.39,0,.709,.32,.709,.7,0,.39-.31,.689-.709,.689-.39,0-.7-.3-.7-.689Zm1.27,6.716h-1.129v-5.007h1.129v5.007Z"/>
    <path class="uuid-bf7958a5-659d-4beb-be61-7dbb269cbf63" d="M87.606,163.306h-1.009v-.899h1.009v-1.379l1.129-.24v1.619h1.399v.899h-1.399v2.539c0,.49,.19,.68,.7,.68,.229,0,.379-.03,.68-.12v.949c-.29,.09-.67,.14-.97,.14-1.009,0-1.539-.48-1.539-1.399v-2.789Z"/>
    <path class="uuid-bf7958a5-659d-4beb-be61-7dbb269cbf63" d="M93.376,162.407h1.129v.8c.37-.58,.87-.88,1.489-.88,.669,0,1.209,.38,1.469,.97,.379-.64,.949-.97,1.659-.97,.97,0,1.639,.75,1.639,1.819v3.268h-1.129v-3.028c0-.7-.39-1.149-1.009-1.149-.41,0-.74,.2-1.009,.59,.01,.11,.02,.21,.02,.32v3.268h-1.129v-3.028c0-.7-.39-1.149-1.01-1.149-.4,0-.729,.19-.989,.57v3.608h-1.129v-5.007Z"/>
    <path class="uuid-bf7958a5-659d-4beb-be61-7dbb269cbf63" d="M104.425,162.327c1.439,0,2.519,1.12,2.519,2.589,0,1.479-1.089,2.599-2.519,2.599s-2.519-1.129-2.519-2.599,1.089-2.589,2.519-2.589Zm1.399,2.599c0-.949-.59-1.629-1.399-1.629-.819,0-1.399,.68-1.399,1.629,0,.939,.58,1.609,1.399,1.609s1.399-.68,1.399-1.609Z"/>
    <path class="uuid-bf7958a5-659d-4beb-be61-7dbb269cbf63" d="M111.724,166.745c-.35,.45-.91,.719-1.54,.719-1.269,0-2.269-1.129-2.269-2.548,0-1.429,1.029-2.549,2.339-2.549,.58,0,1.089,.24,1.459,.66v-2.758l1.129-.19v7.336h-1.119v-.669Zm-1.2-.23c.48,0,.89-.19,1.189-.55v-2.109c-.29-.34-.72-.54-1.189-.54-.859,0-1.489,.68-1.489,1.599,0,.909,.64,1.599,1.489,1.599Z"/>
    <path class="uuid-bf7958a5-659d-4beb-be61-7dbb269cbf63" d="M116.565,167.514c-1.429,0-2.549-1.14-2.549-2.599,0-1.469,1.049-2.589,2.438-2.589,1.37,0,2.369,1.09,2.369,2.579v.28h-3.698c.11,.79,.729,1.37,1.499,1.37,.47,0,.91-.17,1.189-.47l.74,.689c-.61,.51-1.209,.74-1.989,.74Zm-1.419-3.019h2.608c-.13-.74-.64-1.249-1.309-1.249s-1.169,.489-1.299,1.249Z"/>
  </g>
  <g>
    <line class="uuid-ab160f8d-10bf-4ebf-becd-e1e6e12a2e02" x1="226.196" y1="79.085" x2="152.251" y2="79.085"/>
    <polygon class="uuid-930deba4-15a1-4f5f-80e3-fa9132a291d2" points="153.346 75.345 146.869 79.085 153.346 82.825 153.346 75.345"/>
  </g>
  <g>
    <line class="uuid-ab160f8d-10bf-4ebf-becd-e1e6e12a2e02" x1="220.814" y1="111.796" x2="146.869" y2="111.796"/>
    <polygon class="uuid-930deba4-15a1-4f5f-80e3-fa9132a291d2" points="219.72 108.056 226.196 111.796 219.72 115.536 219.72 108.056"/>
  </g>
  <g>
    <line class="uuid-ab160f8d-10bf-4ebf-becd-e1e6e12a2e02" x1="246.903" y1="236.324" x2="246.903" y2="150.726"/>
    <polygon class="uuid-930deba4-15a1-4f5f-80e3-fa9132a291d2" points="250.643 235.23 246.903 241.707 243.163 235.23 250.643 235.23"/>
  </g>
  <g>
    <line class="uuid-ab160f8d-10bf-4ebf-becd-e1e6e12a2e02" x1="358.325" y1="241.707" x2="358.325" y2="156.108"/>
    <polygon class="uuid-930deba4-15a1-4f5f-80e3-fa9132a291d2" points="362.064 157.202 358.325 150.726 354.585 157.202 362.064 157.202"/>
  </g>
  <g>
    <line class="uuid-ab160f8d-10bf-4ebf-becd-e1e6e12a2e02" x1="451.954" y1="92.554" x2="383.392" y2="92.554"/>
    <polygon class="uuid-930deba4-15a1-4f5f-80e3-fa9132a291d2" points="450.86 88.814 457.336 92.554 450.86 96.294 450.86 88.814"/>
    <polygon class="uuid-930deba4-15a1-4f5f-80e3-fa9132a291d2" points="384.486 88.814 378.01 92.554 384.486 96.294 384.486 88.814"/>
  </g>
  <rect class="uuid-1f0f9580-6318-4528-9061-2cdef9c3bed7" x="44.314" y="34.382" width="102.555" height="116.344"/>
  <line class="uuid-0cdc7371-9cd5-47df-8e10-e0511273454f" x1="44.314" y1="49.138" x2="52.678" y2="49.138"/>
  <line class="uuid-0cdc7371-9cd5-47df-8e10-e0511273454f" x1="44.314" y1="60.939" x2="52.678" y2="60.939"/>
  <line class="uuid-0cdc7371-9cd5-47df-8e10-e0511273454f" x1="44.314" y1="72.741" x2="52.678" y2="72.741"/>
  <line class="uuid-0cdc7371-9cd5-47df-8e10-e0511273454f" x1="44.314" y1="84.542" x2="52.678" y2="84.542"/>
  <line class="uuid-0cdc7371-9cd5-47df-8e10-e0511273454f" x1="44.314" y1="96.344" x2="52.678" y2="96.344"/>
  <line class="uuid-0cdc7371-9cd5-47df-8e10-e0511273454f" x1="44.314" y1="108.145" x2="52.678" y2="108.145"/>
  <line class="uuid-0cdc7371-9cd5-47df-8e10-e0511273454f" x1="44.314" y1="119.946" x2="52.678" y2="119.946"/>
  <line class="uuid-0cdc7371-9cd5-47df-8e10-e0511273454f" x1="44.314" y1="131.748" x2="52.678" y2="131.748"/>
  <line class="uuid-0cdc7371-9cd5-47df-8e10-e0511273454f" x1="226.196" y1="59.138" x2="234.56" y2="59.138"/>
  <line class="uuid-0cdc7371-9cd5-47df-8e10-e0511273454f" x1="226.196" y1="70.939" x2="234.56" y2="70.939"/>
  <line class="uuid-0cdc7371-9cd5-47df-8e10-e0511273454f" x1="226.196" y1="82.741" x2="234.56" y2="82.741"/>
  <line class="uuid-0cdc7371-9cd5-47df-8e10-e0511273454f" x1="226.196" y1="94.542" x2="234.56" y2="94.542"/>
  <line class="uuid-0cdc7371-9cd5-47df-8e10-e0511273454f" x1="226.196" y1="106.344" x2="234.56" y2="106.344"/>
  <line class="uuid-0cdc7371-9cd5-47df-8e10-e0511273454f" x1="226.196" y1="118.145" x2="234.56" y2="118.145"/>
  <line class="uuid-0cdc7371-9cd5-47df-8e10-e0511273454f" x1="226.196" y1="129.946" x2="234.56" y2="129.946"/>
  <line class="uuid-0cdc7371-9cd5-47df-8e10-e0511273454f" x1="226.196" y1="141.748" x2="234.56" y2="141.748"/>
  <line class="uuid-0cdc7371-9cd5-47df-8e10-e0511273454f" x1="226.196" y1="248.603" x2="234.56" y2="248.603"/>
  <line class="uuid-0cdc7371-9cd5-47df-8e10-e0511273454f" x1="226.196" y1="260.404" x2="234.56" y2="260.404"/>
  <g>
    <g>
      <path class="uuid-bf7958a5-659d-4beb-be61-7dbb269cbf63" d="M67.651,138.36h1.199v6.996h-1.199v-6.996Z"/>
      <path class="uuid-bf7958a5-659d-4beb-be61-7dbb269cbf63" d="M71.65,138.36l3.648,5.077-.02-5.077h1.129v6.996h-1.069l-3.748-5.217,.02,5.217h-1.129v-6.996h1.169Z"/>
      <path class="uuid-bf7958a5-659d-4beb-be61-7dbb269cbf63" d="M78.141,143.447c.899,.74,1.549,1.02,2.349,1.02,.929,0,1.569-.47,1.569-1.109,0-.569-.339-.83-1.269-1l-1.29-.22c-1.209-.22-1.799-.819-1.799-1.779,0-1.259,1.009-2.099,2.579-2.099,1.049,0,2.009,.32,2.809,.91l-.61,.899c-.7-.54-1.459-.81-2.239-.81-.839,0-1.389,.42-1.389,.989,0,.5,.31,.76,1.08,.88l1.239,.22c1.409,.24,2.069,.859,2.069,1.919,0,1.279-1.14,2.189-2.809,2.189-1.099,0-2.049-.38-2.938-1.129l.65-.88Z"/>
      <path class="uuid-bf7958a5-659d-4beb-be61-7dbb269cbf63" d="M84.46,138.36h5.007v1.02h-3.808v1.949h2.658v1h-2.658v2.009h3.848v1.02h-5.047v-6.996Z"/>
      <path class="uuid-bf7958a5-659d-4beb-be61-7dbb269cbf63" d="M90.871,138.36h3.108c1.379,0,2.339,.859,2.339,2.119,0,.91-.54,1.619-1.379,1.919l1.469,2.958h-1.329l-1.35-2.798h-1.659v2.798h-1.2v-6.996Zm1.2,1.009v2.229h1.809c.74,0,1.229-.44,1.229-1.109s-.49-1.12-1.229-1.12h-1.809Z"/>
      <path class="uuid-bf7958a5-659d-4beb-be61-7dbb269cbf63" d="M96.891,138.36h5.876v1.04h-2.329v5.957h-1.199v-5.957h-2.349v-1.04Z"/>
    </g>
    <line class="uuid-47406202-4fbf-4571-a936-c17b1b65bdb1" x1="45.544" y1="141.84" x2="65.828" y2="141.84"/>
    <line class="uuid-47406202-4fbf-4571-a936-c17b1b65bdb1" x1="105.071" y1="141.84" x2="125.355" y2="141.84"/>
  </g>
  <g>
    <path class="uuid-bf7958a5-659d-4beb-be61-7dbb269cbf63" d="M322.375,145.356h-1.09v-5.857l-1.239,.54v-.97l1.639-.709h.69v6.996Z"/>
    <path class="uuid-bf7958a5-659d-4beb-be61-7dbb269cbf63" d="M325.055,144.377l-.979,2.639h-.829l.669-2.639h1.14Z"/>
    <path class="uuid-bf7958a5-659d-4beb-be61-7dbb269cbf63" d="M327.675,145.356h-1.09v-5.857l-1.239,.54v-.97l1.639-.709h.69v6.996Z"/>
  </g>
  <g>
    <path class="uuid-bf7958a5-659d-4beb-be61-7dbb269cbf63" d="M231.539,270.265c0,.41-.32,.729-.7,.729s-.7-.32-.7-.729c0-.4,.32-.729,.7-.729s.7,.33,.7,.729Zm0,3.748c0,.41-.32,.729-.7,.729s-.7-.32-.7-.729c0-.4,.32-.729,.7-.729s.7,.33,.7,.729Z"/>
    <path class="uuid-bf7958a5-659d-4beb-be61-7dbb269cbf63" d="M233.709,274.652l-1.349-5.007h1.079l.88,3.538,1.029-3.538h.959l1.029,3.548,.87-3.548h1.06l-1.35,5.007h-1.089l-1.009-3.528-1.009,3.528h-1.1Z"/>
    <path class="uuid-bf7958a5-659d-4beb-be61-7dbb269cbf63" d="M239.87,272.154c0-1.429,1.029-2.549,2.339-2.549,.58,0,1.099,.24,1.469,.68v-.64h1.119v7.126h-1.129v-2.778c-.35,.44-.909,.709-1.529,.709-1.269,0-2.269-1.129-2.269-2.548Zm2.608,1.599c.48,0,.89-.19,1.189-.55v-2.109c-.29-.34-.72-.54-1.189-.54-.859,0-1.489,.68-1.489,1.599,0,.909,.64,1.599,1.489,1.599Z"/>
  </g>
  <g>
    <path class="uuid-bf7958a5-659d-4beb-be61-7dbb269cbf63" d="M357.017,138.36h1.389l2.709,6.996h-1.29l-.709-1.959h-2.879l-.72,1.959h-1.249l2.749-6.996Zm1.749,4.098l-1.08-2.979-1.099,2.979h2.179Z"/>
    <path class="uuid-bf7958a5-659d-4beb-be61-7dbb269cbf63" d="M363.876,145.356h-1.09v-5.857l-1.239,.54v-.97l1.64-.709h.689v6.996Z"/>
    <path class="uuid-bf7958a5-659d-4beb-be61-7dbb269cbf63" d="M367.296,145.356h-1.09v-5.857l-1.239,.54v-.97l1.64-.709h.689v6.996Z"/>
  </g>
  <g>
    <rect class="uuid-1f0f9580-6318-4528-9061-2cdef9c3bed7" x="457.336" y="34.382" width="102.555" height="116.344"/>
    <line class="uuid-0cdc7371-9cd5-47df-8e10-e0511273454f" x1="457.336" y1="49.138" x2="465.701" y2="49.138"/>
    <line class="uuid-0cdc7371-9cd5-47df-8e10-e0511273454f" x1="457.336" y1="60.939" x2="465.701" y2="60.939"/>
    <line class="uuid-0cdc7371-9cd5-47df-8e10-e0511273454f" x1="457.336" y1="72.741" x2="465.701" y2="72.741"/>
    <line class="uuid-0cdc7371-9cd5-47df-8e10-e0511273454f" x1="457.336" y1="84.542" x2="465.701" y2="84.542"/>
    <line class="uuid-0cdc7371-9cd5-47df-8e10-e0511273454f" x1="457.336" y1="96.344" x2="465.701" y2="96.344"/>
    <line class="uuid-0cdc7371-9cd5-47df-8e10-e0511273454f" x1="457.336" y1="108.145" x2="465.701" y2="108.145"/>
    <line class="uuid-0cdc7371-9cd5-47df-8e10-e0511273454f" x1="457.336" y1="119.946" x2="465.701" y2="119.946"/>
    <line class="uuid-0cdc7371-9cd5-47df-8e10-e0511273454f" x1="457.336" y1="131.748" x2="465.701" y2="131.748"/>
    <g>
      <g>
        <path class="uuid-bf7958a5-659d-4beb-be61-7dbb269cbf63" d="M479.839,138.36h1.289l2.149,5.787,2.169-5.787h1.239l-2.739,6.996h-1.389l-2.719-6.996Z"/>
        <path class="uuid-bf7958a5-659d-4beb-be61-7dbb269cbf63" d="M487.528,138.36h1.199v6.996h-1.199v-6.996Z"/>
        <path class="uuid-bf7958a5-659d-4beb-be61-7dbb269cbf63" d="M490.408,143.447c.899,.74,1.549,1.02,2.349,1.02,.93,0,1.569-.47,1.569-1.109,0-.569-.34-.83-1.27-1l-1.289-.22c-1.209-.22-1.799-.819-1.799-1.779,0-1.259,1.009-2.099,2.578-2.099,1.05,0,2.009,.32,2.809,.91l-.609,.899c-.7-.54-1.459-.81-2.239-.81-.839,0-1.389,.42-1.389,.989,0,.5,.31,.76,1.079,.88l1.239,.22c1.409,.24,2.069,.859,2.069,1.919,0,1.279-1.14,2.189-2.809,2.189-1.1,0-2.049-.38-2.938-1.129l.649-.88Z"/>
        <path class="uuid-bf7958a5-659d-4beb-be61-7dbb269cbf63" d="M499.527,145.457c-1.8,0-2.938-1.189-2.938-3.099v-3.998h1.199v3.998c0,1.229,.689,2.019,1.749,2.019s1.739-.79,1.739-2.019v-3.998h1.199v3.998c0,1.889-1.149,3.099-2.948,3.099Z"/>
        <path class="uuid-bf7958a5-659d-4beb-be61-7dbb269cbf63" d="M505.758,138.36h1.389l2.709,6.996h-1.29l-.709-1.959h-2.879l-.72,1.959h-1.249l2.749-6.996Zm1.749,4.098l-1.08-2.979-1.099,2.979h2.179Z"/>
        <path class="uuid-bf7958a5-659d-4beb-be61-7dbb269cbf63" d="M510.758,138.36h1.2v5.957h3.728v1.04h-4.928v-6.996Z"/>
      </g>
      <line class="uuid-47406202-4fbf-4571-a936-c17b1b65bdb1" x1="458.566" y1="141.84" x2="478.85" y2="141.84"/>
      <line class="uuid-47406202-4fbf-4571-a936-c17b1b65bdb1" x1="518.094" y1="141.84" x2="538.378" y2="141.84"/>
    </g>
  </g>
  <rect class="uuid-930deba4-15a1-4f5f-80e3-fa9132a291d2" x="226.196" y="34.382" width="8.364" height="16.498"/>
  <g>
    <rect class="uuid-8b19c4ee-2014-4667-9178-5b425d1f533d" x="408.184" y="83.065" width="18.978" height="18.978" rx="2.522" ry="2.522"/>
    <path class="uuid-bf7958a5-659d-4beb-be61-7dbb269cbf63" d="M415.594,91.318h.983l1.111,2.926,1.111-2.926h.952l-1.647,4.006h-.871l-1.64-4.006Z"/>
  </g>
  <g>
    <rect class="uuid-8b19c4ee-2014-4667-9178-5b425d1f533d" x="177.044" y="69.596" width="18.978" height="18.978" rx="2.522" ry="2.522"/>
    <path class="uuid-bf7958a5-659d-4beb-be61-7dbb269cbf63" d="M185.974,76.482c0-.304,.256-.56,.56-.56,.312,0,.567,.256,.567,.56,0,.312-.248,.552-.567,.552-.312,0-.56-.24-.56-.552Zm1.015,5.373h-.903v-4.006h.903v4.006Z"/>
  </g>
  <g>
    <rect class="uuid-8b19c4ee-2014-4667-9178-5b425d1f533d" x="177.044" y="102.307" width="18.978" height="18.978" rx="2.522" ry="2.522"/>
    <g>
      <path class="uuid-bf7958a5-659d-4beb-be61-7dbb269cbf63" d="M180.613,108.969h4.006v.816h-3.047v1.559h2.127v.799h-2.127v1.607h3.078v.815h-4.037v-5.597Z"/>
      <path class="uuid-bf7958a5-659d-4beb-be61-7dbb269cbf63" d="M185.693,113.495c.52,.328,.879,.456,1.287,.456,.479,0,.808-.216,.808-.536,0-.248-.168-.384-.552-.456l-.712-.12c-.775-.144-1.159-.504-1.159-1.104,0-.751,.615-1.239,1.551-1.239,.56,0,1.063,.152,1.575,.48l-.424,.591c-.415-.264-.799-.384-1.207-.384-.416,0-.688,.176-.688,.472,0,.256,.144,.368,.567,.44l.704,.128c.799,.152,1.183,.52,1.183,1.12,0,.735-.703,1.303-1.631,1.303-.695,0-1.303-.192-1.727-.544l.424-.607Z"/>
      <path class="uuid-bf7958a5-659d-4beb-be61-7dbb269cbf63" d="M192.363,113.407l.544,.543c-.376,.432-.951,.696-1.567,.696-1.135,0-2.022-.912-2.022-2.079,0-1.159,.879-2.063,2.022-2.063,.624,0,1.199,.24,1.6,.672l-.56,.583c-.28-.312-.624-.472-1.008-.472-.647,0-1.151,.56-1.151,1.279,0,.728,.504,1.279,1.176,1.279,.384,0,.728-.152,.967-.439Z"/>
    </g>
  </g>
  <g>
    <rect class="uuid-8b19c4ee-2014-4667-9178-5b425d1f533d" x="408.184" y="106.992" width="18.978" height="18.978" rx="2.522" ry="2.522"/>
    <path class="uuid-bf7958a5-659d-4beb-be61-7dbb269cbf63" d="M417.934,115.654h1.031l1.72,4.63,1.734-4.63h.992l-2.191,5.597h-1.111l-2.175-5.597Z"/>
    <path class="uuid-bf7958a5-659d-4beb-be61-7dbb269cbf63" d="M416.987,117.646h-1.031l-1.72-4.63-1.734,4.63h-.992l2.191-5.597h1.111l2.175,5.597Z"/>
  </g>
  <g>
    <rect class="uuid-8b19c4ee-2014-4667-9178-5b425d1f533d" x="338.64" y="192.554" width="39.37" height="18.978" rx="2.522" ry="2.522"/>
    <g>
      <path class="uuid-bf7958a5-659d-4beb-be61-7dbb269cbf63" d="M348.672,198.662h4.006v.816h-3.047v1.559h2.127v.799h-2.127v1.607h3.078v.815h-4.037v-5.597Z"/>
      <path class="uuid-bf7958a5-659d-4beb-be61-7dbb269cbf63" d="M353.688,200.253h.903v.656c.304-.472,.736-.72,1.271-.72,.815,0,1.384,.592,1.384,1.431v2.639h-.904v-2.383c0-.583-.344-.959-.879-.959-.36,0-.656,.168-.872,.48v2.862h-.903v-4.006Z"/>
      <path class="uuid-bf7958a5-659d-4beb-be61-7dbb269cbf63" d="M358.72,200.973h-.808v-.72h.808v-1.104l.903-.192v1.295h1.119v.72h-1.119v2.031c0,.392,.151,.544,.56,.544,.184,0,.304-.024,.544-.096v.76c-.232,.072-.536,.112-.775,.112-.808,0-1.231-.384-1.231-1.119v-2.231Z"/>
      <path class="uuid-bf7958a5-659d-4beb-be61-7dbb269cbf63" d="M363.335,204.339c-1.144,0-2.039-.912-2.039-2.079,0-1.175,.84-2.071,1.951-2.071,1.095,0,1.895,.872,1.895,2.063v.224h-2.958c.088,.632,.583,1.096,1.199,1.096,.376,0,.728-.136,.951-.376l.592,.552c-.487,.408-.968,.592-1.591,.592Zm-1.136-2.415h2.087c-.104-.592-.512-1-1.048-1s-.936,.392-1.039,1Z"/>
      <path class="uuid-bf7958a5-659d-4beb-be61-7dbb269cbf63" d="M366.063,200.253h.903v.872c.216-.616,.6-.943,1.104-.943,.152,.008,.256,.024,.392,.08v.792c-.144-.064-.327-.096-.495-.096-.432,0-.8,.248-1,.664v2.639h-.903v-4.006Z"/>
    </g>
  </g>
  <g>
    <rect class="uuid-8b19c4ee-2014-4667-9178-5b425d1f533d" x="408.184" y="59.138" width="18.978" height="18.978" rx="2.522" ry="2.522"/>
    <path class="uuid-bf7958a5-659d-4beb-be61-7dbb269cbf63" d="M414.934,65.8h1.031l1.72,4.63,1.734-4.63h.992l-2.191,5.597h-1.111l-2.175-5.597Z"/>
  </g>
  <g>
    <rect class="uuid-8b19c4ee-2014-4667-9178-5b425d1f533d" x="237.414" y="192.554" width="18.978" height="18.978" rx="2.522" ry="2.522"/>
    <path class="uuid-bf7958a5-659d-4beb-be61-7dbb269cbf63" d="M247.459,201.303c0,.328-.256,.584-.56,.584s-.56-.256-.56-.584c0-.32,.256-.583,.56-.583s.56,.264,.56,.583Zm0,2.999c0,.328-.256,.583-.56,.583s-.56-.256-.56-.583c0-.32,.256-.583,.56-.583s.56,.264,.56,.583Z"/>
  </g>
</svg>