<svg width="300" height="300" viewBox="0 0 300 300" fill="none" xmlns="http://www.w3.org/2000/svg">
<g clip-path="url(#clip0_127_2)">
<rect width="300" height="300" fill="#7366FF"/>
<path d="M54.5909 157V110.455H84.4091V117.523H63.0227V130.159H82.3636V137.227H63.0227V157H54.5909ZM104.392 157.682C100.983 157.682 98.0284 156.932 95.5284 155.432C93.0284 153.932 91.089 151.833 89.7102 149.136C88.3466 146.439 87.6648 143.288 87.6648 139.682C87.6648 136.076 88.3466 132.917 89.7102 130.205C91.089 127.492 93.0284 125.386 95.5284 123.886C98.0284 122.386 100.983 121.636 104.392 121.636C107.801 121.636 110.756 122.386 113.256 123.886C115.756 125.386 117.688 127.492 119.051 130.205C120.43 132.917 121.119 136.076 121.119 139.682C121.119 143.288 120.43 146.439 119.051 149.136C117.688 151.833 115.756 153.932 113.256 155.432C110.756 156.932 107.801 157.682 104.392 157.682ZM104.438 151.091C106.286 151.091 107.831 150.583 109.074 149.568C110.316 148.538 111.241 147.159 111.847 145.432C112.468 143.705 112.778 141.78 112.778 139.659C112.778 137.523 112.468 135.591 111.847 133.864C111.241 132.121 110.316 130.735 109.074 129.705C107.831 128.674 106.286 128.159 104.438 128.159C102.544 128.159 100.968 128.674 99.7102 129.705C98.4678 130.735 97.536 132.121 96.9148 133.864C96.3087 135.591 96.0057 137.523 96.0057 139.659C96.0057 141.78 96.3087 143.705 96.9148 145.432C97.536 147.159 98.4678 148.538 99.7102 149.568C100.968 150.583 102.544 151.091 104.438 151.091ZM136.33 110.455V157H128.102V110.455H136.33ZM153.017 110.455V157H144.79V110.455H153.017ZM161.477 157V122.091H169.705V157H161.477ZM165.614 117.136C164.311 117.136 163.189 116.705 162.25 115.841C161.311 114.962 160.841 113.909 160.841 112.682C160.841 111.439 161.311 110.386 162.25 109.523C163.189 108.644 164.311 108.205 165.614 108.205C166.932 108.205 168.053 108.644 168.977 109.523C169.917 110.386 170.386 111.439 170.386 112.682C170.386 113.909 169.917 114.962 168.977 115.841C168.053 116.705 166.932 117.136 165.614 117.136ZM186.392 136.545V157H178.165V122.091H186.028V128.023H186.438C187.241 126.068 188.521 124.515 190.278 123.364C192.051 122.212 194.241 121.636 196.847 121.636C199.256 121.636 201.354 122.152 203.142 123.182C204.945 124.212 206.339 125.705 207.324 127.659C208.324 129.614 208.816 131.985 208.801 134.773V157H200.574V136.045C200.574 133.712 199.968 131.886 198.756 130.568C197.559 129.25 195.9 128.591 193.778 128.591C192.339 128.591 191.059 128.909 189.938 129.545C188.831 130.167 187.96 131.068 187.324 132.25C186.703 133.432 186.392 134.864 186.392 136.545ZM227.21 157.705C224.998 157.705 223.006 157.311 221.233 156.523C219.475 155.72 218.081 154.538 217.051 152.977C216.036 151.417 215.528 149.492 215.528 147.205C215.528 145.235 215.892 143.606 216.619 142.318C217.347 141.03 218.339 140 219.597 139.227C220.854 138.455 222.271 137.871 223.847 137.477C225.438 137.068 227.081 136.773 228.778 136.591C230.824 136.379 232.483 136.189 233.756 136.023C235.028 135.841 235.953 135.568 236.528 135.205C237.119 134.826 237.415 134.242 237.415 133.455V133.318C237.415 131.606 236.907 130.28 235.892 129.341C234.877 128.402 233.415 127.932 231.506 127.932C229.491 127.932 227.892 128.371 226.71 129.25C225.544 130.129 224.756 131.167 224.347 132.364L216.665 131.273C217.271 129.152 218.271 127.379 219.665 125.955C221.059 124.515 222.763 123.439 224.778 122.727C226.794 122 229.021 121.636 231.46 121.636C233.142 121.636 234.816 121.833 236.483 122.227C238.15 122.621 239.672 123.273 241.051 124.182C242.43 125.076 243.536 126.295 244.369 127.841C245.218 129.386 245.642 131.318 245.642 133.636V157H237.733V152.205H237.46C236.96 153.174 236.256 154.083 235.347 154.932C234.453 155.765 233.324 156.439 231.96 156.955C230.612 157.455 229.028 157.705 227.21 157.705ZM229.347 151.659C230.998 151.659 232.43 151.333 233.642 150.682C234.854 150.015 235.786 149.136 236.438 148.045C237.104 146.955 237.438 145.765 237.438 144.477V140.364C237.18 140.576 236.741 140.773 236.119 140.955C235.513 141.136 234.831 141.295 234.074 141.432C233.316 141.568 232.566 141.689 231.824 141.795C231.081 141.902 230.438 141.992 229.892 142.068C228.665 142.235 227.566 142.508 226.597 142.886C225.627 143.265 224.862 143.795 224.301 144.477C223.741 145.144 223.46 146.008 223.46 147.068C223.46 148.583 224.013 149.727 225.119 150.5C226.225 151.273 227.634 151.659 229.347 151.659Z" fill="white"/>
<path d="M42.1648 233V231.359L49.6222 220.663H42.1222V218.455H52.8892V220.095L45.4389 230.791H52.9318V233H42.1648ZM60.1974 233.213C59.1037 233.213 58.1591 232.986 57.3636 232.531C56.5729 232.072 55.9645 231.423 55.5384 230.585C55.1122 229.742 54.8991 228.75 54.8991 227.609C54.8991 226.487 55.1122 225.502 55.5384 224.655C55.9692 223.803 56.5705 223.14 57.3423 222.666C58.1141 222.188 59.0208 221.949 60.0625 221.949C60.7348 221.949 61.3693 222.058 61.9659 222.276C62.5672 222.489 63.0975 222.82 63.5568 223.27C64.0208 223.72 64.3854 224.293 64.6506 224.989C64.9157 225.68 65.0483 226.504 65.0483 227.46V228.249H56.1065V226.516H62.5838C62.5791 226.023 62.4725 225.585 62.2642 225.202C62.0559 224.813 61.7647 224.508 61.3906 224.286C61.0213 224.063 60.5904 223.952 60.098 223.952C59.5724 223.952 59.1108 224.08 58.7131 224.335C58.3153 224.586 58.0052 224.918 57.7827 225.33C57.5649 225.737 57.4536 226.184 57.4489 226.672V228.185C57.4489 228.819 57.5649 229.364 57.7969 229.818C58.0289 230.268 58.3532 230.614 58.7699 230.855C59.1866 231.092 59.6742 231.21 60.233 231.21C60.607 231.21 60.9455 231.158 61.2486 231.054C61.5516 230.945 61.8144 230.786 62.0369 230.578C62.2595 230.37 62.4276 230.112 62.5412 229.804L64.9418 230.074C64.7902 230.708 64.5014 231.262 64.0753 231.736C63.6539 232.205 63.1141 232.569 62.456 232.83C61.7978 233.085 61.045 233.213 60.1974 233.213ZM67.2234 233V222.091H69.7163V223.909H69.8299C70.0288 223.279 70.3697 222.794 70.8526 222.453C71.3403 222.107 71.8967 221.935 72.5217 221.935C72.6637 221.935 72.8223 221.942 72.9975 221.956C73.1774 221.965 73.3266 221.982 73.445 222.006V224.371C73.3361 224.333 73.1632 224.3 72.9265 224.271C72.6945 224.238 72.4696 224.222 72.2518 224.222C71.783 224.222 71.3616 224.323 70.9876 224.527C70.6183 224.726 70.3271 225.003 70.114 225.358C69.9009 225.713 69.7944 226.123 69.7944 226.587V233H67.2234ZM79.4624 233.213C78.397 233.213 77.4737 232.979 76.6925 232.51C75.9112 232.041 75.3052 231.385 74.8743 230.543C74.4482 229.7 74.2351 228.715 74.2351 227.588C74.2351 226.461 74.4482 225.474 74.8743 224.626C75.3052 223.779 75.9112 223.121 76.6925 222.652C77.4737 222.183 78.397 221.949 79.4624 221.949C80.5277 221.949 81.451 222.183 82.2322 222.652C83.0135 223.121 83.6172 223.779 84.0433 224.626C84.4742 225.474 84.6896 226.461 84.6896 227.588C84.6896 228.715 84.4742 229.7 84.0433 230.543C83.6172 231.385 83.0135 232.041 82.2322 232.51C81.451 232.979 80.5277 233.213 79.4624 233.213ZM79.4766 231.153C80.0542 231.153 80.5372 230.995 80.9254 230.678C81.3137 230.356 81.6025 229.925 81.7919 229.385C81.986 228.845 82.0831 228.244 82.0831 227.581C82.0831 226.913 81.986 226.31 81.7919 225.77C81.6025 225.225 81.3137 224.792 80.9254 224.47C80.5372 224.148 80.0542 223.987 79.4766 223.987C78.8847 223.987 78.3923 224.148 77.9993 224.47C77.611 224.792 77.3198 225.225 77.1257 225.77C76.9363 226.31 76.8416 226.913 76.8416 227.581C76.8416 228.244 76.9363 228.845 77.1257 229.385C77.3198 229.925 77.611 230.356 77.9993 230.678C78.3923 230.995 78.8847 231.153 79.4766 231.153ZM93.484 225.884V228H86.9357V225.884H93.484ZM101.231 233H96.3018V218.455H101.33C102.774 218.455 104.015 218.746 105.052 219.328C106.094 219.906 106.894 220.737 107.452 221.821C108.011 222.905 108.29 224.203 108.29 225.713C108.29 227.228 108.009 228.53 107.445 229.619C106.887 230.708 106.079 231.544 105.023 232.126C103.972 232.709 102.708 233 101.231 233ZM98.9368 230.72H101.103C102.116 230.72 102.961 230.536 103.638 230.166C104.316 229.792 104.825 229.236 105.165 228.497C105.506 227.754 105.677 226.826 105.677 225.713C105.677 224.6 105.506 223.677 105.165 222.943C104.825 222.205 104.32 221.653 103.653 221.288C102.99 220.919 102.166 220.734 101.181 220.734H98.9368V230.72ZM113.82 233.22C113.128 233.22 112.506 233.097 111.952 232.851C111.402 232.6 110.967 232.231 110.645 231.743C110.328 231.255 110.169 230.654 110.169 229.939C110.169 229.323 110.283 228.814 110.51 228.412C110.737 228.009 111.047 227.688 111.44 227.446C111.833 227.205 112.276 227.022 112.768 226.899C113.266 226.771 113.779 226.679 114.31 226.622C114.949 226.556 115.467 226.497 115.865 226.445C116.263 226.388 116.552 226.303 116.732 226.189C116.916 226.071 117.009 225.888 117.009 225.642V225.599C117.009 225.064 116.85 224.65 116.533 224.357C116.215 224.063 115.759 223.916 115.162 223.916C114.532 223.916 114.033 224.054 113.663 224.328C113.299 224.603 113.053 224.927 112.925 225.301L110.524 224.96C110.714 224.297 111.026 223.743 111.462 223.298C111.897 222.848 112.43 222.512 113.06 222.29C113.689 222.062 114.385 221.949 115.148 221.949C115.673 221.949 116.196 222.01 116.717 222.134C117.238 222.257 117.714 222.46 118.145 222.744C118.576 223.024 118.921 223.405 119.182 223.888C119.447 224.371 119.58 224.974 119.58 225.699V233H117.108V231.501H117.023C116.866 231.804 116.646 232.089 116.362 232.354C116.083 232.614 115.73 232.825 115.304 232.986C114.883 233.142 114.388 233.22 113.82 233.22ZM114.487 231.331C115.003 231.331 115.451 231.229 115.83 231.026C116.208 230.817 116.5 230.543 116.703 230.202C116.911 229.861 117.016 229.489 117.016 229.087V227.801C116.935 227.867 116.798 227.929 116.604 227.986C116.414 228.043 116.201 228.092 115.964 228.135C115.728 228.178 115.493 228.215 115.261 228.249C115.029 228.282 114.828 228.31 114.658 228.334C114.274 228.386 113.931 228.471 113.628 228.589C113.325 228.708 113.086 228.874 112.911 229.087C112.735 229.295 112.648 229.565 112.648 229.896C112.648 230.37 112.821 230.727 113.166 230.969C113.512 231.21 113.952 231.331 114.487 231.331ZM123.372 237.091C123.022 237.091 122.697 237.063 122.399 237.006C122.106 236.954 121.871 236.892 121.696 236.821L122.293 234.818C122.667 234.927 123 234.979 123.294 234.974C123.588 234.97 123.846 234.877 124.068 234.697C124.295 234.522 124.487 234.229 124.643 233.817L124.864 233.227L120.908 222.091H123.635L126.149 230.33H126.263L128.784 222.091H131.518L127.151 234.321C126.947 234.899 126.677 235.393 126.341 235.805C126.005 236.222 125.593 236.539 125.105 236.757C124.622 236.98 124.045 237.091 123.372 237.091ZM140.318 218.455L144.104 229.903H144.253L148.031 218.455H150.929L145.801 233H142.548L137.428 218.455H140.318ZM159.684 228.412V222.091H162.255V233H159.762V231.061H159.649C159.403 231.672 158.998 232.171 158.434 232.56C157.876 232.948 157.187 233.142 156.368 233.142C155.653 233.142 155.02 232.983 154.471 232.666C153.927 232.344 153.501 231.878 153.193 231.267C152.885 230.652 152.731 229.908 152.731 229.037V222.091H155.302V228.639C155.302 229.33 155.492 229.88 155.87 230.287C156.249 230.694 156.746 230.898 157.362 230.898C157.741 230.898 158.108 230.805 158.463 230.621C158.818 230.436 159.109 230.161 159.336 229.797C159.568 229.428 159.684 228.966 159.684 228.412ZM167.47 218.455V233H164.899V218.455H167.47ZM172.685 226.608V233H170.114V222.091H172.571V223.945H172.699C172.95 223.334 173.35 222.848 173.9 222.489C174.453 222.129 175.138 221.949 175.952 221.949C176.705 221.949 177.361 222.11 177.919 222.432C178.483 222.754 178.918 223.22 179.226 223.831C179.539 224.442 179.693 225.183 179.688 226.054V233H177.117V226.452C177.117 225.723 176.927 225.152 176.549 224.74C176.175 224.328 175.656 224.122 174.993 224.122C174.543 224.122 174.143 224.222 173.793 224.42C173.447 224.615 173.175 224.896 172.976 225.266C172.782 225.635 172.685 226.082 172.685 226.608ZM187.131 233.213C186.037 233.213 185.093 232.986 184.297 232.531C183.507 232.072 182.898 231.423 182.472 230.585C182.046 229.742 181.833 228.75 181.833 227.609C181.833 226.487 182.046 225.502 182.472 224.655C182.903 223.803 183.504 223.14 184.276 222.666C185.048 222.188 185.954 221.949 186.996 221.949C187.668 221.949 188.303 222.058 188.9 222.276C189.501 222.489 190.031 222.82 190.49 223.27C190.954 223.72 191.319 224.293 191.584 224.989C191.849 225.68 191.982 226.504 191.982 227.46V228.249H183.04V226.516H189.517C189.513 226.023 189.406 225.585 189.198 225.202C188.989 224.813 188.698 224.508 188.324 224.286C187.955 224.063 187.524 223.952 187.032 223.952C186.506 223.952 186.044 224.08 185.647 224.335C185.249 224.586 184.939 224.918 184.716 225.33C184.498 225.737 184.387 226.184 184.382 226.672V228.185C184.382 228.819 184.498 229.364 184.73 229.818C184.962 230.268 185.287 230.614 185.703 230.855C186.12 231.092 186.608 231.21 187.167 231.21C187.541 231.21 187.879 231.158 188.182 231.054C188.485 230.945 188.748 230.786 188.971 230.578C189.193 230.37 189.361 230.112 189.475 229.804L191.875 230.074C191.724 230.708 191.435 231.262 191.009 231.736C190.587 232.205 190.048 232.569 189.39 232.83C188.731 233.085 187.979 233.213 187.131 233.213ZM194.157 233V222.091H196.65V223.909H196.763C196.962 223.279 197.303 222.794 197.786 222.453C198.274 222.107 198.83 221.935 199.455 221.935C199.597 221.935 199.756 221.942 199.931 221.956C200.111 221.965 200.26 221.982 200.379 222.006V224.371C200.27 224.333 200.097 224.3 199.86 224.271C199.628 224.238 199.403 224.222 199.185 224.222C198.717 224.222 198.295 224.323 197.921 224.527C197.552 224.726 197.261 225.003 197.048 225.358C196.835 225.713 196.728 226.123 196.728 226.587V233H194.157ZM205.031 233.22C204.339 233.22 203.717 233.097 203.163 232.851C202.613 232.6 202.178 232.231 201.856 231.743C201.539 231.255 201.38 230.654 201.38 229.939C201.38 229.323 201.494 228.814 201.721 228.412C201.948 228.009 202.258 227.688 202.651 227.446C203.044 227.205 203.487 227.022 203.979 226.899C204.477 226.771 204.99 226.679 205.521 226.622C206.16 226.556 206.678 226.497 207.076 226.445C207.474 226.388 207.763 226.303 207.942 226.189C208.127 226.071 208.219 225.888 208.219 225.642V225.599C208.219 225.064 208.061 224.65 207.744 224.357C207.426 224.063 206.969 223.916 206.373 223.916C205.743 223.916 205.244 224.054 204.874 224.328C204.51 224.603 204.263 224.927 204.136 225.301L201.735 224.96C201.924 224.297 202.237 223.743 202.673 223.298C203.108 222.848 203.641 222.512 204.271 222.29C204.9 222.062 205.596 221.949 206.359 221.949C206.884 221.949 207.407 222.01 207.928 222.134C208.449 222.257 208.925 222.46 209.356 222.744C209.787 223.024 210.132 223.405 210.393 223.888C210.658 224.371 210.79 224.974 210.79 225.699V233H208.319V231.501H208.234C208.077 231.804 207.857 232.089 207.573 232.354C207.294 232.614 206.941 232.825 206.515 232.986C206.094 233.142 205.599 233.22 205.031 233.22ZM205.698 231.331C206.214 231.331 206.662 231.229 207.04 231.026C207.419 230.817 207.71 230.543 207.914 230.202C208.122 229.861 208.227 229.489 208.227 229.087V227.801C208.146 227.867 208.009 227.929 207.815 227.986C207.625 228.043 207.412 228.092 207.175 228.135C206.939 228.178 206.704 228.215 206.472 228.249C206.24 228.282 206.039 228.31 205.869 228.334C205.485 228.386 205.142 228.471 204.839 228.589C204.536 228.708 204.297 228.874 204.121 229.087C203.946 229.295 203.859 229.565 203.859 229.896C203.859 230.37 204.031 230.727 204.377 230.969C204.723 231.21 205.163 231.331 205.698 231.331ZM213.489 233V218.455H216.06V223.895H216.167C216.299 223.63 216.487 223.348 216.728 223.05C216.969 222.747 217.296 222.489 217.708 222.276C218.12 222.058 218.646 221.949 219.285 221.949C220.128 221.949 220.888 222.164 221.565 222.595C222.246 223.021 222.786 223.653 223.184 224.491C223.586 225.325 223.788 226.348 223.788 227.56C223.788 228.758 223.591 229.776 223.198 230.614C222.805 231.452 222.27 232.091 221.593 232.531C220.916 232.972 220.149 233.192 219.292 233.192C218.667 233.192 218.148 233.088 217.737 232.879C217.325 232.671 216.993 232.42 216.742 232.126C216.496 231.828 216.304 231.546 216.167 231.281H216.018V233H213.489ZM216.011 227.545C216.011 228.251 216.11 228.869 216.309 229.399C216.513 229.929 216.804 230.344 217.183 230.642C217.566 230.936 218.03 231.082 218.575 231.082C219.143 231.082 219.619 230.931 220.002 230.628C220.386 230.32 220.674 229.901 220.869 229.371C221.067 228.836 221.167 228.227 221.167 227.545C221.167 226.868 221.07 226.267 220.876 225.741C220.682 225.216 220.393 224.804 220.009 224.506C219.626 224.207 219.147 224.058 218.575 224.058C218.025 224.058 217.559 224.203 217.175 224.491C216.792 224.78 216.501 225.185 216.302 225.706C216.108 226.227 216.011 226.84 216.011 227.545ZM225.973 233V222.091H228.544V233H225.973ZM227.266 220.543C226.859 220.543 226.508 220.408 226.215 220.138C225.921 219.863 225.775 219.534 225.775 219.151C225.775 218.762 225.921 218.433 226.215 218.163C226.508 217.889 226.859 217.751 227.266 217.751C227.678 217.751 228.028 217.889 228.317 218.163C228.611 218.433 228.757 218.762 228.757 219.151C228.757 219.534 228.611 219.863 228.317 220.138C228.028 220.408 227.678 220.543 227.266 220.543ZM233.759 218.455V233H231.188V218.455H233.759ZM236.403 233V222.091H238.974V233H236.403ZM237.696 220.543C237.288 220.543 236.938 220.408 236.645 220.138C236.351 219.863 236.204 219.534 236.204 219.151C236.204 218.762 236.351 218.433 236.645 218.163C236.938 217.889 237.288 217.751 237.696 217.751C238.108 217.751 238.458 217.889 238.747 218.163C239.04 218.433 239.187 218.762 239.187 219.151C239.187 219.534 239.04 219.863 238.747 220.138C238.458 220.408 238.108 220.543 237.696 220.543ZM247.065 222.091V224.08H240.794V222.091H247.065ZM242.342 219.477H244.913V229.719C244.913 230.064 244.965 230.33 245.07 230.514C245.179 230.694 245.321 230.817 245.496 230.884C245.671 230.95 245.865 230.983 246.078 230.983C246.239 230.983 246.386 230.971 246.518 230.947C246.656 230.924 246.76 230.902 246.831 230.884L247.264 232.893C247.127 232.941 246.93 232.993 246.675 233.05C246.424 233.107 246.116 233.14 245.751 233.149C245.107 233.168 244.527 233.071 244.011 232.858C243.495 232.64 243.086 232.304 242.783 231.849C242.484 231.395 242.338 230.827 242.342 230.145V219.477ZM250.814 237.091C250.463 237.091 250.139 237.063 249.841 237.006C249.547 236.954 249.313 236.892 249.137 236.821L249.734 234.818C250.108 234.927 250.442 234.979 250.735 234.974C251.029 234.97 251.287 234.877 251.51 234.697C251.737 234.522 251.929 234.229 252.085 233.817L252.305 233.227L248.349 222.091H251.076L253.591 230.33H253.704L256.225 222.091H258.96L254.592 234.321C254.388 234.899 254.118 235.393 253.782 235.805C253.446 236.222 253.034 236.539 252.547 236.757C252.064 236.98 251.486 237.091 250.814 237.091Z" fill="#292D32"/>
<path d="M105.435 185.455H108.659L112.977 195.994H113.148L117.466 185.455H120.69V200H118.162V190.007H118.027L114.007 199.957H112.118L108.098 189.986H107.963V200H105.435V185.455ZM123.446 200V189.091H126.017V200H123.446ZM124.739 187.543C124.331 187.543 123.981 187.408 123.688 187.138C123.394 186.863 123.247 186.534 123.247 186.151C123.247 185.762 123.394 185.433 123.688 185.163C123.981 184.889 124.331 184.751 124.739 184.751C125.151 184.751 125.501 184.889 125.79 185.163C126.083 185.433 126.23 185.762 126.23 186.151C126.23 186.534 126.083 186.863 125.79 187.138C125.501 187.408 125.151 187.543 124.739 187.543ZM133.419 200.213C132.33 200.213 131.395 199.974 130.614 199.496C129.837 199.018 129.239 198.357 128.817 197.514C128.4 196.667 128.192 195.691 128.192 194.588C128.192 193.48 128.405 192.502 128.831 191.655C129.257 190.803 129.859 190.14 130.635 189.666C131.417 189.188 132.34 188.949 133.405 188.949C134.291 188.949 135.074 189.112 135.756 189.439C136.443 189.761 136.989 190.218 137.397 190.81C137.804 191.397 138.036 192.083 138.093 192.869H135.635C135.536 192.344 135.299 191.906 134.925 191.555C134.556 191.2 134.061 191.023 133.441 191.023C132.915 191.023 132.453 191.165 132.056 191.449C131.658 191.728 131.348 192.131 131.125 192.656C130.908 193.182 130.799 193.812 130.799 194.545C130.799 195.289 130.908 195.928 131.125 196.463C131.343 196.993 131.649 197.403 132.042 197.692C132.439 197.976 132.906 198.118 133.441 198.118C133.819 198.118 134.158 198.047 134.456 197.905C134.759 197.758 135.013 197.547 135.216 197.273C135.42 196.998 135.56 196.664 135.635 196.271H138.093C138.031 197.043 137.804 197.727 137.411 198.324C137.018 198.916 136.483 199.38 135.806 199.716C135.129 200.047 134.333 200.213 133.419 200.213ZM140.204 200V189.091H142.697V190.909H142.81C143.009 190.279 143.35 189.794 143.833 189.453C144.321 189.107 144.877 188.935 145.502 188.935C145.644 188.935 145.803 188.942 145.978 188.956C146.158 188.965 146.307 188.982 146.425 189.006V191.371C146.317 191.333 146.144 191.3 145.907 191.271C145.675 191.238 145.45 191.222 145.232 191.222C144.763 191.222 144.342 191.323 143.968 191.527C143.599 191.726 143.308 192.003 143.094 192.358C142.881 192.713 142.775 193.123 142.775 193.587V200H140.204ZM152.443 200.213C151.377 200.213 150.454 199.979 149.673 199.51C148.892 199.041 148.286 198.385 147.855 197.543C147.429 196.7 147.216 195.715 147.216 194.588C147.216 193.461 147.429 192.474 147.855 191.626C148.286 190.779 148.892 190.121 149.673 189.652C150.454 189.183 151.377 188.949 152.443 188.949C153.508 188.949 154.431 189.183 155.213 189.652C155.994 190.121 156.598 190.779 157.024 191.626C157.455 192.474 157.67 193.461 157.67 194.588C157.67 195.715 157.455 196.7 157.024 197.543C156.598 198.385 155.994 199.041 155.213 199.51C154.431 199.979 153.508 200.213 152.443 200.213ZM152.457 198.153C153.035 198.153 153.518 197.995 153.906 197.678C154.294 197.356 154.583 196.925 154.772 196.385C154.967 195.845 155.064 195.244 155.064 194.581C155.064 193.913 154.967 193.31 154.772 192.77C154.583 192.225 154.294 191.792 153.906 191.47C153.518 191.148 153.035 190.987 152.457 190.987C151.865 190.987 151.373 191.148 150.98 191.47C150.592 191.792 150.3 192.225 150.106 192.77C149.917 193.31 149.822 193.913 149.822 194.581C149.822 195.244 149.917 195.845 150.106 196.385C150.3 196.925 150.592 197.356 150.98 197.678C151.373 197.995 151.865 198.153 152.457 198.153ZM168.474 191.974L166.131 192.23C166.064 191.993 165.948 191.771 165.783 191.562C165.622 191.354 165.404 191.186 165.129 191.058C164.855 190.93 164.518 190.866 164.121 190.866C163.586 190.866 163.136 190.982 162.771 191.214C162.411 191.446 162.234 191.747 162.239 192.116C162.234 192.434 162.35 192.692 162.587 192.891C162.828 193.089 163.226 193.253 163.78 193.381L165.641 193.778C166.673 194.001 167.44 194.354 167.942 194.837C168.448 195.32 168.704 195.952 168.709 196.733C168.704 197.42 168.503 198.026 168.105 198.551C167.712 199.072 167.165 199.479 166.464 199.773C165.764 200.066 164.959 200.213 164.05 200.213C162.714 200.213 161.64 199.934 160.825 199.375C160.011 198.812 159.526 198.028 159.369 197.024L161.876 196.783C161.99 197.275 162.232 197.647 162.601 197.898C162.97 198.149 163.451 198.274 164.043 198.274C164.653 198.274 165.143 198.149 165.513 197.898C165.887 197.647 166.074 197.337 166.074 196.967C166.074 196.655 165.953 196.397 165.712 196.193C165.475 195.99 165.106 195.833 164.604 195.724L162.743 195.334C161.696 195.116 160.922 194.749 160.42 194.233C159.919 193.712 159.67 193.054 159.675 192.259C159.67 191.586 159.852 191.004 160.222 190.511C160.596 190.014 161.114 189.631 161.777 189.361C162.445 189.086 163.214 188.949 164.085 188.949C165.364 188.949 166.37 189.221 167.104 189.766C167.842 190.31 168.299 191.046 168.474 191.974ZM175.587 200.213C174.522 200.213 173.599 199.979 172.817 199.51C172.036 199.041 171.43 198.385 170.999 197.543C170.573 196.7 170.36 195.715 170.36 194.588C170.36 193.461 170.573 192.474 170.999 191.626C171.43 190.779 172.036 190.121 172.817 189.652C173.599 189.183 174.522 188.949 175.587 188.949C176.653 188.949 177.576 189.183 178.357 189.652C179.138 190.121 179.742 190.779 180.168 191.626C180.599 192.474 180.815 193.461 180.815 194.588C180.815 195.715 180.599 196.7 180.168 197.543C179.742 198.385 179.138 199.041 178.357 199.51C177.576 199.979 176.653 200.213 175.587 200.213ZM175.602 198.153C176.179 198.153 176.662 197.995 177.05 197.678C177.439 197.356 177.728 196.925 177.917 196.385C178.111 195.845 178.208 195.244 178.208 194.581C178.208 193.913 178.111 193.31 177.917 192.77C177.728 192.225 177.439 191.792 177.05 191.47C176.662 191.148 176.179 190.987 175.602 190.987C175.01 190.987 174.517 191.148 174.124 191.47C173.736 191.792 173.445 192.225 173.251 192.77C173.061 193.31 172.967 193.913 172.967 194.581C172.967 195.244 173.061 195.845 173.251 196.385C173.445 196.925 173.736 197.356 174.124 197.678C174.517 197.995 175.01 198.153 175.602 198.153ZM188.522 189.091V191.08H182.074V189.091H188.522ZM183.686 200V188.061C183.686 187.327 183.837 186.716 184.14 186.229C184.448 185.741 184.86 185.376 185.376 185.135C185.892 184.893 186.465 184.773 187.095 184.773C187.54 184.773 187.935 184.808 188.281 184.879C188.627 184.95 188.882 185.014 189.048 185.071L188.537 187.06C188.428 187.027 188.29 186.993 188.125 186.96C187.959 186.922 187.774 186.903 187.571 186.903C187.092 186.903 186.754 187.019 186.555 187.251C186.361 187.479 186.264 187.805 186.264 188.232V200H183.686ZM195.983 189.091V191.08H189.712V189.091H195.983ZM191.26 186.477H193.831V196.719C193.831 197.064 193.883 197.33 193.988 197.514C194.096 197.694 194.239 197.817 194.414 197.884C194.589 197.95 194.783 197.983 194.996 197.983C195.157 197.983 195.304 197.971 195.436 197.947C195.574 197.924 195.678 197.902 195.749 197.884L196.182 199.893C196.045 199.941 195.848 199.993 195.593 200.05C195.342 200.107 195.034 200.14 194.669 200.149C194.025 200.168 193.445 200.071 192.929 199.858C192.413 199.64 192.004 199.304 191.701 198.849C191.402 198.395 191.256 197.827 191.26 197.145V186.477Z" fill="white"/>
</g>
<defs>
<clipPath id="clip0_127_2">
<rect width="300" height="300" fill="white"/>
</clipPath>
</defs>
</svg>
