<svg width="300" height="300" viewBox="0 0 300 300" fill="none" xmlns="http://www.w3.org/2000/svg">
<g clip-path="url(#clip0_135_2)">
<rect width="300" height="300" fill="#7366FF"/>
<path d="M41.4553 170V140.909H60.0916V145.327H46.7251V153.224H58.8132V157.642H46.7251V170H41.4553ZM72.581 170.426C70.4503 170.426 68.6037 169.957 67.0412 169.02C65.4787 168.082 64.2666 166.771 63.4048 165.085C62.5526 163.4 62.1264 161.43 62.1264 159.176C62.1264 156.922 62.5526 154.948 63.4048 153.253C64.2666 151.558 65.4787 150.241 67.0412 149.304C68.6037 148.366 70.4503 147.898 72.581 147.898C74.7116 147.898 76.5582 148.366 78.1207 149.304C79.6832 150.241 80.8906 151.558 81.7429 153.253C82.6046 154.948 83.0355 156.922 83.0355 159.176C83.0355 161.43 82.6046 163.4 81.7429 165.085C80.8906 166.771 79.6832 168.082 78.1207 169.02C76.5582 169.957 74.7116 170.426 72.581 170.426ZM72.6094 166.307C73.7647 166.307 74.7306 165.99 75.5071 165.355C76.2836 164.711 76.8613 163.849 77.2401 162.77C77.6283 161.69 77.8224 160.488 77.8224 159.162C77.8224 157.827 77.6283 156.619 77.2401 155.54C76.8613 154.451 76.2836 153.584 75.5071 152.94C74.7306 152.296 73.7647 151.974 72.6094 151.974C71.4257 151.974 70.4408 152.296 69.6548 152.94C68.8783 153.584 68.2959 154.451 67.9077 155.54C67.5289 156.619 67.3395 157.827 67.3395 159.162C67.3395 160.488 67.5289 161.69 67.9077 162.77C68.2959 163.849 68.8783 164.711 69.6548 165.355C70.4408 165.99 71.4257 166.307 72.6094 166.307ZM92.5419 140.909V170H87.3999V140.909H92.5419ZM102.972 140.909V170H97.8295V140.909H102.972ZM108.259 170V148.182H113.401V170H108.259ZM110.844 145.085C110.03 145.085 109.329 144.815 108.742 144.276C108.155 143.726 107.862 143.068 107.862 142.301C107.862 141.525 108.155 140.866 108.742 140.327C109.329 139.777 110.03 139.503 110.844 139.503C111.668 139.503 112.369 139.777 112.947 140.327C113.534 140.866 113.827 141.525 113.827 142.301C113.827 143.068 113.534 143.726 112.947 144.276C112.369 144.815 111.668 145.085 110.844 145.085ZM123.831 157.216V170H118.689V148.182H123.604V151.889H123.859C124.361 150.668 125.161 149.697 126.26 148.977C127.368 148.258 128.736 147.898 130.365 147.898C131.871 147.898 133.182 148.22 134.3 148.864C135.427 149.508 136.298 150.44 136.913 151.662C137.538 152.884 137.846 154.366 137.837 156.108V170H132.695V156.903C132.695 155.445 132.316 154.304 131.558 153.48C130.81 152.656 129.773 152.244 128.447 152.244C127.548 152.244 126.748 152.443 126.047 152.841C125.356 153.229 124.811 153.793 124.413 154.531C124.025 155.27 123.831 156.165 123.831 157.216ZM149.342 170.44C147.96 170.44 146.714 170.194 145.607 169.702C144.508 169.2 143.637 168.461 142.993 167.486C142.358 166.51 142.041 165.308 142.041 163.878C142.041 162.647 142.268 161.629 142.723 160.824C143.178 160.019 143.798 159.375 144.584 158.892C145.37 158.409 146.255 158.045 147.24 157.798C148.234 157.543 149.262 157.358 150.322 157.244C151.601 157.112 152.638 156.993 153.433 156.889C154.229 156.776 154.806 156.605 155.166 156.378C155.536 156.141 155.72 155.777 155.72 155.284V155.199C155.72 154.129 155.403 153.3 154.768 152.713C154.134 152.126 153.22 151.832 152.027 151.832C150.768 151.832 149.768 152.107 149.03 152.656C148.301 153.205 147.808 153.854 147.553 154.602L142.751 153.92C143.13 152.595 143.755 151.487 144.626 150.597C145.498 149.697 146.563 149.025 147.822 148.58C149.082 148.125 150.474 147.898 151.999 147.898C153.05 147.898 154.096 148.021 155.138 148.267C156.179 148.513 157.131 148.92 157.993 149.489C158.855 150.047 159.546 150.81 160.067 151.776C160.597 152.741 160.862 153.949 160.862 155.398V170H155.919V167.003H155.749C155.436 167.609 154.996 168.177 154.428 168.707C153.869 169.228 153.163 169.65 152.311 169.972C151.468 170.284 150.479 170.44 149.342 170.44ZM150.678 166.662C151.71 166.662 152.605 166.458 153.362 166.051C154.12 165.634 154.702 165.085 155.109 164.403C155.526 163.722 155.734 162.978 155.734 162.173V159.602C155.573 159.735 155.299 159.858 154.911 159.972C154.532 160.085 154.106 160.185 153.632 160.27C153.159 160.355 152.69 160.431 152.226 160.497C151.762 160.563 151.359 160.62 151.018 160.668C150.251 160.772 149.565 160.942 148.959 161.179C148.353 161.416 147.875 161.747 147.524 162.173C147.174 162.59 146.999 163.13 146.999 163.793C146.999 164.74 147.344 165.455 148.036 165.938C148.727 166.42 149.607 166.662 150.678 166.662ZM175.642 170V166.719L190.557 145.327H175.557V140.909H197.091V144.19L182.19 165.582H197.176V170H175.642ZM211.707 170.426C209.52 170.426 207.631 169.972 206.04 169.062C204.458 168.144 203.241 166.847 202.389 165.17C201.537 163.485 201.111 161.501 201.111 159.219C201.111 156.974 201.537 155.005 202.389 153.31C203.251 151.605 204.454 150.279 205.997 149.332C207.541 148.376 209.354 147.898 211.438 147.898C212.782 147.898 214.051 148.116 215.244 148.551C216.447 148.977 217.508 149.64 218.426 150.54C219.354 151.439 220.083 152.585 220.614 153.977C221.144 155.36 221.409 157.008 221.409 158.92V160.497H203.526V157.031H216.48C216.471 156.046 216.258 155.17 215.841 154.403C215.424 153.627 214.842 153.016 214.094 152.571C213.355 152.126 212.493 151.903 211.509 151.903C210.457 151.903 209.534 152.159 208.739 152.67C207.943 153.172 207.323 153.835 206.878 154.659C206.442 155.473 206.22 156.368 206.21 157.344V160.369C206.21 161.638 206.442 162.727 206.906 163.636C207.37 164.536 208.019 165.227 208.852 165.71C209.686 166.184 210.661 166.42 211.778 166.42C212.527 166.42 213.204 166.316 213.81 166.108C214.416 165.89 214.941 165.573 215.386 165.156C215.831 164.74 216.168 164.223 216.395 163.608L221.196 164.148C220.893 165.417 220.315 166.525 219.463 167.472C218.62 168.409 217.541 169.138 216.224 169.659C214.908 170.17 213.402 170.426 211.707 170.426ZM225.759 170V148.182H230.745V151.818H230.972C231.37 150.559 232.052 149.588 233.018 148.906C233.993 148.215 235.106 147.869 236.356 147.869C236.64 147.869 236.957 147.884 237.308 147.912C237.667 147.931 237.966 147.964 238.202 148.011V152.741C237.985 152.666 237.639 152.599 237.165 152.543C236.701 152.476 236.252 152.443 235.816 152.443C234.879 152.443 234.036 152.647 233.288 153.054C232.549 153.452 231.967 154.006 231.54 154.716C231.114 155.426 230.901 156.245 230.901 157.173V170H225.759ZM250.237 170.426C248.107 170.426 246.26 169.957 244.697 169.02C243.135 168.082 241.923 166.771 241.061 165.085C240.209 163.4 239.783 161.43 239.783 159.176C239.783 156.922 240.209 154.948 241.061 153.253C241.923 151.558 243.135 150.241 244.697 149.304C246.26 148.366 248.107 147.898 250.237 147.898C252.368 147.898 254.214 148.366 255.777 149.304C257.339 150.241 258.547 151.558 259.399 153.253C260.261 154.948 260.692 156.922 260.692 159.176C260.692 161.43 260.261 163.4 259.399 165.085C258.547 166.771 257.339 168.082 255.777 169.02C254.214 169.957 252.368 170.426 250.237 170.426ZM250.266 166.307C251.421 166.307 252.387 165.99 253.163 165.355C253.94 164.711 254.518 163.849 254.896 162.77C255.285 161.69 255.479 160.488 255.479 159.162C255.479 157.827 255.285 156.619 254.896 155.54C254.518 154.451 253.94 153.584 253.163 152.94C252.387 152.296 251.421 151.974 250.266 151.974C249.082 151.974 248.097 152.296 247.311 152.94C246.535 153.584 245.952 154.451 245.564 155.54C245.185 156.619 244.996 157.827 244.996 159.162C244.996 160.488 245.185 161.69 245.564 162.77C245.952 163.849 246.535 164.711 247.311 165.355C248.097 165.99 249.082 166.307 250.266 166.307ZM31.9968 218H22.1388V188.909H32.1957C35.0839 188.909 37.565 189.491 39.6389 190.656C41.7222 191.812 43.3226 193.473 44.44 195.642C45.5574 197.811 46.1161 200.405 46.1161 203.426C46.1161 206.456 45.5527 209.061 44.4258 211.239C43.3084 213.417 41.6938 215.088 39.582 216.253C37.4798 217.418 34.9513 218 31.9968 218ZM27.4087 213.44H31.7411C33.7676 213.44 35.458 213.071 36.8121 212.332C38.1663 211.584 39.1843 210.472 39.8661 208.994C40.5479 207.508 40.8889 205.652 40.8889 203.426C40.8889 201.201 40.5479 199.354 39.8661 197.886C39.1843 196.409 38.1758 195.306 36.8406 194.577C35.5148 193.838 33.8671 193.469 31.8974 193.469H27.4087V213.44ZM57.1744 218.44C55.7918 218.44 54.5465 218.194 53.4386 217.702C52.3401 217.2 51.4689 216.461 50.8249 215.486C50.1905 214.51 49.8732 213.308 49.8732 211.878C49.8732 210.647 50.1005 209.629 50.555 208.824C51.0096 208.019 51.6299 207.375 52.4158 206.892C53.2018 206.409 54.0872 206.045 55.0721 205.798C56.0664 205.543 57.0939 205.358 58.1545 205.244C59.4329 205.112 60.4698 204.993 61.2653 204.889C62.0607 204.776 62.6384 204.605 62.9982 204.378C63.3675 204.141 63.5522 203.777 63.5522 203.284V203.199C63.5522 202.129 63.235 201.3 62.6005 200.713C61.966 200.126 61.0522 199.832 59.859 199.832C58.5996 199.832 57.6005 200.107 56.8619 200.656C56.1327 201.205 55.6403 201.854 55.3846 202.602L50.5835 201.92C50.9622 200.595 51.5872 199.487 52.4585 198.597C53.3297 197.697 54.395 197.025 55.6545 196.58C56.9139 196.125 58.306 195.898 59.8306 195.898C60.8817 195.898 61.9281 196.021 62.9698 196.267C64.0115 196.513 64.9632 196.92 65.8249 197.489C66.6867 198.047 67.378 198.81 67.8988 199.776C68.4291 200.741 68.6942 201.949 68.6942 203.398V218H63.7511V215.003H63.5806C63.2681 215.609 62.8278 216.177 62.2596 216.707C61.7009 217.228 60.9954 217.65 60.1431 217.972C59.3003 218.284 58.3107 218.44 57.1744 218.44ZM58.5096 214.662C59.5418 214.662 60.4367 214.458 61.1942 214.051C61.9518 213.634 62.5342 213.085 62.9414 212.403C63.3581 211.722 63.5664 210.978 63.5664 210.173V207.602C63.4054 207.735 63.1308 207.858 62.7425 207.972C62.3638 208.085 61.9376 208.185 61.4641 208.27C60.9906 208.355 60.5219 208.431 60.0579 208.497C59.5939 208.563 59.1914 208.62 58.8505 208.668C58.0835 208.772 57.3969 208.942 56.7908 209.179C56.1848 209.416 55.7066 209.747 55.3562 210.173C55.0058 210.59 54.8306 211.13 54.8306 211.793C54.8306 212.74 55.1763 213.455 55.8675 213.938C56.5588 214.42 57.4395 214.662 58.5096 214.662ZM76.2795 226.182C75.5787 226.182 74.93 226.125 74.3335 226.011C73.7463 225.907 73.2776 225.784 72.9272 225.642L74.1204 221.636C74.8685 221.854 75.5361 221.958 76.1232 221.949C76.7103 221.939 77.2264 221.755 77.6715 221.395C78.1261 221.045 78.5096 220.457 78.8221 219.634L79.2624 218.455L71.3505 196.182H76.805L81.8335 212.659H82.0607L87.1033 196.182H92.5721L83.8363 220.642C83.4291 221.797 82.8893 222.787 82.217 223.611C81.5446 224.444 80.7208 225.079 79.7454 225.514C78.7795 225.959 77.6242 226.182 76.2795 226.182ZM116.137 218H106.279V188.909H116.336C119.225 188.909 121.706 189.491 123.779 190.656C125.863 191.812 127.463 193.473 128.581 195.642C129.698 197.811 130.257 200.405 130.257 203.426C130.257 206.456 129.693 209.061 128.566 211.239C127.449 213.417 125.834 215.088 123.723 216.253C121.62 217.418 119.092 218 116.137 218ZM111.549 213.44H115.882C117.908 213.44 119.599 213.071 120.953 212.332C122.307 211.584 123.325 210.472 124.007 208.994C124.689 207.508 125.029 205.652 125.029 203.426C125.029 201.201 124.689 199.354 124.007 197.886C123.325 196.409 122.316 195.306 120.981 194.577C119.655 193.838 118.008 193.469 116.038 193.469H111.549V213.44ZM144.696 218.426C142.508 218.426 140.619 217.972 139.028 217.062C137.447 216.144 136.23 214.847 135.377 213.17C134.525 211.485 134.099 209.501 134.099 207.219C134.099 204.974 134.525 203.005 135.377 201.31C136.239 199.605 137.442 198.279 138.985 197.332C140.529 196.376 142.342 195.898 144.426 195.898C145.77 195.898 147.039 196.116 148.233 196.551C149.435 196.977 150.496 197.64 151.414 198.54C152.342 199.439 153.072 200.585 153.602 201.977C154.132 203.36 154.397 205.008 154.397 206.92V208.497H136.514V205.031H149.468C149.459 204.046 149.246 203.17 148.829 202.403C148.413 201.627 147.83 201.016 147.082 200.571C146.343 200.126 145.482 199.903 144.497 199.903C143.446 199.903 142.522 200.159 141.727 200.67C140.931 201.172 140.311 201.835 139.866 202.659C139.431 203.473 139.208 204.368 139.199 205.344V208.369C139.199 209.638 139.431 210.727 139.895 211.636C140.359 212.536 141.007 213.227 141.841 213.71C142.674 214.184 143.649 214.42 144.767 214.42C145.515 214.42 146.192 214.316 146.798 214.108C147.404 213.89 147.93 213.573 148.375 213.156C148.82 212.74 149.156 212.223 149.383 211.608L154.184 212.148C153.881 213.417 153.304 214.525 152.451 215.472C151.609 216.409 150.529 217.138 149.213 217.659C147.896 218.17 146.391 218.426 144.696 218.426ZM169.642 196.182V200.159H157.1V196.182H169.642ZM160.196 190.955H165.338V211.438C165.338 212.129 165.443 212.659 165.651 213.028C165.869 213.388 166.153 213.634 166.503 213.767C166.854 213.9 167.242 213.966 167.668 213.966C167.99 213.966 168.283 213.942 168.549 213.895C168.823 213.848 169.032 213.805 169.174 213.767L170.04 217.787C169.766 217.882 169.373 217.986 168.861 218.099C168.359 218.213 167.744 218.279 167.015 218.298C165.727 218.336 164.567 218.142 163.534 217.716C162.502 217.28 161.683 216.608 161.077 215.699C160.48 214.79 160.187 213.653 160.196 212.29V190.955ZM183.368 218.426C181.18 218.426 179.291 217.972 177.7 217.062C176.118 216.144 174.902 214.847 174.049 213.17C173.197 211.485 172.771 209.501 172.771 207.219C172.771 204.974 173.197 203.005 174.049 201.31C174.911 199.605 176.114 198.279 177.657 197.332C179.201 196.376 181.014 195.898 183.098 195.898C184.442 195.898 185.711 196.116 186.904 196.551C188.107 196.977 189.168 197.64 190.086 198.54C191.014 199.439 191.743 200.585 192.274 201.977C192.804 203.36 193.069 205.008 193.069 206.92V208.497H175.186V205.031H188.14C188.131 204.046 187.918 203.17 187.501 202.403C187.084 201.627 186.502 201.016 185.754 200.571C185.015 200.126 184.154 199.903 183.169 199.903C182.118 199.903 181.194 200.159 180.399 200.67C179.603 201.172 178.983 201.835 178.538 202.659C178.102 203.473 177.88 204.368 177.87 205.344V208.369C177.87 209.638 178.102 210.727 178.566 211.636C179.03 212.536 179.679 213.227 180.512 213.71C181.346 214.184 182.321 214.42 183.439 214.42C184.187 214.42 184.864 214.316 185.47 214.108C186.076 213.89 186.601 213.573 187.047 213.156C187.492 212.74 187.828 212.223 188.055 211.608L192.856 212.148C192.553 213.417 191.975 214.525 191.123 215.472C190.28 216.409 189.201 217.138 187.885 217.659C186.568 218.17 185.063 218.426 183.368 218.426ZM206.936 218.426C204.758 218.426 202.888 217.948 201.326 216.991C199.773 216.035 198.575 214.714 197.732 213.028C196.899 211.333 196.482 209.383 196.482 207.176C196.482 204.96 196.908 203.005 197.76 201.31C198.613 199.605 199.815 198.279 201.368 197.332C202.931 196.376 204.777 195.898 206.908 195.898C208.679 195.898 210.246 196.224 211.61 196.878C212.983 197.522 214.077 198.436 214.891 199.619C215.705 200.794 216.169 202.167 216.283 203.739H211.368C211.169 202.687 210.696 201.812 209.948 201.111C209.209 200.401 208.22 200.045 206.979 200.045C205.928 200.045 205.005 200.33 204.209 200.898C203.414 201.456 202.793 202.261 202.348 203.312C201.913 204.364 201.695 205.623 201.695 207.091C201.695 208.578 201.913 209.856 202.348 210.926C202.784 211.987 203.395 212.806 204.181 213.384C204.976 213.952 205.909 214.236 206.979 214.236C207.737 214.236 208.414 214.094 209.01 213.81C209.616 213.516 210.123 213.095 210.53 212.545C210.937 211.996 211.217 211.329 211.368 210.543H216.283C216.16 212.086 215.705 213.455 214.919 214.648C214.133 215.831 213.063 216.759 211.709 217.432C210.355 218.095 208.764 218.426 206.936 218.426ZM231.4 196.182V200.159H218.858V196.182H231.4ZM221.954 190.955H227.096V211.438C227.096 212.129 227.2 212.659 227.409 213.028C227.627 213.388 227.911 213.634 228.261 213.767C228.611 213.9 229 213.966 229.426 213.966C229.748 213.966 230.041 213.942 230.306 213.895C230.581 213.848 230.789 213.805 230.931 213.767L231.798 217.787C231.523 217.882 231.13 217.986 230.619 218.099C230.117 218.213 229.502 218.279 228.772 218.298C227.484 218.336 226.324 218.142 225.292 217.716C224.26 217.28 223.441 216.608 222.835 215.699C222.238 214.79 221.945 213.653 221.954 212.29V190.955ZM245.125 218.426C242.938 218.426 241.049 217.972 239.458 217.062C237.876 216.144 236.659 214.847 235.807 213.17C234.955 211.485 234.529 209.501 234.529 207.219C234.529 204.974 234.955 203.005 235.807 201.31C236.669 199.605 237.872 198.279 239.415 197.332C240.959 196.376 242.772 195.898 244.855 195.898C246.2 195.898 247.469 196.116 248.662 196.551C249.865 196.977 250.926 197.64 251.844 198.54C252.772 199.439 253.501 200.585 254.032 201.977C254.562 203.36 254.827 205.008 254.827 206.92V208.497H236.944V205.031H249.898C249.889 204.046 249.676 203.17 249.259 202.403C248.842 201.627 248.26 201.016 247.512 200.571C246.773 200.126 245.911 199.903 244.926 199.903C243.875 199.903 242.952 200.159 242.157 200.67C241.361 201.172 240.741 201.835 240.296 202.659C239.86 203.473 239.638 204.368 239.628 205.344V208.369C239.628 209.638 239.86 210.727 240.324 211.636C240.788 212.536 241.437 213.227 242.27 213.71C243.104 214.184 244.079 214.42 245.196 214.42C245.944 214.42 246.622 214.316 247.228 214.108C247.834 213.89 248.359 213.573 248.804 213.156C249.249 212.74 249.586 212.223 249.813 211.608L254.614 212.148C254.311 213.417 253.733 214.525 252.881 215.472C252.038 216.409 250.959 217.138 249.642 217.659C248.326 218.17 246.82 218.426 245.125 218.426ZM267.274 218.384C265.56 218.384 264.026 217.943 262.672 217.062C261.317 216.182 260.247 214.903 259.461 213.227C258.675 211.551 258.282 209.515 258.282 207.119C258.282 204.695 258.68 202.65 259.475 200.983C260.28 199.307 261.365 198.043 262.728 197.19C264.092 196.329 265.612 195.898 267.288 195.898C268.566 195.898 269.618 196.116 270.441 196.551C271.265 196.977 271.919 197.493 272.402 198.099C272.885 198.696 273.259 199.259 273.524 199.79H273.737V188.909H278.893V218H273.836V214.562H273.524C273.259 215.093 272.875 215.656 272.373 216.253C271.871 216.84 271.208 217.342 270.385 217.759C269.561 218.175 268.524 218.384 267.274 218.384ZM268.708 214.165C269.797 214.165 270.725 213.871 271.493 213.284C272.26 212.687 272.842 211.859 273.24 210.798C273.637 209.738 273.836 208.502 273.836 207.091C273.836 205.68 273.637 204.454 273.24 203.412C272.851 202.37 272.274 201.561 271.507 200.983C270.749 200.405 269.816 200.116 268.708 200.116C267.563 200.116 266.606 200.415 265.839 201.011C265.072 201.608 264.494 202.432 264.106 203.483C263.718 204.534 263.524 205.737 263.524 207.091C263.524 208.455 263.718 209.671 264.106 210.741C264.504 211.802 265.086 212.64 265.853 213.256C266.63 213.862 267.582 214.165 268.708 214.165Z" fill="white"/>
<path d="M105.528 249.455H108.753L113.071 259.994H113.241L117.56 249.455H120.784V264H118.256V254.007H118.121L114.101 263.957H112.212L108.192 253.986H108.057V264H105.528V249.455ZM123.54 264V253.091H126.111V264H123.54ZM124.832 251.543C124.425 251.543 124.075 251.408 123.781 251.138C123.488 250.863 123.341 250.534 123.341 250.151C123.341 249.762 123.488 249.433 123.781 249.163C124.075 248.889 124.425 248.751 124.832 248.751C125.244 248.751 125.595 248.889 125.884 249.163C126.177 249.433 126.324 249.762 126.324 250.151C126.324 250.534 126.177 250.863 125.884 251.138C125.595 251.408 125.244 251.543 124.832 251.543ZM133.513 264.213C132.424 264.213 131.489 263.974 130.708 263.496C129.931 263.018 129.332 262.357 128.911 261.514C128.494 260.667 128.286 259.691 128.286 258.588C128.286 257.48 128.499 256.502 128.925 255.655C129.351 254.803 129.953 254.14 130.729 253.666C131.51 253.188 132.434 252.949 133.499 252.949C134.384 252.949 135.168 253.112 135.85 253.439C136.536 253.761 137.083 254.218 137.49 254.81C137.898 255.397 138.13 256.083 138.186 256.869H135.729C135.63 256.344 135.393 255.906 135.019 255.555C134.65 255.2 134.155 255.023 133.534 255.023C133.009 255.023 132.547 255.165 132.15 255.449C131.752 255.728 131.442 256.131 131.219 256.656C131.001 257.182 130.892 257.812 130.892 258.545C130.892 259.289 131.001 259.928 131.219 260.463C131.437 260.993 131.742 261.403 132.135 261.692C132.533 261.976 132.999 262.118 133.534 262.118C133.913 262.118 134.252 262.047 134.55 261.905C134.853 261.758 135.106 261.547 135.31 261.273C135.514 260.998 135.653 260.664 135.729 260.271H138.186C138.125 261.043 137.898 261.727 137.505 262.324C137.112 262.916 136.577 263.38 135.9 263.716C135.222 264.047 134.427 264.213 133.513 264.213ZM140.298 264V253.091H142.79V254.909H142.904C143.103 254.279 143.444 253.794 143.927 253.453C144.415 253.107 144.971 252.935 145.596 252.935C145.738 252.935 145.897 252.942 146.072 252.956C146.252 252.965 146.401 252.982 146.519 253.006V255.371C146.41 255.333 146.237 255.3 146.001 255.271C145.769 255.238 145.544 255.222 145.326 255.222C144.857 255.222 144.436 255.323 144.062 255.527C143.692 255.726 143.401 256.003 143.188 256.358C142.975 256.713 142.869 257.123 142.869 257.587V264H140.298ZM152.537 264.213C151.471 264.213 150.548 263.979 149.767 263.51C148.985 263.041 148.379 262.385 147.949 261.543C147.522 260.7 147.309 259.715 147.309 258.588C147.309 257.461 147.522 256.474 147.949 255.626C148.379 254.779 148.985 254.121 149.767 253.652C150.548 253.183 151.471 252.949 152.537 252.949C153.602 252.949 154.525 253.183 155.306 253.652C156.088 254.121 156.691 254.779 157.118 255.626C157.548 256.474 157.764 257.461 157.764 258.588C157.764 259.715 157.548 260.7 157.118 261.543C156.691 262.385 156.088 263.041 155.306 263.51C154.525 263.979 153.602 264.213 152.537 264.213ZM152.551 262.153C153.128 262.153 153.611 261.995 154 261.678C154.388 261.356 154.677 260.925 154.866 260.385C155.06 259.845 155.157 259.244 155.157 258.581C155.157 257.913 155.06 257.31 154.866 256.77C154.677 256.225 154.388 255.792 154 255.47C153.611 255.148 153.128 254.987 152.551 254.987C151.959 254.987 151.467 255.148 151.074 255.47C150.685 255.792 150.394 256.225 150.2 256.77C150.011 257.31 149.916 257.913 149.916 258.581C149.916 259.244 150.011 259.845 150.2 260.385C150.394 260.925 150.685 261.356 151.074 261.678C151.467 261.995 151.959 262.153 152.551 262.153ZM168.568 255.974L166.224 256.23C166.158 255.993 166.042 255.771 165.876 255.562C165.715 255.354 165.498 255.186 165.223 255.058C164.948 254.93 164.612 254.866 164.214 254.866C163.679 254.866 163.23 254.982 162.865 255.214C162.505 255.446 162.328 255.747 162.332 256.116C162.328 256.434 162.444 256.692 162.68 256.891C162.922 257.089 163.32 257.253 163.874 257.381L165.734 257.778C166.767 258.001 167.534 258.354 168.036 258.837C168.542 259.32 168.798 259.952 168.803 260.733C168.798 261.42 168.597 262.026 168.199 262.551C167.806 263.072 167.259 263.479 166.558 263.773C165.857 264.066 165.053 264.213 164.143 264.213C162.808 264.213 161.733 263.934 160.919 263.375C160.105 262.812 159.619 262.028 159.463 261.024L161.97 260.783C162.084 261.275 162.325 261.647 162.695 261.898C163.064 262.149 163.545 262.274 164.136 262.274C164.747 262.274 165.237 262.149 165.607 261.898C165.981 261.647 166.168 261.337 166.168 260.967C166.168 260.655 166.047 260.397 165.805 260.193C165.569 259.99 165.199 259.833 164.697 259.724L162.837 259.334C161.79 259.116 161.016 258.749 160.514 258.233C160.012 257.712 159.764 257.054 159.768 256.259C159.764 255.586 159.946 255.004 160.315 254.511C160.689 254.014 161.208 253.631 161.871 253.361C162.538 253.086 163.308 252.949 164.179 252.949C165.457 252.949 166.464 253.221 167.197 253.766C167.936 254.31 168.393 255.046 168.568 255.974ZM175.681 264.213C174.616 264.213 173.692 263.979 172.911 263.51C172.13 263.041 171.524 262.385 171.093 261.543C170.667 260.7 170.454 259.715 170.454 258.588C170.454 257.461 170.667 256.474 171.093 255.626C171.524 254.779 172.13 254.121 172.911 253.652C173.692 253.183 174.616 252.949 175.681 252.949C176.746 252.949 177.67 253.183 178.451 253.652C179.232 254.121 179.836 254.779 180.262 255.626C180.693 256.474 180.908 257.461 180.908 258.588C180.908 259.715 180.693 260.7 180.262 261.543C179.836 262.385 179.232 263.041 178.451 263.51C177.67 263.979 176.746 264.213 175.681 264.213ZM175.695 262.153C176.273 262.153 176.756 261.995 177.144 261.678C177.532 261.356 177.821 260.925 178.011 260.385C178.205 259.845 178.302 259.244 178.302 258.581C178.302 257.913 178.205 257.31 178.011 256.77C177.821 256.225 177.532 255.792 177.144 255.47C176.756 255.148 176.273 254.987 175.695 254.987C175.103 254.987 174.611 255.148 174.218 255.47C173.83 255.792 173.539 256.225 173.344 256.77C173.155 257.31 173.06 257.913 173.06 258.581C173.06 259.244 173.155 259.845 173.344 260.385C173.539 260.925 173.83 261.356 174.218 261.678C174.611 261.995 175.103 262.153 175.695 262.153ZM188.616 253.091V255.08H182.167V253.091H188.616ZM183.779 264V252.061C183.779 251.327 183.931 250.716 184.234 250.229C184.542 249.741 184.954 249.376 185.47 249.135C185.986 248.893 186.559 248.773 187.189 248.773C187.634 248.773 188.029 248.808 188.375 248.879C188.72 248.95 188.976 249.014 189.142 249.071L188.63 251.06C188.521 251.027 188.384 250.993 188.218 250.96C188.053 250.922 187.868 250.903 187.664 250.903C187.186 250.903 186.848 251.019 186.649 251.251C186.455 251.479 186.358 251.805 186.358 252.232V264H183.779ZM196.077 253.091V255.08H189.806V253.091H196.077ZM191.354 250.477H193.925V260.719C193.925 261.064 193.977 261.33 194.081 261.514C194.19 261.694 194.332 261.817 194.507 261.884C194.683 261.95 194.877 261.983 195.09 261.983C195.251 261.983 195.398 261.971 195.53 261.947C195.667 261.924 195.772 261.902 195.843 261.884L196.276 263.893C196.139 263.941 195.942 263.993 195.686 264.05C195.435 264.107 195.128 264.14 194.763 264.149C194.119 264.168 193.539 264.071 193.023 263.858C192.507 263.64 192.097 263.304 191.794 262.849C191.496 262.395 191.349 261.827 191.354 261.145V250.477Z" fill="#292D32"/>
<path d="M119.339 101.453C119.273 100.833 118.994 100.35 118.501 100.004C118.014 99.6586 117.379 99.4858 116.598 99.4858C116.049 99.4858 115.578 99.5687 115.185 99.7344C114.792 99.9001 114.491 100.125 114.283 100.409C114.074 100.693 113.968 101.018 113.963 101.382C113.963 101.685 114.032 101.948 114.169 102.17C114.311 102.393 114.503 102.582 114.744 102.739C114.986 102.89 115.253 103.018 115.547 103.122C115.84 103.226 116.136 103.314 116.435 103.385L117.798 103.726C118.348 103.854 118.875 104.027 119.382 104.244C119.893 104.462 120.35 104.737 120.753 105.068C121.16 105.4 121.482 105.8 121.719 106.268C121.955 106.737 122.074 107.286 122.074 107.916C122.074 108.768 121.856 109.519 121.42 110.168C120.985 110.812 120.355 111.316 119.531 111.68C118.712 112.04 117.72 112.22 116.555 112.22C115.424 112.22 114.441 112.045 113.608 111.695C112.779 111.344 112.131 110.833 111.662 110.161C111.198 109.488 110.947 108.669 110.909 107.703H113.501C113.539 108.21 113.696 108.631 113.97 108.967C114.245 109.304 114.602 109.554 115.043 109.72C115.488 109.886 115.985 109.969 116.534 109.969C117.107 109.969 117.609 109.884 118.04 109.713C118.475 109.538 118.816 109.296 119.062 108.989C119.309 108.676 119.434 108.312 119.439 107.895C119.434 107.516 119.323 107.204 119.105 106.957C118.887 106.706 118.582 106.498 118.189 106.332C117.801 106.162 117.346 106.01 116.825 105.878L115.17 105.452C113.973 105.144 113.026 104.678 112.33 104.053C111.638 103.423 111.293 102.587 111.293 101.545C111.293 100.688 111.525 99.938 111.989 99.294C112.457 98.6501 113.094 98.1506 113.899 97.7955C114.704 97.4356 115.616 97.2557 116.634 97.2557C117.666 97.2557 118.57 97.4356 119.347 97.7955C120.128 98.1506 120.741 98.6454 121.186 99.2798C121.631 99.9096 121.861 100.634 121.875 101.453H119.339ZM137.42 104.727C137.42 106.295 137.127 107.637 136.539 108.754C135.957 109.867 135.162 110.719 134.153 111.311C133.149 111.903 132.011 112.199 130.737 112.199C129.463 112.199 128.322 111.903 127.314 111.311C126.31 110.714 125.514 109.86 124.927 108.747C124.345 107.63 124.054 106.29 124.054 104.727C124.054 103.16 124.345 101.82 124.927 100.707C125.514 99.59 126.31 98.7353 127.314 98.1435C128.322 97.5516 129.463 97.2557 130.737 97.2557C132.011 97.2557 133.149 97.5516 134.153 98.1435C135.162 98.7353 135.957 99.59 136.539 100.707C137.127 101.82 137.42 103.16 137.42 104.727ZM134.771 104.727C134.771 103.624 134.598 102.694 134.252 101.936C133.912 101.174 133.438 100.598 132.832 100.21C132.226 99.8172 131.528 99.6207 130.737 99.6207C129.946 99.6207 129.248 99.8172 128.642 100.21C128.036 100.598 127.56 101.174 127.214 101.936C126.873 102.694 126.703 103.624 126.703 104.727C126.703 105.83 126.873 106.763 127.214 107.526C127.56 108.283 128.036 108.858 128.642 109.251C129.248 109.64 129.946 109.834 130.737 109.834C131.528 109.834 132.226 109.64 132.832 109.251C133.438 108.858 133.912 108.283 134.252 107.526C134.598 106.763 134.771 105.83 134.771 104.727ZM152.362 102.362H149.705C149.629 101.927 149.49 101.541 149.286 101.205C149.083 100.864 148.829 100.575 148.526 100.338C148.223 100.101 147.878 99.9238 147.489 99.8054C147.106 99.6823 146.692 99.6207 146.246 99.6207C145.456 99.6207 144.755 99.8196 144.144 100.217C143.533 100.61 143.055 101.188 142.71 101.95C142.364 102.708 142.191 103.634 142.191 104.727C142.191 105.84 142.364 106.777 142.71 107.54C143.06 108.297 143.538 108.87 144.144 109.259C144.755 109.642 145.453 109.834 146.239 109.834C146.675 109.834 147.082 109.777 147.461 109.663C147.844 109.545 148.188 109.372 148.491 109.145C148.799 108.918 149.057 108.638 149.265 108.307C149.478 107.975 149.625 107.597 149.705 107.17L152.362 107.185C152.262 107.876 152.047 108.525 151.715 109.131C151.388 109.737 150.96 110.272 150.43 110.736C149.899 111.195 149.279 111.555 148.569 111.815C147.859 112.071 147.07 112.199 146.204 112.199C144.925 112.199 143.784 111.903 142.781 111.311C141.777 110.719 140.986 109.865 140.408 108.747C139.831 107.63 139.542 106.29 139.542 104.727C139.542 103.16 139.833 101.82 140.415 100.707C140.998 99.59 141.791 98.7353 142.795 98.1435C143.799 97.5516 144.935 97.2557 146.204 97.2557C147.013 97.2557 147.766 97.3693 148.462 97.5966C149.158 97.8239 149.779 98.1577 150.323 98.598C150.868 99.0336 151.315 99.5687 151.665 100.203C152.021 100.833 152.253 101.553 152.362 102.362ZM160.549 97.4545V112H157.914V100.018H157.828L154.426 102.192V99.777L158.042 97.4545H160.549ZM164.775 112L170.961 99.7557V99.6562H163.78V97.4545H173.688V99.706L167.509 112H164.775ZM180.868 112.199C179.846 112.199 178.936 112.024 178.141 111.673C177.35 111.323 176.725 110.835 176.266 110.21C175.807 109.585 175.563 108.863 175.534 108.044H178.205C178.229 108.437 178.359 108.78 178.596 109.074C178.832 109.363 179.147 109.588 179.54 109.749C179.933 109.91 180.373 109.99 180.861 109.99C181.382 109.99 181.844 109.9 182.246 109.72C182.649 109.536 182.963 109.28 183.191 108.953C183.418 108.626 183.529 108.25 183.525 107.824C183.529 107.384 183.416 106.995 183.184 106.659C182.952 106.323 182.615 106.06 182.175 105.871C181.739 105.681 181.214 105.587 180.598 105.587H179.313V103.555H180.598C181.105 103.555 181.548 103.468 181.926 103.293C182.31 103.117 182.611 102.871 182.828 102.554C183.046 102.232 183.153 101.86 183.148 101.439C183.153 101.027 183.06 100.67 182.871 100.366C182.686 100.059 182.424 99.8196 182.083 99.6491C181.747 99.4787 181.351 99.3935 180.897 99.3935C180.452 99.3935 180.04 99.474 179.661 99.6349C179.282 99.7959 178.977 100.026 178.745 100.324C178.513 100.617 178.39 100.968 178.375 101.375H175.84C175.859 100.561 176.093 99.8456 176.543 99.2301C176.998 98.6098 177.604 98.1269 178.361 97.7812C179.119 97.4309 179.969 97.2557 180.911 97.2557C181.882 97.2557 182.724 97.438 183.439 97.8026C184.159 98.1624 184.715 98.6477 185.108 99.2585C185.501 99.8693 185.698 100.544 185.698 101.283C185.703 102.102 185.461 102.788 184.973 103.342C184.49 103.896 183.856 104.259 183.07 104.429V104.543C184.093 104.685 184.876 105.063 185.421 105.679C185.97 106.29 186.242 107.05 186.238 107.959C186.238 108.773 186.006 109.502 185.542 110.146C185.082 110.786 184.448 111.287 183.638 111.652C182.833 112.017 181.91 112.199 180.868 112.199Z" fill="#292D32"/>
</g>
<defs>
<clipPath id="clip0_135_2">
<rect width="300" height="300" fill="white"/>
</clipPath>
</defs>
</svg>
