<svg width="64" height="64" viewBox="0 0 64 64" fill="none" xmlns="http://www.w3.org/2000/svg">
<rect width="64" height="63.9992" fill="black"/>
<mask id="mask0_124_11" style="mask-type:luminance" maskUnits="userSpaceOnUse" x="7" y="11" width="50" height="53">
<path d="M57 11.7969H7V63.9992H57V11.7969Z" fill="white"/>
</mask>
<g mask="url(#mask0_124_11)">
<path fill-rule="evenodd" clip-rule="evenodd" d="M24.4933 33.1879H30.7368V32.1133H24.4933V33.1879Z" fill="#2514ED"/>
<path fill-rule="evenodd" clip-rule="evenodd" d="M36.9933 33.1879H43.2368V32.1133H36.9933V33.1879Z" fill="#2514ED"/>
<path fill-rule="evenodd" clip-rule="evenodd" d="M50.4806 43.6104C56.994 39.6956 58.3658 32.4145 53.4837 27.2256L43.4004 16.3784C41.0271 13.8563 37.2241 12.2314 33.2018 12.2314H33.0429C29.1588 12.7687 25.4473 13.8563 23.1137 16.2618L12.6147 27.1451C10.0527 29.7843 9.03707 33.0635 9.7537 36.3186C10.3898 39.2126 12.3212 41.7605 15.2328 43.5755L7.54349 48.0975L8.38218 48.9582L16.3948 44.2563L19.2412 45.7281L20.0106 44.8346L17.1344 43.3483C13.9085 41.681 11.7732 39.132 11.1204 36.1704C10.469 33.2097 11.3937 30.2567 13.7239 27.8554L24.2229 16.9071C26.2992 14.767 29.6035 13.8434 33.0603 13.3061H33.2018C36.7822 13.3061 40.167 14.7665 42.2785 17.0114L52.3621 27.7937C56.8717 32.5864 55.5261 39.3813 49.3623 42.8996L49.3436 42.927L49.2839 42.9001L49.1306 43.0608L45.4851 45.1444L46.3085 46.0102L49.3317 44.2843L56.7049 48.613L57.5435 47.7571L50.4806 43.6104Z" fill="#FFB700" fill-opacity="0.65"/>
<path fill-rule="evenodd" clip-rule="evenodd" d="M51.5129 28.9658L39.8686 19.6709L38.8724 20.4194L50.5167 29.7143L51.5129 28.9658Z" fill="#2514ED"/>
<path fill-rule="evenodd" clip-rule="evenodd" d="M25.0536 21.1592L19.1534 25.8494L20.1469 26.5994L26.047 21.9093L25.0536 21.1592Z" fill="#2514ED"/>
<path fill-rule="evenodd" clip-rule="evenodd" d="M27.0839 28.5195C25.2567 28.5195 23.5993 29.2621 22.9598 30.3668L24.225 30.8068C24.6448 30.0815 25.7943 29.5941 27.0839 29.5941C28.3243 29.5941 29.4267 30.0374 29.8908 30.7236L31.1193 30.2249C30.4187 29.189 28.8342 28.5195 27.0839 28.5195Z" fill="#2514ED"/>
<path fill-rule="evenodd" clip-rule="evenodd" d="M39.7716 28.5195C37.9449 28.5195 36.2876 29.2621 35.6467 30.3668L36.912 30.8074C37.3324 30.0815 38.4819 29.5941 39.7716 29.5941C40.9932 29.5941 42.1212 30.0482 42.5784 30.7236L43.807 30.2249C43.1063 29.189 41.5218 28.5195 39.7716 28.5195Z" fill="#2514ED"/>
<path fill-rule="evenodd" clip-rule="evenodd" d="M43.224 42.1133C43.224 43.349 42.2909 44.464 40.8681 45.0233L37.946 46.1619L37.9842 46.2391L34.8319 45.227L35.4882 41.5475L35.6145 41.7844H39.9128L41.3496 39.5825L40.1231 39.1301L39.0776 40.7098H36.3151L35.7519 40.0167L35.8641 39.3214L31.8572 38.6224L31.4264 39.8915L30.7313 40.7098H27.9688L26.9234 39.0796L25.6969 39.6325L27.1343 41.7844H30.7681L29.1204 46.2007L26.2428 45.0738C24.8207 44.5145 23.7995 43.349 23.7995 42.1133V40.1537L24.1457 39.8405C22.5619 39.3359 21.7183 38.1581 21.7183 36.8395V29.9555L26.6098 26.2459C28.4808 24.8521 30.8964 24.0531 33.4923 24.0531H33.6478H33.6505C36.3387 24.0531 38.8229 24.9418 40.6912 26.4383L45.3052 30.2661V36.8395C45.3052 38.2516 44.2133 39.5277 42.4637 39.942L42.9826 40.9693C43.0269 40.9591 43.224 40.9413 43.224 40.9301V42.1133ZM39.8566 51.9365L38.1619 49.9955L36.3949 54.4763L34.5406 54.5561L31.0448 58.1676L25.1156 56.0881L30.322 46.7404L32.6931 40.2584L32.9359 40.0032L32.8125 39.9328L32.8381 39.8619L34.193 40.0898L34.3019 40.2042L33.3085 45.9017L41.1685 48.4307L39.8566 51.9365ZM46.6926 36.8395V31.3772L51.8825 35.4275C51.6202 36.3076 50.4908 39.3665 46.0877 41.6684L46.8966 42.5592C52.6032 39.5755 53.4038 35.5006 53.4342 35.3292L53.4885 35.0702L41.8151 25.6908C39.6859 23.9859 36.7134 22.9785 33.6505 22.9785H33.6478H33.4923C30.5364 22.9785 27.7357 23.8839 25.6059 25.4716L12.8503 34.9982L12.8385 35.2211C12.8295 35.4044 12.6838 39.7561 19.8071 43.6188L20.6028 42.7398C14.9045 39.6503 14.3335 36.3269 14.2725 35.4748L20.3309 30.9898V36.8395C20.3309 38.287 21.0245 39.5987 22.412 40.3933V42.1133C22.412 43.7558 23.7238 45.2378 25.6157 45.9815L28.5405 47.1037L23.8176 55.6454L22.0762 55.0285L18.1948 59.882L19.3784 60.4489L22.6278 56.3961L23.3014 56.6321L23.2875 56.658L31.0636 59.354L31.9356 59.6599L29.2717 63.9245L30.5204 64.3926L33.8045 59.1352L32.3394 58.621L35.2627 55.6019L37.4397 55.507L38.6405 52.462L40.3651 54.4375L42.8459 47.8078L39.5216 46.7378L41.4959 45.9815C43.3877 45.2378 44.6114 43.7558 44.6114 42.1133V40.396C45.9989 39.6024 46.6926 38.2763 46.6926 36.8395Z" fill="#ED143D" fill-opacity="0.76"/>
<path fill-rule="evenodd" clip-rule="evenodd" d="M22.7712 46.6904L22.1455 47.6495L25.2374 48.8601L25.8631 47.901L22.7712 46.6904Z" fill="#2514ED"/>
<path fill-rule="evenodd" clip-rule="evenodd" d="M18.274 46.4893L11.7453 50.228L10.1476 54.4598L11.4796 54.7614L12.9455 50.8764L19.0989 47.353L18.274 46.4893Z" fill="#2514ED"/>
<path fill-rule="evenodd" clip-rule="evenodd" d="M46.6724 46.4893L45.8477 47.353L52.001 50.8764L53.4664 54.7614L54.7979 54.4598L53.2011 50.228L46.6724 46.4893Z" fill="#2514ED"/>
</g>
<g clip-path="url(#clip0_124_11)">
<path d="M42.0995 14.6085C44.2879 14.6085 47.4543 14.1571 47.4543 11.5535C47.4609 11.3526 47.4427 11.1516 47.4001 10.9551L46.0968 5.29318C45.7959 4.04741 45.5318 3.48227 43.345 2.38872C41.6481 1.52088 37.9517 0.0878906 36.8583 0.0878906C35.8401 0.0878906 35.5445 1.40015 34.3304 1.40015C33.1618 1.40015 32.2941 0.42033 31.2008 0.42033C30.1511 0.42033 29.4671 1.13595 28.9388 2.60743C28.9388 2.60743 27.4676 6.75767 27.2786 7.35955C27.2486 7.47008 27.2356 7.58455 27.2402 7.69899C27.2402 9.3122 33.5904 14.6015 42.0995 14.6015M47.7902 12.6103C48.0929 14.0433 48.0929 14.1938 48.0929 14.3828C48.0929 16.8323 45.3393 18.1918 41.7198 18.1918C33.5397 18.1971 26.3742 13.4029 26.3742 10.2343C26.3737 9.79321 26.4636 9.35673 26.6384 8.95176C23.6959 9.09873 19.8875 9.62364 19.8875 12.9865C19.8875 18.4945 32.9362 25.2833 43.268 25.2833C51.1893 25.2833 53.1871 21.6999 53.1871 18.8707C53.1871 16.6451 51.2628 14.1186 47.7937 12.6103" fill="#2514ED" fill-opacity="0.81"/>
<path d="M47.7902 12.61C48.0929 14.043 48.0929 14.1935 48.0929 14.3824C48.0929 16.832 45.3393 18.1915 41.7199 18.1915C33.5397 18.1967 26.3742 13.4026 26.3742 10.2339C26.3738 9.79287 26.4637 9.35639 26.6384 8.95142L27.2787 7.36621C27.2493 7.47449 27.2364 7.58654 27.2402 7.69865C27.2402 9.31185 33.5904 14.6011 42.0995 14.6011C44.288 14.6011 47.4543 14.1497 47.4543 11.5462C47.4609 11.3453 47.4427 11.1443 47.4001 10.9478L47.7902 12.61Z" fill="black"/>
</g>
<defs>
<clipPath id="clip0_124_11">
<rect width="33.4" height="25.3703" fill="white" transform="translate(19.8)"/>
</clipPath>
</defs>
</svg>
