<svg width="64" height="64" viewBox="0 0 64 64" fill="none" xmlns="http://www.w3.org/2000/svg">
<mask id="mask0_107_22" style="mask-type:luminance" maskUnits="userSpaceOnUse" x="0" y="11" width="64" height="53">
<path d="M64 11.7969H0V63.9992H64V11.7969Z" fill="white"/>
</mask>
<g mask="url(#mask0_107_22)">
<path fill-rule="evenodd" clip-rule="evenodd" d="M22.3915 33.1879H30.3831V32.1133H22.3915V33.1879Z" fill="#2514ED"/>
<path fill-rule="evenodd" clip-rule="evenodd" d="M38.3915 33.1879H46.3831V32.1133H38.3915V33.1879Z" fill="#2514ED"/>
<path fill-rule="evenodd" clip-rule="evenodd" d="M55.6552 43.6104C63.9924 39.6956 65.7482 32.4145 59.4992 27.2256L46.5926 16.3784C43.5547 13.8563 38.6869 12.2314 33.5383 12.2314H33.335C28.3632 12.7687 23.6126 13.8563 20.6255 16.2618L7.18681 27.1451C3.9075 29.7843 2.60747 33.0635 3.52476 36.3186C4.33902 39.2126 6.81116 41.7605 10.538 43.5755L0.695679 48.0975L1.76921 48.9582L12.0253 44.2563L15.6688 45.7281L16.6535 44.8346L12.972 43.3483C8.84288 41.681 6.10966 39.132 5.27411 36.1704C4.4403 33.2097 5.62396 30.2567 8.60664 27.8554L22.0453 16.9071C24.703 14.767 28.9325 13.8434 33.3572 13.3061H33.5383C38.1213 13.3061 42.4537 14.7665 45.1565 17.0114L58.0635 27.7937C63.8359 32.5864 62.1134 39.3813 54.2238 42.8996L54.1998 42.927L54.1234 42.9001L53.9272 43.0608L49.2609 45.1444L50.3149 46.0102L54.1847 44.2843L63.6223 48.613L64.6957 47.7571L55.6552 43.6104Z" fill="#FFB700" fill-opacity="0.65"/>
<path fill-rule="evenodd" clip-rule="evenodd" d="M56.9765 28.9658L42.0718 19.6709L40.7966 20.4194L55.7014 29.7143L56.9765 28.9658Z" fill="#2514ED"/>
<path fill-rule="evenodd" clip-rule="evenodd" d="M23.1086 21.1592L15.5563 25.8494L16.828 26.5994L24.3801 21.9093L23.1086 21.1592Z" fill="#2514ED"/>
<path fill-rule="evenodd" clip-rule="evenodd" d="M25.7074 28.5195C23.3686 28.5195 21.2471 29.2621 20.4285 30.3668L22.0481 30.8068C22.5854 30.0815 24.0567 29.5941 25.7074 29.5941C27.2952 29.5941 28.7062 30.0374 29.3002 30.7236L30.8728 30.2249C29.976 29.189 27.9478 28.5195 25.7074 28.5195Z" fill="#2514ED"/>
<path fill-rule="evenodd" clip-rule="evenodd" d="M41.9477 28.5195C39.6095 28.5195 37.4882 29.2621 36.6677 30.3668L38.2874 30.8074C38.8255 30.0815 40.2969 29.5941 41.9477 29.5941C43.5113 29.5941 44.9552 30.0482 45.5404 30.7236L47.1129 30.2249C46.2161 29.189 44.1879 28.5195 41.9477 28.5195Z" fill="#2514ED"/>
<path fill-rule="evenodd" clip-rule="evenodd" d="M46.3667 42.1133C46.3667 43.349 45.1724 44.464 43.3511 45.0233L39.611 46.1619L39.6598 46.2391L35.6249 45.227L36.465 41.5475L36.6266 41.7844H42.1284L43.9675 39.5825L42.3975 39.1301L41.0594 40.7098H37.5233L36.8024 40.0167L36.9461 39.3214L31.8173 38.6224L31.2658 39.8915L30.376 40.7098H26.8401L25.502 39.0796L23.932 39.6325L25.7719 41.7844H30.4231L28.3142 46.2007L24.6309 45.0738C22.8105 44.5145 21.5033 43.349 21.5033 42.1133V40.1537L21.9465 39.8405C19.9192 39.3359 18.8394 38.1581 18.8394 36.8395V29.9555L25.1006 26.2459C27.4954 24.8521 30.5874 24.0531 33.9102 24.0531H34.1092H34.1127C37.5535 24.0531 40.7334 24.9418 43.1247 26.4383L49.0307 30.2661V36.8395C49.0307 38.2516 47.633 39.5277 45.3936 39.942L46.0578 40.9693C46.1145 40.9591 46.3667 40.9413 46.3667 40.9301V42.1133ZM42.0565 51.9365L39.8872 49.9955L37.6255 54.4763L35.252 54.5561L30.7774 58.1676L23.1879 56.0881L29.8522 46.7404L32.8872 40.2584L33.198 40.0032L33.04 39.9328L33.0728 39.8619L34.8071 40.0898L34.9464 40.2042L33.6749 45.9017L43.7357 48.4307L42.0565 51.9365ZM50.8066 36.8395V31.3772L57.4496 35.4275C57.1139 36.3076 55.6683 39.3665 50.0323 41.6684L51.0677 42.5592C58.3721 39.5755 59.3968 35.5006 59.4358 35.3292L59.5054 35.0702L44.5633 25.6908C41.838 23.9859 38.0332 22.9785 34.1127 22.9785H34.1092H33.9102C30.1266 22.9785 26.5417 23.8839 23.8156 25.4716L7.48846 34.9982L7.47336 35.2211C7.46181 35.4044 7.27531 39.7561 16.3931 43.6188L17.4116 42.7398C10.1177 39.6503 9.38696 36.3269 9.30884 35.4748L17.0636 30.9898V36.8395C17.0636 38.287 17.9514 39.5987 19.7274 40.3933V42.1133C19.7274 43.7558 21.4065 45.2378 23.8281 45.9815L27.5719 47.1037L21.5265 55.6454L19.2976 55.0285L14.3294 59.882L15.8444 60.4489L20.0037 56.3961L20.8659 56.6321L20.848 56.658L30.8014 59.354L31.9175 59.6599L28.5078 63.9245L30.1062 64.3926L34.3097 59.1352L32.4344 58.621L36.1763 55.6019L38.9628 55.507L40.4999 52.462L42.7073 54.4375L45.8828 47.8078L41.6277 46.7378L44.1548 45.9815C46.5763 45.2378 48.1427 43.7558 48.1427 42.1133V40.396C49.9187 39.6024 50.8066 38.2763 50.8066 36.8395Z" fill="#ED143D" fill-opacity="0.76"/>
<path fill-rule="evenodd" clip-rule="evenodd" d="M20.1871 46.6904L19.3862 47.6495L23.3438 48.8601L24.1447 47.901L20.1871 46.6904Z" fill="#2514ED"/>
<path fill-rule="evenodd" clip-rule="evenodd" d="M14.4308 46.4893L6.07406 50.228L4.02905 54.4598L5.73396 54.7614L7.61027 50.8764L15.4867 47.353L14.4308 46.4893Z" fill="#2514ED"/>
<path fill-rule="evenodd" clip-rule="evenodd" d="M50.7807 46.4893L49.725 47.353L57.6013 50.8764L59.4769 54.7614L61.1813 54.4598L59.1374 50.228L50.7807 46.4893Z" fill="#2514ED"/>
</g>
<g clip-path="url(#clip0_107_22)">
<path d="M44.9273 14.6085C47.7286 14.6085 51.7815 14.1571 51.7815 11.5535C51.7899 11.3526 51.7666 11.1516 51.7121 10.9551L50.0439 5.29318C49.6588 4.04741 49.3206 3.48227 46.5216 2.38872C44.3496 1.52088 39.6181 0.0878906 38.2186 0.0878906C36.9154 0.0878906 36.537 1.40015 34.9829 1.40015C33.4871 1.40015 32.3765 0.42033 30.977 0.42033C29.6335 0.42033 28.7579 1.13595 28.0817 2.60743C28.0817 2.60743 26.1985 6.75767 25.9567 7.35955C25.9182 7.47008 25.9016 7.58455 25.9074 7.69899C25.9074 9.3122 34.0358 14.6015 44.9273 14.6015M52.2115 12.6103C52.5989 14.0433 52.5989 14.1938 52.5989 14.3828C52.5989 16.8323 49.0743 18.1918 44.4414 18.1918C33.9708 18.1971 24.799 13.4029 24.799 10.2343C24.7984 9.79321 24.9135 9.35673 25.1371 8.95176C21.3707 9.09873 16.496 9.62364 16.496 12.9865C16.496 18.4945 33.1983 25.2833 46.4231 25.2833C56.5623 25.2833 59.1195 21.6999 59.1195 18.8707C59.1195 16.6451 56.6563 14.1186 52.2159 12.6103" fill="#2514ED" fill-opacity="0.81"/>
<path d="M52.2115 12.61C52.5989 14.043 52.5989 14.1935 52.5989 14.3824C52.5989 16.832 49.0743 18.1915 44.4414 18.1915C33.9708 18.1967 24.799 13.4026 24.799 10.2339C24.7984 9.79287 24.9135 9.35639 25.1371 8.95142L25.9567 7.36621C25.9191 7.47449 25.9025 7.58654 25.9074 7.69865C25.9074 9.31185 34.0358 14.6011 44.9273 14.6011C47.7286 14.6011 51.7815 14.1497 51.7815 11.5462C51.7899 11.3453 51.7666 11.1443 51.7121 10.9478L52.2115 12.61Z" fill="black"/>
</g>
<defs>
<clipPath id="clip0_107_22">
<rect width="42.752" height="25.3703" fill="white" transform="translate(16.384)"/>
</clipPath>
</defs>
</svg>
