<svg width="64" height="64" viewBox="0 0 64 64" fill="none" xmlns="http://www.w3.org/2000/svg">
<g clip-path="url(#clip0_116_9)">
<path d="M42.7295 36.8508C46.923 36.8508 52.9903 35.712 52.9903 29.1443C53.0028 28.6374 52.9679 28.1304 52.8864 27.6348L50.3891 13.3517C49.8125 10.2091 49.3063 8.78346 45.1162 6.02484C41.8646 3.8356 34.7816 0.220703 32.6865 0.220703C30.7356 0.220703 30.1691 3.53105 27.8427 3.53105C25.6035 3.53105 23.9408 1.05932 21.8458 1.05932C19.8345 1.05932 18.5238 2.86457 17.5115 6.57657C17.5115 6.57657 14.6923 17.0461 14.3303 18.5644C14.2728 18.8432 14.2479 19.132 14.2566 19.4207C14.2566 23.4902 26.4248 36.8331 42.7295 36.8331M53.6339 31.8102C54.2138 35.4251 54.2138 35.8047 54.2138 36.2814C54.2138 42.4607 48.9376 45.8902 42.0021 45.8902C26.3275 45.9035 12.5973 33.8097 12.5973 25.8163C12.5964 24.7036 12.7686 23.6026 13.1034 22.581C7.46517 22.9517 0.167603 24.2759 0.167603 32.7592C0.167603 46.6538 25.1711 63.7793 44.9687 63.7793C60.1471 63.7793 63.9752 54.7399 63.9752 47.6028C63.9752 41.9884 60.2879 35.6149 53.6406 31.8102" fill="#2514ED" fill-opacity="0.72"/>
<path d="M53.6339 31.8102C54.2138 35.4251 54.2138 35.8047 54.2138 36.2813C54.2138 42.4607 48.9376 45.8902 42.0021 45.8902C26.3275 45.9034 12.5973 33.8096 12.5973 25.8162C12.5964 24.7036 12.7686 23.6025 13.1034 22.5809L14.3303 18.582C14.2741 18.8552 14.2493 19.1378 14.2566 19.4207C14.2566 23.4902 26.4248 36.8331 42.7295 36.8331C46.923 36.8331 52.9903 35.6943 52.9903 29.1266C53.0028 28.6197 52.9679 28.1127 52.8864 27.6171L53.6339 31.8102Z" fill="black"/>
</g>
<defs>
<clipPath id="clip0_116_9">
<rect width="64" height="64" fill="white"/>
</clipPath>
</defs>
</svg>
